<?xml version="1.0" standalone="no"?>
<!DOCTYPE svg PUBLIC "-//W3C//DTD SVG 1.1//EN" "http://www.w3.org/Graphics/SVG/1.1/DTD/svg11.dtd" >
<svg>
<metadata>
Created by FontForge 20110222 at Mon Apr 20 10:54:25 2015
 By www-data
Copyright (c) 2014 by Cyril Mikhailov. All rights reserved.
</metadata>
<defs>
<font id="FakedesOutline" horiz-adv-x="703" >
  <font-face 
    font-family="Fakedes Outline"
    font-weight="400"
    font-stretch="normal"
    units-per-em="1000"
    panose-1="2 15 8 5 0 0 0 2 0 4"
    ascent="800"
    descent="-200"
    x-height="501"
    cap-height="709"
    bbox="-151 -238 1290 1008"
    underline-thickness="60"
    underline-position="-58"
    unicode-range="U+0020-2122"
  />
    <missing-glyph />
    <glyph glyph-name="space" unicode=" " horiz-adv-x="254" 
 />
    <glyph glyph-name="space" unicode="&#xa0;" horiz-adv-x="254" 
 />
    <glyph glyph-name="exclam" unicode="!" horiz-adv-x="376" 
d="M187 176c53 0 96 -42 96 -92c0 -51 -43 -91 -96 -91c-55 0 -99 40 -99 91c0 50 44 92 99 92zM187 22c37 0 66 28 66 62c0 33 -29 62 -66 62c-39 0 -69 -29 -69 -62c0 -34 30 -62 69 -62zM296 610c0 -25 -66 -261 -94 -386c-3 -11 -8 -17 -17 -17c-7 0 -14 5 -17 13
c-12 59 -92 355 -92 391c0 44 32 105 108 105c71 0 112 -53 112 -106zM185 291c25 91 78 291 78 319s-22 73 -79 73s-75 -48 -75 -72c0 -22 43 -184 76 -320z" />
    <glyph glyph-name="quotedbl" unicode="&#x22;" horiz-adv-x="510" 
d="M140 776c60 0 95 -41 95 -81c0 -19 -24 -99 -64 -232c-5 -20 -10 -38 -12 -45c-3 -10 -9 -17 -17 -17h-1h-2c-8 1 -13 6 -15 12c-18 60 -77 257 -77 283c0 34 29 80 93 80zM141 477c19 63 61 201 61 218c0 19 -18 48 -62 48c-45 0 -59 -31 -59 -47c0 -14 29 -115 60 -219
zM370 776c59 0 95 -41 95 -81c0 -19 -23 -99 -64 -232c-5 -20 -10 -38 -13 -45c-4 -10 -8 -17 -17 -17v0h-3c-7 1 -13 6 -14 12c-17 60 -78 257 -78 283c0 34 30 80 94 80zM371 477c18 63 60 201 60 218c0 19 -17 48 -61 48c-45 0 -59 -31 -59 -47c0 -14 29 -115 60 -219z
" />
    <glyph glyph-name="numbersign" unicode="#" 
d="M627 425c11 0 18 -8 18 -17c0 -10 -7 -17 -18 -17h-140l-52 -172h163c9 0 19 -8 19 -18c0 -9 -10 -16 -19 -16h-173l-57 -187c-2 -8 -9 -13 -16 -13h-6c-9 3 -13 14 -11 22l55 178h-150l-57 -187c-3 -8 -11 -13 -17 -13h-5c-9 3 -14 14 -12 22l55 178h-128
c-10 0 -17 7 -17 16c0 10 7 18 17 18h138l52 172h-161c-9 0 -18 7 -18 17c0 9 9 17 18 17h170l60 194c3 9 12 14 21 12c10 -3 14 -13 12 -21l-56 -185h150l58 194c3 9 14 14 22 12c9 -3 14 -13 12 -21l-56 -185h129zM399 219l53 172h-151l-52 -172h150z" />
    <glyph glyph-name="dollar" unicode="$" horiz-adv-x="641" 
d="M418 411c111 -36 217 -69 217 -217c0 -122 -109 -194 -304 -200v-121c0 -9 -8 -16 -18 -16c-8 0 -15 7 -15 16v121c-134 0 -215 42 -246 125c-3 2 -3 4 -3 6c-2 8 -4 16 -4 24c0 49 40 85 92 85c50 0 92 -36 92 -85c0 -47 -40 -85 -89 -86c36 -23 89 -35 158 -35v217
c-6 2 -12 4 -18 5c-12 4 -26 7 -39 13c-88 27 -188 76 -188 212c0 108 92 178 245 185v85c0 9 7 17 15 17c10 0 18 -8 18 -17v-85c107 -1 183 -32 225 -92c0 -1 1 -3 2 -4c1 -2 2 -2 4 -4c1 -1 1 -2 1 -2c6 -13 11 -27 11 -41c0 -48 -41 -87 -91 -87s-91 39 -91 87
c0 42 31 76 72 86c-25 11 -53 18 -86 22h-1c-17 0 -32 -2 -46 -7v-178c9 -3 19 -6 30 -11c18 -7 37 -13 57 -18zM298 455v151c-40 -21 -59 -56 -59 -82c0 -29 7 -46 59 -69zM483 463c32 0 57 24 57 54c0 9 -3 20 -8 28l-3 3c-11 14 -27 21 -46 21c-33 0 -58 -23 -58 -52
c0 -30 25 -54 58 -54zM445 142c0 46 -34 66 -114 92v-204c84 12 114 71 114 112zM137 203c-33 0 -58 -24 -58 -54c0 -29 25 -54 58 -54c30 0 57 25 57 54c0 30 -27 54 -57 54zM430 39c89 17 171 60 171 155c0 123 -85 150 -194 185c-20 6 -38 12 -56 18
c-107 38 -145 62 -145 127c0 36 22 74 58 101c-113 -13 -180 -69 -180 -150c0 -92 49 -143 167 -181l39 -12c112 -34 188 -58 188 -140c0 -38 -17 -76 -48 -103z" />
    <glyph glyph-name="percent" unicode="%" horiz-adv-x="879" 
d="M631 364c116 0 194 -74 194 -186s-77 -185 -194 -185s-192 73 -192 185s78 186 192 186zM672 178c0 90 -24 154 -41 154c-16 0 -39 -48 -39 -154c0 -79 22 -154 39 -154c20 0 41 55 41 154zM471 178c0 -63 31 -131 117 -149c-23 44 -28 115 -28 149c0 30 2 103 25 149
c-72 -17 -114 -71 -114 -149zM679 29c83 19 114 86 114 149c0 79 -45 133 -116 149c21 -40 26 -107 26 -149c0 -36 -3 -105 -24 -149zM735 710c8 -5 9 -16 3 -23l-575 -699c-3 -4 -8 -6 -14 -6c-3 0 -8 1 -11 5c-7 6 -8 15 -2 22l575 699c8 7 17 8 24 2zM233 716
c116 0 194 -75 194 -186c0 -113 -76 -185 -194 -185c-116 0 -191 72 -191 185c0 111 77 186 191 186zM274 530c0 89 -24 154 -41 154c-15 0 -39 -49 -39 -154c0 -79 23 -154 39 -154c20 0 41 54 41 154zM74 530c0 -64 30 -132 116 -150c-23 45 -28 115 -28 150
c0 29 3 103 25 148c-71 -16 -113 -70 -113 -148zM282 380c82 19 114 87 114 150c0 79 -45 132 -117 148c21 -40 27 -107 27 -148c0 -37 -3 -105 -24 -150z" />
    <glyph glyph-name="ampersand" unicode="&#x26;" horiz-adv-x="821" 
d="M812 32c10 0 17 -6 17 -16s-7 -16 -17 -16h-98h-88h-94c-5 0 -11 2 -14 6s-31 39 -60 76c-25 -28 -92 -89 -182 -89c-131 0 -217 71 -217 181c0 118 103 173 169 203c-24 33 -42 55 -45 59c-15 22 -33 50 -33 112c0 65 56 168 206 168c145 0 178 -102 178 -142
c0 -84 -74 -144 -105 -164c38 -51 87 -114 133 -174c21 33 63 102 85 190h-115c-9 0 -16 7 -16 15c0 10 7 17 16 17h258c10 0 18 -7 18 -17c0 -8 -8 -15 -18 -15h-110c-25 -106 -77 -186 -97 -215c61 -79 123 -159 139 -179h90zM324 655c-23 -36 0 -110 32 -153
c8 -11 27 -34 52 -68c27 19 93 70 93 140c0 1 -1 85 -99 105h-4c-7 2 -13 2 -19 2c-28 0 -46 -9 -55 -26zM245 171c52 -84 147 -67 188 -55c-52 68 -123 156 -175 223c-15 -38 -39 -116 -13 -168zM92 174c0 -103 93 -149 184 -149c55 0 99 27 129 52c-12 -1 -25 -4 -39 -4
c-51 0 -110 17 -148 82c-31 58 -11 137 5 184c-60 -29 -131 -75 -131 -165zM626 32h55c-25 33 -79 101 -129 165v1c-2 1 -4 3 -5 6c-92 118 -196 251 -216 278c-34 47 -67 135 -36 190c2 1 3 4 5 5c-86 -19 -117 -83 -117 -129c0 -53 14 -73 26 -93
c11 -17 239 -307 331 -423h86z" />
    <glyph glyph-name="quotesingle" unicode="'" horiz-adv-x="269" 
d="M133 776c60 0 94 -41 94 -80c0 -20 -22 -99 -62 -231c-7 -20 -12 -38 -13 -45c-3 -10 -8 -17 -18 -17v0c-7 0 -13 4 -15 12c-15 61 -77 255 -77 281c0 33 27 80 91 80zM135 479c18 62 59 199 59 217s-17 47 -61 47s-58 -32 -58 -47c0 -14 29 -114 60 -217z" />
    <glyph glyph-name="parenleft" unicode="(" horiz-adv-x="447" 
d="M408 -145c18 -4 15 -18 15 -18c-2 -13 -9 -16 -17 -16h-1c-3 0 -377 27 -377 472c0 446 372 483 376 483s15 -1 18 -11c4 -14 -3 -20 -14 -23c-2 0 -179 -37 -179 -449c0 -410 178 -437 179 -438zM62 293c0 -270 143 -374 245 -413c-55 59 -112 178 -112 413
c0 241 58 362 113 423c-102 -42 -246 -150 -246 -423z" />
    <glyph glyph-name="parenright" unicode=")" horiz-adv-x="447" 
d="M38 -146c2 1 179 28 179 438c0 413 -177 450 -179 450c-11 3 -17 9 -14 23c3 10 14 11 18 11s376 -37 376 -484c0 -444 -374 -471 -377 -471h-1c-8 -1 -15 3 -17 15c0 0 -3 15 15 18zM385 292c0 274 -145 382 -246 424c54 -61 111 -182 111 -424
c0 -234 -56 -354 -110 -412c101 39 245 142 245 412z" />
    <glyph glyph-name="asterisk" unicode="*" horiz-adv-x="511" 
d="M456 545c9 0 17 -7 17 -16c0 -8 -7 -17 -17 -17h-172l84 -151c4 -8 2 -18 -6 -22c-3 -3 -6 -3 -8 -3c-7 0 -12 4 -15 9l-85 149l-86 -147c-3 -6 -9 -8 -16 -8c-3 0 -5 0 -7 2c-9 4 -12 16 -6 23l86 148h-171v0c-10 0 -17 8 -17 17c0 8 7 16 17 16h172l-84 150
c-6 9 -1 20 5 24c8 5 20 2 23 -7l86 -149l86 147c5 9 15 11 23 7c8 -5 11 -16 6 -24l-86 -148h171v0z" />
    <glyph glyph-name="plus" unicode="+" 
d="M622 292c7 0 12 -5 12 -13c0 -6 -5 -11 -12 -11h-258v-259c0 -7 -5 -11 -13 -11c-6 0 -11 4 -11 11v259h-260c-6 0 -11 5 -11 11c0 8 5 13 11 13h260v259c0 7 5 12 11 12c8 0 13 -5 13 -12v-259h258z" />
    <glyph glyph-name="comma" unicode="," horiz-adv-x="328" 
d="M153 185c24 0 139 -9 139 -166c0 -167 -190 -224 -198 -227h-6c-8 0 -16 6 -18 14c-3 10 3 21 13 24c2 0 172 50 172 189c0 6 -1 10 -1 15c-16 -40 -57 -70 -104 -70c-63 0 -113 51 -113 110c0 61 50 111 113 111c1 0 2 0 3 -1v1zM150 1c40 0 74 33 74 73
c0 41 -34 72 -74 72c-43 0 -76 -31 -76 -72c0 -40 33 -73 76 -73z" />
    <glyph glyph-name="hyphen" unicode="-" horiz-adv-x="379" 
d="M336 279c7 0 13 -6 13 -13c0 -6 -6 -11 -13 -11h-294c-6 0 -12 5 -12 11c0 7 6 13 12 13h294z" />
    <glyph glyph-name="period" unicode="." horiz-adv-x="328" 
d="M164 193c62 0 113 -50 113 -110c0 -63 -51 -113 -113 -113s-113 50 -113 113c0 60 51 110 113 110zM164 5c44 0 79 34 79 78c0 42 -35 77 -79 77s-80 -35 -80 -77c0 -44 36 -78 80 -78z" />
    <glyph glyph-name="slash" unicode="/" horiz-adv-x="472" 
d="M399 757c6 -1 8 -8 7 -13l-337 -958c-2 -5 -7 -9 -11 -9c-1 0 -3 1 -4 1c-7 3 -10 10 -8 16l336 956c3 7 11 10 17 7z" />
    <glyph glyph-name="zero" unicode="0" horiz-adv-x="701" 
d="M347 -7c-187 0 -306 111 -306 284c0 170 123 285 306 285v0v0v0c182 0 304 -115 304 -285c0 -173 -119 -284 -304 -284v0v0v0zM347 529c-57 0 -97 -104 -97 -252c0 -104 37 -252 97 -252v0c57 1 94 101 94 252c0 119 -38 252 -94 252v0zM619 277c0 132 -79 221 -205 245
c43 -57 60 -168 60 -245c0 -114 -19 -199 -55 -245c145 30 200 139 200 245zM275 521c-125 -24 -201 -114 -201 -244c0 -107 55 -220 207 -246c-46 61 -62 179 -62 246c0 113 20 198 56 244z" />
    <glyph glyph-name="one" unicode="1" horiz-adv-x="507" 
d="M59 0c-10 0 -17 6 -17 15c0 10 7 18 17 18h102v490h-63c-9 0 -15 7 -15 17c0 9 6 16 15 16h78h103h61c8 0 16 -7 16 -16v-507h94c10 0 17 -8 17 -18c0 -9 -7 -15 -17 -15h-110h-164h-117zM193 523v-490h128v490h-42h-86z" />
    <glyph glyph-name="two" unicode="2" horiz-adv-x="626" 
d="M53 0c-10 0 -17 7 -17 17v110c0 8 6 14 12 17l20 6c39 13 94 31 134 42c110 45 142 138 142 188v13c1 61 1 125 -108 132v0c-44 -4 -76 -18 -98 -32c51 0 93 -42 93 -94c0 -53 -42 -95 -93 -95c-54 0 -96 42 -96 95c0 1 1 2 1 4l-1 1c0 44 43 158 243 158
c109 0 186 -25 231 -72c20 -19 42 -56 42 -108c0 -124 -100 -150 -248 -192c-33 -10 -51 -12 -88 -27h344c9 0 17 -7 17 -16v-130c0 -10 -8 -17 -17 -17h-513zM550 32v99h-432l-40 -13c-3 0 -6 -1 -10 -3v-83h482zM199 399c0 34 -27 61 -61 61s-62 -27 -62 -61
c0 -33 28 -61 62 -61s61 28 61 61zM377 380c0 -50 -22 -109 -69 -156c150 41 215 65 215 156c0 1 1 3 1 3c0 33 -10 61 -32 84c-31 33 -84 54 -158 59c45 -35 43 -94 43 -133v-13z" />
    <glyph glyph-name="three" unicode="3" horiz-adv-x="625" 
d="M228 122c0 -38 -24 -68 -59 -81c18 -6 38 -9 61 -11c90 5 134 49 134 135c0 41 -49 103 -153 107h-10c-9 0 -16 6 -16 16c0 9 8 16 16 16c3 0 4 -1 6 -1c98 3 133 71 133 125c0 73 -29 92 -110 98c-25 -2 -45 -6 -64 -11c36 -12 62 -43 62 -80c0 -49 -43 -88 -97 -88
c-47 0 -96 38 -96 90c0 99 164 125 244 125c121 0 203 -24 245 -67c21 -21 31 -48 30 -77c0 -55 -51 -90 -116 -114c37 -7 75 -20 104 -46c27 -26 40 -60 40 -101c0 -110 -99 -164 -303 -164c-75 0 -257 29 -242 142c7 41 46 73 94 73c54 0 97 -38 97 -86zM195 435
c0 29 -29 54 -64 54c-26 0 -63 -24 -63 -54c0 -32 28 -56 63 -56s64 24 64 56zM375 417c0 -31 -15 -74 -50 -105c108 16 195 53 195 105c0 10 4 30 -20 56c-20 21 -64 46 -158 52c33 -27 33 -69 33 -108zM398 165c0 -70 -25 -111 -60 -136c211 13 212 95 212 128
c0 32 -11 56 -32 75c-61 56 -190 46 -191 46c-2 0 -2 1 -2 1c-4 -1 -6 -2 -8 -2c52 -25 81 -70 81 -112zM131 67c35 0 64 24 64 55c0 29 -29 53 -64 53s-63 -24 -63 -53v-1c4 -13 12 -30 30 -46c9 -6 21 -8 33 -8z" />
    <glyph glyph-name="four" unicode="4" horiz-adv-x="649" 
d="M69 161c-6 0 -11 2 -14 8c-2 7 -1 13 3 18l325 359v0c7 8 13 10 17 10h80c9 0 17 -8 17 -17v-346h71c11 0 18 -7 18 -17c0 -9 -7 -15 -18 -15h-71v-144c0 -9 -8 -17 -17 -17h-137c-9 0 -15 8 -15 17v144h-259zM464 179v344h-57l-48 -52v-438h105v141c-1 1 -1 2 -1 2
c0 1 0 2 1 3zM328 433l-221 -240h221v240z" />
    <glyph glyph-name="five" unicode="5" horiz-adv-x="599" 
d="M80 65c-11 12 -19 27 -21 46c-1 5 -1 8 -1 9c0 47 41 86 90 86c51 0 91 -39 91 -86c0 -37 -23 -69 -57 -81c17 -5 36 -8 60 -10c127 3 133 137 133 163c0 65 -55 106 -103 117c-32 6 -70 5 -95 -19c-10 -11 -18 -20 -24 -34c-4 -7 -12 -12 -21 -9c-4 1 -11 7 -10 17v0
l34 270l1 8c1 8 9 14 17 14h360c10 0 18 -8 18 -16v-117c0 -8 -8 -15 -18 -15h-360l-12 -87c64 50 162 47 169 47c5 0 123 3 193 -63c33 -32 48 -74 48 -124c0 -69 -60 -188 -285 -188c-16 0 -31 0 -45 3v0v0v0c-94 8 -140 38 -162 69zM518 440v82h-330l-10 -82h340z
M409 192c0 -59 -19 -123 -66 -161c153 15 196 98 196 150c0 41 -13 75 -39 99c-59 57 -167 54 -169 54c-1 0 -11 0 -24 -2c52 -20 102 -68 102 -140zM148 172c-31 0 -56 -23 -56 -52v-8c1 -13 20 -45 56 -45c33 0 59 23 59 53c0 29 -26 52 -59 52z" />
    <glyph glyph-name="six" unicode="6" horiz-adv-x="648" 
d="M298 -7c-191 0 -241 153 -241 233c0 97 43 183 115 240c133 107 265 96 270 96c9 0 16 -9 15 -19c0 -9 -9 -15 -17 -15c-1 0 -23 1 -51 -4c-47 -9 -110 -73 -138 -182c65 34 138 39 197 10c60 -31 97 -92 97 -169c0 -48 -46 -190 -246 -190h-1v0zM241 295
c-3 -24 -6 -47 -6 -74c0 -126 45 -175 63 -190c57 40 66 101 66 164c0 41 -16 73 -42 89c-27 18 -59 18 -81 11zM433 321c-37 19 -85 21 -128 7c12 -3 24 -7 35 -15c26 -16 57 -50 57 -118c0 -57 -7 -116 -49 -164c157 23 163 151 163 152c0 65 -28 113 -78 138zM192 440
c-88 -70 -100 -163 -100 -214c0 -6 2 -170 162 -195c-25 31 -51 90 -51 190c0 31 1 60 6 87c13 85 47 150 85 192c-32 -14 -67 -33 -102 -60z" />
    <glyph glyph-name="seven" unicode="7" horiz-adv-x="583" 
d="M94 344c-9 0 -17 8 -17 16v66v84v30c0 8 8 16 17 16h459c5 0 10 -3 14 -8c2 -6 2 -13 -1 -17l-73 -114v0v0l-277 -410c-5 -4 -9 -7 -15 -7c-3 0 -7 0 -10 3c-6 5 -8 15 -3 23l261 384h-338v-50c0 -8 -8 -16 -17 -16zM111 523v-13v-68h360l52 81h-412z" />
    <glyph glyph-name="eight" unicode="8" horiz-adv-x="677" 
d="M90 150c0 38 25 87 91 114c-41 26 -68 63 -68 124c0 101 97 174 229 174h2h3c157 0 236 -49 236 -147c0 -38 -17 -83 -84 -108c76 -42 115 -85 115 -131c0 -83 -50 -183 -280 -183h-1c-226 0 -243 121 -243 157zM274 222c-18 -14 -31 -47 -31 -81c0 -65 48 -114 91 -114
v0c78 0 89 56 89 90c0 52 -38 67 -146 104c-1 0 -2 1 -3 1zM549 415c0 23 -1 90 -128 108c19 -26 30 -64 30 -107c0 -30 -13 -59 -23 -77c8 -4 17 -6 24 -11c65 13 97 42 97 87zM348 528c-23 0 -59 -48 -59 -86c0 -27 6 -55 84 -83c7 -2 16 -5 21 -7c10 13 23 40 23 64
c0 56 -23 112 -69 112zM147 388c0 -75 45 -103 142 -137c103 -33 169 -56 169 -134c0 -30 -9 -60 -27 -82c99 17 148 65 148 141c0 25 -18 67 -134 119c-1 0 -2 0 -3 1c-23 11 -50 22 -81 32c-76 26 -107 59 -107 114c0 27 14 58 30 80c-82 -16 -137 -67 -137 -134zM221 242
c-72 -18 -97 -60 -97 -92c0 -60 45 -101 126 -116c-24 27 -40 67 -40 107c0 31 9 67 29 93c-6 3 -12 5 -18 8z" />
    <glyph glyph-name="nine" unicode="9" horiz-adv-x="648" 
d="M157 215c-58 31 -91 88 -91 158c0 51 48 189 264 189c205 0 258 -153 258 -233c0 -99 -44 -183 -124 -241c-117 -87 -240 -95 -283 -95h-15c-9 1 -15 7 -15 17c0 9 8 16 16 16c1 0 27 -1 69 5c51 13 119 77 149 185c-37 -17 -79 -27 -119 -27c-39 0 -77 9 -109 26z
M329 525c-63 -41 -71 -104 -71 -164c0 -45 25 -70 45 -84c27 -18 63 -24 91 -16c3 22 6 48 5 72c0 131 -50 179 -70 192zM554 329c0 7 -3 171 -176 196c26 -32 55 -90 55 -192c2 -127 -44 -221 -97 -277c36 14 73 32 109 61c95 68 109 161 109 212zM277 525
c-171 -23 -176 -151 -176 -152c0 -74 39 -111 71 -129c45 -22 100 -26 153 -14c-14 4 -27 11 -40 19c-38 26 -59 65 -59 112c0 56 6 116 51 164z" />
    <glyph glyph-name="colon" unicode=":" horiz-adv-x="367" 
d="M179 501c59 0 107 -47 107 -105c0 -60 -48 -108 -107 -108c-61 0 -109 48 -109 108c0 58 48 105 109 105zM179 322c42 0 76 32 76 74c0 40 -34 73 -76 73c-43 0 -76 -33 -76 -73c0 -42 33 -74 76 -74zM179 206c59 0 107 -47 107 -106s-48 -107 -107 -107
c-61 0 -109 48 -109 107s48 106 109 106zM179 25c42 0 76 34 76 75s-34 74 -76 74c-43 0 -76 -33 -76 -74s33 -75 76 -75z" />
    <glyph glyph-name="semicolon" unicode=";" horiz-adv-x="367" 
d="M180 283c-61 0 -112 50 -112 112c0 60 51 109 112 109c62 0 113 -49 113 -109c0 -62 -51 -112 -113 -112zM180 471c-43 0 -77 -34 -77 -76c0 -43 34 -78 77 -78c44 0 79 35 79 78c0 42 -35 76 -79 76zM172 189c20 0 123 -7 123 -148c0 -150 -170 -200 -177 -202
c-2 -1 -3 -1 -6 -1c-6 0 -14 6 -16 13c-2 8 4 18 13 21c0 0 152 45 152 169c0 5 0 9 -1 14c-13 -36 -49 -62 -93 -62c-55 0 -100 44 -100 97c0 55 45 99 100 99h4h1zM167 26c38 0 68 29 68 64s-30 65 -68 65c-36 0 -66 -30 -66 -65s30 -64 66 -64z" />
    <glyph glyph-name="semicolon" unicode="&#x37e;" horiz-adv-x="367" 
d="M180 283c-61 0 -112 50 -112 112c0 60 51 109 112 109c62 0 113 -49 113 -109c0 -62 -51 -112 -113 -112zM180 471c-43 0 -77 -34 -77 -76c0 -43 34 -78 77 -78c44 0 79 35 79 78c0 42 -35 76 -79 76zM172 189c20 0 123 -7 123 -148c0 -150 -170 -200 -177 -202
c-2 -1 -3 -1 -6 -1c-6 0 -14 6 -16 13c-2 8 4 18 13 21c0 0 152 45 152 169c0 5 0 9 -1 14c-13 -36 -49 -62 -93 -62c-55 0 -100 44 -100 97c0 55 45 99 100 99h4h1zM167 26c38 0 68 29 68 64s-30 65 -68 65c-36 0 -66 -30 -66 -65s30 -64 66 -64z" />
    <glyph glyph-name="less" unicode="&#x3c;" 
d="M601 62c5 -3 7 -10 5 -16c-2 -4 -6 -6 -12 -6c0 0 -2 0 -4 2l-487 228c-4 1 -6 6 -6 11c0 4 2 10 6 10l487 232c6 4 14 2 16 -4c2 -7 0 -13 -5 -17l-465 -221z" />
    <glyph glyph-name="equal" unicode="=" 
d="M614 394c8 0 12 -6 12 -13c0 -6 -4 -12 -12 -12h-526c-6 0 -12 6 -12 12c0 7 6 13 12 13h526zM614 193c8 0 12 -6 12 -12c0 -7 -4 -13 -12 -13h-526c-6 0 -12 6 -12 13c0 6 6 12 12 12h526z" />
    <glyph glyph-name="greater" unicode="&#x3e;" 
d="M104 62l465 219l-465 221c-5 4 -7 10 -5 17c2 6 10 8 16 4l488 -232c3 0 5 -6 5 -10c0 -5 -2 -10 -5 -11l-488 -228c-2 -2 -4 -2 -4 -2c-6 0 -10 2 -12 6c-2 6 0 13 5 16z" />
    <glyph glyph-name="question" unicode="?" horiz-adv-x="548" 
d="M249 717c208 0 251 -119 251 -220c0 -135 -131 -226 -253 -226h-9v-47c0 -10 -7 -17 -15 -17c-10 0 -18 7 -18 17v63v17v104c0 8 7 15 15 16c5 1 112 16 112 125c0 44 -16 78 -46 102c-33 27 -73 32 -86 29c-1 0 -2 -1 -2 -1c-11 -1 -22 -4 -33 -7c36 -14 64 -51 64 -93
c0 -55 -46 -100 -101 -100c-49 0 -91 38 -98 88c0 2 -1 5 -1 7c0 1 1 2 1 2c0 1 -1 2 -1 3c0 22 8 42 19 59c3 4 6 7 9 11c0 0 0 1 1 1c59 64 184 67 191 67zM196 579c0 38 -29 68 -68 68c-17 0 -33 -7 -45 -19c-12 -13 -20 -30 -22 -51c2 -35 32 -65 67 -65
c39 0 68 30 68 67zM247 304c104 0 220 79 220 193c0 109 -56 171 -168 185c3 -2 5 -4 7 -5c27 -22 58 -60 58 -128c0 -100 -75 -143 -126 -154v-91v0h9zM225 198c59 0 108 -48 108 -103c0 -56 -49 -102 -108 -102c-60 0 -110 46 -110 102c0 55 50 103 110 103zM225 25
c41 0 76 32 76 70s-35 69 -76 69c-43 0 -77 -31 -77 -69s34 -70 77 -70z" />
    <glyph glyph-name="at" unicode="@" horiz-adv-x="967" 
d="M533 706c279 -1 377 -177 377 -343c0 -155 -88 -279 -210 -306c-3 0 -6 -2 -10 -2c-12 -2 -25 -3 -39 -3c-62 0 -111 19 -138 54c-29 -33 -78 -52 -114 -52c-68 0 -148 41 -148 157c0 178 161 296 266 296c19 0 54 0 79 -27c2 5 2 9 2 9c3 7 9 12 17 12h127
c6 0 11 -3 15 -8c2 -4 3 -11 2 -15c0 0 -105 -286 -116 -318c-7 -16 -5 -36 4 -51c9 -12 23 -19 41 -19c108 21 188 133 188 273c0 194 -129 309 -344 309c-43 0 -84 -6 -124 -18c-51 -15 -95 -42 -128 -79c-113 -123 -96 -321 -96 -324c-2 -230 141 -370 278 -372h2
c104 -1 208 39 293 116c7 6 18 6 24 0c6 -8 5 -19 -1 -25c-91 -82 -201 -125 -314 -125c-58 0 -118 12 -175 36c-149 66 -237 201 -237 362c0 210 146 388 343 444c40 13 85 20 135 20c0 0 0 -1 1 -1zM150 250c0 7 -13 160 60 287c-75 -77 -120 -180 -120 -294
c0 -132 65 -245 177 -311c-70 69 -118 179 -117 318zM495 198c12 34 60 169 86 242c-1 2 -5 7 -9 9c-9 4 -21 4 -36 -2c-45 -17 -103 -72 -119 -233c-4 -40 2 -67 16 -76c17 -10 44 0 60 8c-4 17 -2 36 2 52zM287 211c0 -114 86 -123 112 -123c14 0 31 5 47 11
c-10 1 -20 5 -31 10c-27 17 -38 54 -32 109c16 159 74 226 124 253c-84 -8 -220 -105 -220 -260zM538 131c16 -23 45 -38 83 -43c0 1 -1 2 -2 2c-16 23 -18 55 -9 82c11 27 84 225 108 294h-91c-18 -49 -85 -237 -99 -279c-7 -19 -3 -40 10 -56z" />
    <glyph glyph-name="A" unicode="A" horiz-adv-x="846" 
d="M846 16c0 -8 -8 -16 -16 -16h-65h-1h-179h-124c-8 0 -17 8 -17 16c0 9 9 17 17 17h100l-87 215h-1h-223l-85 -215h147c8 0 16 -8 16 -17c0 -8 -8 -16 -16 -16h-172h-105c-9 0 -16 8 -16 16c0 9 7 17 16 17h93l95 236c1 1 1 2 1 2l122 303c1 1 1 2 1 2l45 123
c3 7 8 10 16 10h82c8 0 14 -3 15 -10l270 -666h55c8 0 16 -8 16 -17zM361 525l-97 -244h196zM380 569l217 -536h142l-260 643h-60z" />
    <glyph glyph-name="B" unicode="B" horiz-adv-x="801" 
d="M226 709h114c187 0 379 1 379 -167c0 -80 -48 -135 -145 -164c106 -19 180 -59 180 -170c0 -207 -210 -208 -413 -208h-1h-113h-55h-100c-8 0 -16 8 -16 17s8 16 16 16h83v643h-83c-9 0 -16 8 -16 17c0 8 7 16 16 16h100h54zM462 638c-34 31 -77 35 -104 38h-1v-287h23
c37 8 119 42 119 153c0 41 -12 73 -37 96zM357 354v-319c46 8 175 38 175 173c0 43 -13 77 -39 102c-29 27 -69 39 -101 44h-35zM323 33v643h-97h-38v-643h39h96zM722 208c0 108 -87 135 -231 146c9 -7 17 -13 24 -20c33 -31 50 -73 50 -126c0 -92 -50 -145 -104 -172
c163 8 261 39 261 172zM686 542c0 98 -79 126 -215 131c5 -3 9 -7 14 -11c31 -29 47 -69 47 -120c0 -78 -34 -126 -72 -152c151 15 226 66 226 152z" />
    <glyph glyph-name="C" unicode="C" horiz-adv-x="787" 
d="M10 354c0 176 131 362 372 362c111 0 181 -65 231 -144v121c0 9 7 16 16 16s16 -7 16 -16v-251c0 -8 -7 -15 -16 -15s-16 7 -16 15v69c-46 79 -100 152 -196 171c-125 -12 -191 -124 -191 -328c0 -173 65 -243 118 -272c65 -35 142 -20 189 11c41 36 67 85 88 119
c3 9 13 12 21 7c7 -4 11 -13 7 -21c-67 -133 -165 -205 -281 -205c-173 0 -358 115 -358 361zM311 678c-176 -32 -269 -181 -269 -324c0 -225 164 -329 326 -329c17 0 32 2 47 5c-29 1 -58 8 -86 23c-61 35 -135 112 -135 301s52 278 117 324z" />
    <glyph glyph-name="D" unicode="D" horiz-adv-x="889" 
d="M84 709h417c192 0 346 -161 346 -355c0 -196 -157 -354 -349 -354h-69h-77h-10h-79h-26h-54h-99c-8 0 -17 7 -17 16s9 17 17 17h83v643h-83c-8 0 -17 8 -17 16c0 9 9 17 17 17zM199 33h136v643h-136v-643zM368 33h60c92 16 196 63 196 321c0 175 -140 322 -255 322h-1
v-643zM501 676h-24c95 -56 180 -180 180 -322c0 -164 -41 -268 -126 -319c159 16 283 153 283 319c0 176 -140 319 -313 322z" />
    <glyph glyph-name="E" unicode="E" horiz-adv-x="786" 
d="M81 33h82v643h-82c-9 0 -17 9 -17 17c0 9 8 16 17 16h598c11 0 18 -7 18 -16v-173c0 -9 -7 -17 -18 -17c-9 0 -15 8 -15 17v156h-299v-293h195v121c0 11 10 17 19 17c8 0 16 -6 16 -17v-281c0 -8 -8 -16 -16 -16c-9 0 -19 8 -19 16v127h-195v-317h345v194c0 8 8 17 19 17
c8 0 15 -9 15 -17v-210c0 -11 -7 -17 -15 -17h-648c-9 0 -17 6 -17 17c0 8 8 16 17 16zM195 676v-643h138v334v1v1v307h-138z" />
    <glyph glyph-name="F" unicode="F" horiz-adv-x="740" 
d="M576 517c9 0 18 -8 18 -17v-281c0 -11 -9 -17 -18 -17s-15 6 -15 17v126h-196v-312h82c9 0 16 -8 16 -17s-7 -16 -16 -16h-98h-166h-101c-9 0 -16 7 -16 16s7 17 16 17h83v643h-83c-9 0 -17 8 -17 16c0 9 8 17 17 17h101h166h333c8 0 15 -8 15 -17v-172
c0 -11 -7 -17 -15 -17c-11 0 -17 6 -17 17v156h-300v-298h196v122c0 9 6 17 15 17zM198 33h135v643h-135v-643z" />
    <glyph glyph-name="G" unicode="G" horiz-adv-x="844" 
d="M438 -7c-168 0 -363 94 -363 361c0 174 118 362 377 362c109 0 174 -65 228 -143v108c0 8 6 16 15 16s15 -8 15 -16v-239c0 -9 -6 -16 -15 -16s-15 7 -15 16v68c-42 76 -97 147 -178 168c-140 -25 -210 -133 -210 -324c0 -171 63 -248 117 -283c51 -32 104 -35 147 -30
v272h-77c-8 0 -16 7 -16 16c0 8 8 16 16 16h94h157h83c9 0 18 -8 18 -16c0 -9 -9 -16 -18 -16h-67v-204h-1c0 -7 -2 -11 -6 -14c-101 -72 -170 -102 -301 -102zM587 313v-265c8 3 13 3 17 7c1 0 1 0 2 1c35 13 68 33 107 62v195h-126zM413 682c-210 -20 -306 -178 -306 -328
c0 -239 171 -325 322 -329c-12 4 -25 12 -37 19c-60 41 -133 125 -133 310c0 168 51 277 154 328z" />
    <glyph glyph-name="H" unicode="H" horiz-adv-x="976" 
d="M628 676h-78c-9 0 -16 8 -16 16c0 9 7 17 16 17h96h168h100c9 0 16 -8 16 -17c0 -8 -7 -16 -16 -16h-83v-643h83c9 0 16 -8 16 -17s-7 -16 -16 -16h-100h-168h-96c-9 0 -16 7 -16 16s7 17 16 17h78v320h-255v-320h81c8 0 15 -8 15 -17s-7 -16 -15 -16h-98h-169h-99
c-8 0 -16 7 -16 16s8 17 16 17h83v643h-83c-8 0 -16 8 -16 16c0 9 8 17 16 17h99h169h98c8 0 15 -8 15 -17c0 -8 -7 -16 -15 -16h-81v-289h255v289zM205 33h135v643h-135v-643zM799 676h-136v-643h136v643z" />
    <glyph glyph-name="I" unicode="I" horiz-adv-x="499" 
d="M70 709h96h167h99c9 0 17 -8 17 -17s-8 -16 -17 -16h-82v-643h82c9 0 17 -6 17 -17c0 -8 -8 -16 -17 -16h-99h-167h-96c-11 0 -17 8 -17 16c0 11 6 17 17 17h78v643h-78c-11 0 -17 7 -17 16s6 17 17 17zM315 676h-134v-643h134v643z" />
    <glyph glyph-name="J" unicode="J" horiz-adv-x="678" 
d="M261 -5c-25 0 -98 4 -149 52c-34 33 -51 77 -51 132c0 59 46 107 106 107c57 0 106 -48 106 -107s-49 -107 -106 -107c-14 0 -28 3 -43 10c4 -4 6 -8 10 -12c34 -31 82 -39 110 -42c20 3 37 7 52 20c46 46 44 160 44 161v468h-81c-11 0 -16 8 -16 16c0 9 5 16 16 16h98
h165h91c9 0 17 -7 17 -16c0 -8 -8 -16 -17 -16h-74v-451c0 -5 2 -90 -64 -159c-48 -49 -122 -75 -214 -72zM373 677v-467c0 -5 1 -121 -48 -178c53 7 96 26 127 58c57 58 54 135 55 136v451h-134zM167 253c-42 0 -73 -33 -73 -74c0 -40 31 -74 73 -74c40 0 74 34 74 74
c0 41 -34 74 -74 74z" />
    <glyph glyph-name="K" unicode="K" horiz-adv-x="889" 
d="M79 33h80v643h-80c-8 0 -17 9 -17 17c0 9 9 16 17 16h364c9 0 16 -7 16 -16c0 -8 -7 -17 -16 -17h-83v-320l329 320h-158c-9 0 -17 9 -17 17c0 9 8 16 17 16h293c11 0 16 -7 16 -16c0 -8 -5 -17 -16 -17h-87l-237 -230l331 -413h38c8 0 16 -7 16 -16s-8 -17 -16 -17h-247
c-4 0 -12 2 -16 7l-246 306v-280h83c9 0 16 -7 16 -16s-7 -17 -16 -17h-364c-8 0 -17 8 -17 17s9 16 17 16zM476 423l-91 -89l242 -301h161zM192 676v-643h135v643h-135z" />
    <glyph glyph-name="L" unicode="L" horiz-adv-x="686" 
d="M51 33h79v643h-79c-9 0 -17 8 -17 17c0 8 8 16 17 16h96h169h103c9 0 16 -8 16 -16c0 -9 -7 -17 -16 -17h-86v-643h323v200c0 8 8 17 17 17c8 0 17 -9 17 -17v-217c0 -9 -9 -16 -17 -16h-357h-169h-96c-9 0 -17 7 -17 16s8 17 17 17zM162 676v-643h137v643h-137z" />
    <glyph glyph-name="M" unicode="M" horiz-adv-x="1088" 
d="M73 33h126v643h-123c-12 0 -17 9 -17 18s5 15 17 15h139h2h172c7 0 11 -3 14 -10l164 -436l171 434c3 8 8 12 15 12h59h111h95c8 0 16 -6 16 -15s-8 -18 -16 -18h-79v-643h79c8 0 16 -7 16 -18c0 -8 -8 -15 -16 -15h-95h-170h-103c-8 0 -16 7 -16 15c0 11 8 18 16 18h86
v572l-226 -584c-5 -12 -16 -11 -17 -11h-31c-5 0 -12 4 -15 11l-215 580v-568h130c9 0 17 -7 17 -18c0 -8 -8 -15 -17 -15h-289c-11 0 -17 7 -17 15c0 11 6 18 17 18zM770 676v-643h137v643h-95h-42zM377 676h-138l236 -634h7l68 174z" />
    <glyph glyph-name="N" unicode="N" horiz-adv-x="929" 
d="M202 33v531v112h-128c-9 0 -15 9 -15 18s6 15 15 15h249c6 0 10 -2 13 -6l369 -453v426h-129c-9 0 -17 9 -17 18s8 15 17 15h290c8 0 16 -6 16 -15s-8 -18 -16 -18h-128v-471v-188v-1c0 -8 -7 -16 -16 -16h-60c-5 0 -10 1 -14 6l-414 511v-484h128c9 0 15 -6 15 -17
c0 -8 -6 -16 -15 -16h-290c-11 0 -17 8 -17 16c0 11 6 17 17 17h130zM704 200l-390 476h-80v-106l435 -537h35v167z" />
    <glyph glyph-name="O" unicode="O" horiz-adv-x="825" 
d="M413 -7c-227 0 -372 141 -372 361c0 218 149 362 372 362c221 0 371 -144 371 -362c0 -220 -147 -361 -371 -361zM259 354c0 -133 55 -329 154 -329c112 0 153 178 153 329c0 159 -60 328 -153 328c-106 0 -154 -165 -154 -328zM751 354c0 167 -94 290 -250 322
c67 -69 96 -211 96 -322c0 -152 -31 -261 -87 -320c177 40 241 183 241 320zM316 673c-150 -35 -243 -152 -243 -319c0 -141 68 -286 254 -322c-69 69 -99 215 -99 322c0 151 31 262 88 319z" />
    <glyph glyph-name="P" unicode="P" horiz-adv-x="787" 
d="M89 33h78v643h-78c-8 0 -17 7 -17 16s9 17 17 17h95h87h82c205 0 381 2 381 -196c0 -144 -122 -218 -365 -222v-258h84c8 0 16 -8 16 -17s-8 -16 -16 -16h-364c-8 0 -17 7 -17 16s9 17 17 17zM517 513c0 103 -49 157 -148 163v-350c74 8 148 80 148 187zM701 513
c0 122 -77 153 -219 161c45 -33 68 -86 68 -161c0 -82 -36 -146 -88 -184c161 19 239 80 239 184zM201 676v-643h134v643h-64h-70z" />
    <glyph glyph-name="Q" unicode="Q" horiz-adv-x="911" 
d="M515 -140l-112 138c-191 24 -311 161 -311 358c0 205 164 360 381 360c214 0 380 -155 380 -360c0 -166 -84 -287 -223 -335l107 -133h22c11 0 16 -9 16 -17c0 -9 -5 -16 -16 -16h-28v-1h-2v1h-200c-1 0 -1 -1 -2 -1c-5 0 -11 1 -12 6zM316 356c0 -136 54 -329 157 -329
c114 0 156 177 156 329c0 157 -64 328 -156 328c-110 0 -157 -166 -157 -328zM695 -112l-99 120c-39 -10 -80 -15 -123 -15c-9 0 -16 1 -24 1l86 -106h160zM819 356c0 157 -102 283 -255 317c69 -69 98 -212 98 -317c0 -152 -33 -261 -90 -320c181 40 247 183 247 320z
M371 670c-146 -37 -246 -162 -246 -314c0 -140 71 -288 258 -323c-69 71 -100 214 -100 323c0 144 33 255 88 314z" />
    <glyph glyph-name="R" unicode="R" horiz-adv-x="901" 
d="M94 33h79v643h-79c-9 0 -16 9 -16 17c0 9 7 16 16 16h96h168h36h1c191 0 350 -7 350 -182c0 -88 -53 -153 -153 -184l239 -310h54c8 0 17 -6 17 -17c0 -9 -9 -16 -17 -16h-264c-5 0 -8 -1 -15 6l-231 302v-275h83c9 0 17 -6 17 -17c0 -9 -8 -16 -17 -16h-364
c-9 0 -16 7 -16 16c0 11 7 17 16 17zM375 676v-320c55 4 150 31 150 166c0 73 -55 149 -150 154zM627 33h162l-232 300c-41 -8 -77 -10 -117 -10h-35zM712 527c0 117 -81 141 -233 149c50 -37 79 -98 79 -154c0 -83 -31 -135 -78 -166c27 1 55 6 84 13c68 16 148 60 148 158
zM207 676v-643h135v643h-135z" />
    <glyph glyph-name="S" unicode="S" horiz-adv-x="738" 
d="M102 0c-8 0 -17 8 -17 17v246c0 8 8 14 15 15c8 0 15 -5 18 -13c0 -9 51 -240 259 -240c73 3 108 39 108 136c0 57 -48 78 -160 113l-38 13c-85 29 -184 80 -184 219c0 124 110 210 267 210h4c15 0 30 -1 46 -4c59 -8 105 -31 140 -67c13 -16 26 -33 34 -46v94
c0 8 8 16 16 16c9 0 16 -8 16 -16v-219c1 -9 0 -16 0 -16c-1 -8 -8 -15 -16 -15s-16 7 -16 15v14c0 27 -9 99 -56 151c-31 31 -69 49 -120 58c-88 -3 -133 -78 -133 -123c0 -41 10 -60 119 -100c19 -7 37 -12 54 -19c108 -37 211 -72 211 -224c0 -177 -190 -222 -291 -222
c-146 0 -223 98 -260 175v-151c0 -9 -7 -17 -16 -17zM297 318l37 -12c109 -37 183 -60 183 -145c0 -57 -12 -97 -31 -122c75 24 150 75 150 176c0 132 -83 155 -188 193c-19 8 -36 12 -55 20c-103 40 -140 65 -140 130c0 40 25 91 69 124c-115 -13 -186 -82 -186 -176
c0 -95 47 -148 161 -188z" />
    <glyph glyph-name="T" unicode="T" horiz-adv-x="738" 
d="M45 483c-8 0 -16 8 -16 17v193c0 8 8 16 16 16h243h169h242c9 0 17 -8 17 -16v-193c0 -9 -8 -17 -17 -17c-11 0 -16 8 -16 17v176h-209v-643h86c11 0 19 -8 19 -17c0 -8 -8 -16 -19 -16h-103h-169h-105c-9 0 -16 8 -16 16c0 9 7 17 16 17h88v643h-209v-176
c0 -9 -5 -17 -17 -17zM441 676h-136v-643h136v643z" />
    <glyph glyph-name="U" unicode="U" horiz-adv-x="925" 
d="M176 677h-73c-9 0 -18 8 -18 16c0 9 9 16 18 16h348c9 0 17 -7 17 -16c0 -8 -8 -16 -17 -16h-75v-433c0 -67 17 -118 46 -151c29 -29 121 -63 165 -49c29 9 55 23 74 42c53 56 54 137 54 197v394h-129c-9 0 -16 8 -16 16c0 9 7 16 16 16h288c9 0 17 -7 17 -16
c0 -8 -8 -16 -17 -16h-127v-394c3 -62 0 -156 -63 -219c-20 -19 -44 -35 -73 -46c-4 -1 -8 -4 -13 -5c-39 -15 -85 -20 -138 -20c-99 0 -172 23 -219 70c-65 65 -65 157 -65 220v394zM399 70c-37 41 -56 99 -56 174v433h-134v-394c0 -61 1 -142 54 -198
c40 -39 106 -59 197 -59h17c-35 12 -62 29 -78 44z" />
    <glyph glyph-name="V" unicode="V" horiz-adv-x="851" 
d="M94 676h-58c-9 0 -16 8 -16 16c0 9 7 17 16 17h69h178h120c9 0 16 -8 16 -17c0 -8 -7 -16 -16 -16h-95l210 -511l183 511h-145c-11 0 -16 8 -16 16c0 9 5 17 16 17h275c8 0 17 -8 17 -17c0 -8 -9 -16 -17 -16h-95l-201 -562v-1l-35 -102c-4 -5 -9 -11 -17 -11h-101
c-8 0 -13 5 -16 10zM272 676h-143l263 -643h79l30 85z" />
    <glyph glyph-name="W" unicode="W" horiz-adv-x="1203" 
d="M107 676h-60c-8 0 -16 8 -16 17s8 16 16 16h72h180h110c9 0 17 -7 17 -16s-8 -17 -17 -17h-87l161 -502l168 523c0 1 0 1 1 2l3 6c2 2 5 3 8 4h4h50c7 0 12 -4 15 -12l186 -523l144 502h-149c-9 0 -17 8 -17 17s8 16 17 16h272c9 0 16 -7 16 -16s-7 -17 -16 -17h-89
l-159 -561c-1 0 -2 -1 -2 -2l-33 -103c-1 -4 -7 -10 -15 -10h-102c-7 0 -12 3 -15 10l-160 450l-111 -345v-2l-33 -103c-1 -4 -7 -10 -16 -10h-101c-8 0 -13 3 -16 10zM902 119l-197 557h-26l-52 -164l171 -479h77zM289 676h-147l219 -643h78l27 86z" />
    <glyph glyph-name="X" unicode="X" horiz-adv-x="891" 
d="M141 33l234 270l-256 373h-57c-8 0 -16 9 -16 17c0 9 8 16 16 16h414c8 0 17 -7 17 -16c0 -8 -9 -17 -17 -17h-121l150 -221l191 221h-141c-9 0 -17 9 -17 17c0 9 8 16 17 16h262c11 0 17 -7 17 -16c0 -8 -6 -17 -17 -17h-77l-216 -250l264 -393h60c8 0 16 -9 16 -17
c0 -9 -8 -16 -16 -16h-413c-9 0 -17 7 -17 16c0 8 8 17 17 17h124l-165 241l-209 -241h139c9 0 16 -9 16 -17c0 -9 -7 -16 -16 -16h-263c-9 0 -17 7 -17 16c0 8 8 17 17 17h80zM315 676h-154l439 -643h148z" />
    <glyph glyph-name="Y" unicode="Y" horiz-adv-x="861" 
d="M104 676h-50c-9 0 -17 7 -17 16s8 17 16 17h387c11 0 18 -8 18 -17c0 -8 -7 -16 -18 -16h-103l189 -337l190 337h-138c-9 0 -16 8 -16 16c0 9 7 17 16 17h252c8 0 16 -8 16 -17c0 -8 -8 -16 -16 -16h-76l-212 -374v-269h87c9 0 16 -6 16 -17c0 -9 -7 -16 -16 -16h-103
h-169h-105c-8 0 -15 7 -15 16c0 11 7 17 15 17h89v245zM509 303l-210 373h-156l229 -385c1 -3 2 -5 2 -8v-250h135v270z" />
    <glyph glyph-name="Z" unicode="Z" horiz-adv-x="766" 
d="M243 0h-197c-7 0 -11 3 -15 8c-3 5 -3 12 1 17l471 651h-362v-189c0 -9 -8 -16 -17 -16s-17 7 -17 16v206c0 8 8 16 17 16h411h2h195c5 0 11 -4 15 -9c3 -5 2 -12 -1 -17l-471 -650h410v212c0 8 8 16 17 16s16 -8 16 -16v-229c0 -9 -7 -16 -16 -16h-459zM544 676
l-466 -643h156l465 643h-155z" />
    <glyph glyph-name="bracketleft" unicode="[" horiz-adv-x="447" 
d="M404 743h-135v-944h135c9 0 15 -5 15 -16s-5 -17 -15 -17h-151h-36h-172c-11 0 -16 6 -16 17v978c0 10 5 15 16 15h172h36h151c10 0 15 -5 15 -15c0 -12 -5 -18 -15 -18zM237 -201v944h-20h-157v-944h157h20z" />
    <glyph glyph-name="backslash" unicode="\" horiz-adv-x="472" 
d="M74 740c12 3 18 -4 22 -12l331 -939c3 -9 -2 -18 -10 -22c-3 -1 -4 -1 -5 -1c-7 0 -13 4 -16 11l-331 942c-3 7 -2 17 9 21z" />
    <glyph glyph-name="bracketright" unicode="]" horiz-adv-x="447" 
d="M179 743h-135c-10 0 -15 6 -15 18c0 10 5 15 15 15h151h36h172c11 0 16 -5 16 -15v-978c0 -11 -5 -17 -16 -17h-172h-36h-151c-10 0 -15 6 -15 17s6 16 15 16h135v944zM211 743v-944h20h157v944h-157h-20z" />
    <glyph glyph-name="asciicircum" unicode="^" 
d="M367 709l192 -324c5 -8 3 -18 -6 -22c-3 -3 -6 -4 -9 -4c-4 0 -10 4 -13 9l-179 300l-178 -300c-3 -9 -14 -10 -21 -5c-9 4 -11 14 -6 22l191 324c3 5 8 7 14 7s11 -2 15 -7z" />
    <glyph glyph-name="underscore" unicode="_" horiz-adv-x="754" 
d="M27 -98h699c9 0 17 -7 17 -18c0 -7 -8 -14 -17 -14h-699c-9 0 -17 7 -17 14c0 11 8 18 17 18z" />
    <glyph glyph-name="grave" unicode="`" horiz-adv-x="500" 
d="M318 601c9 -17 16 -29 19 -32c1 -3 2 -6 2 -9c0 -8 -6 -15 -14 -15c-4 0 -6 0 -8 2c-42 23 -178 95 -192 110c-10 10 -17 25 -17 42c0 13 4 33 24 52c19 21 40 25 54 25c16 0 32 -6 43 -17c9 -10 40 -66 89 -158zM146 678c8 -8 73 -44 141 -80c-24 44 -70 131 -80 140
c-5 6 -14 8 -21 8c-11 0 -23 -5 -34 -16c-8 -9 -14 -20 -14 -31c0 -10 5 -18 8 -21z" />
    <glyph glyph-name="a" unicode="a" horiz-adv-x="596" 
d="M297 322v32c0 -16 0 13 -3 34c-2 25 -10 50 -27 69c-13 11 -27 16 -44 16c-23 -1 -44 -5 -61 -10c25 -12 46 -39 46 -71c0 -47 -41 -84 -87 -84c-49 0 -87 37 -87 84c0 20 8 36 24 55c29 29 68 49 153 59c32 2 32 2 46 2c92 0 157 -21 197 -66c38 -42 33 -93 33 -94v-315
h65c9 0 17 -7 17 -16c0 -8 -8 -17 -17 -17h-81h-157c-9 0 -17 9 -17 17v10c-27 0 -78 -38 -159 -34c-37 0 -71 15 -96 40s-40 63 -40 87c0 91 72 128 126 150zM121 342c28 0 51 22 51 49c0 26 -23 48 -51 48s-51 -22 -51 -48c0 -27 23 -49 51 -49zM297 84v197
c-20 -11 -45 -27 -61 -43c-29 -32 -36 -50 -36 -94c0 -36 13 -51 40 -63c27 -11 46 -3 57 3zM35 120c0 -15 11 -44 30 -63c20 -19 45 -30 73 -30c47 0 82 9 106 18c-5 3 -10 3 -17 7c-40 15 -61 55 -61 92c0 52 9 75 44 115c1 1 3 1 4 4l-75 -24c-73 -29 -104 -64 -104 -119
zM295 476c40 -48 37 -112 37 -116v-327h57h65v334c0 1 3 26 -26 58c-26 27 -70 44 -133 51z" />
    <glyph glyph-name="b" unicode="b" horiz-adv-x="646" 
d="M74 743h-70c-10 0 -18 7 -18 17c0 9 8 16 18 16h87h98h61c8 0 16 -7 16 -16v-303c46 36 108 51 142 51c130 0 225 -103 225 -259c0 -178 -140 -256 -278 -256c-36 0 -66 11 -89 31v-11c0 -10 -8 -13 -16 -13h-159c-10 0 -17 8 -17 18v725zM367 40c27 14 58 53 58 186
c0 164 -29 187 -70 201c-47 20 -80 -6 -89 -16v-332c5 -13 13 -22 22 -29h1s44 -29 78 -10zM600 248c0 139 -80 226 -192 226c-12 0 -32 -4 -55 -10c4 -1 9 -3 14 -5c66 -24 91 -84 91 -243c0 -95 -16 -146 -48 -184c99 21 190 78 190 216zM187 743h-82v-710h124v710h-42z
" />
    <glyph glyph-name="c" unicode="c" horiz-adv-x="531" 
d="M343 372c0 43 37 78 79 79c-21 14 -54 20 -91 23c-48 -3 -99 -70 -99 -223c0 -79 31 -140 84 -164c45 -21 99 -10 144 28c10 13 20 27 28 40c4 9 13 12 22 8c8 -4 9 -14 6 -21c-45 -89 -136 -149 -228 -149c-140 0 -253 117 -253 258c0 143 113 257 253 257
c77 0 181 -10 215 -103c5 -11 7 -22 7 -33c0 -43 -38 -80 -83 -80s-84 37 -84 80zM303 59c-65 28 -103 100 -103 192c0 114 27 185 65 223c-112 -11 -199 -106 -199 -223c0 -123 100 -225 222 -225c28 0 55 7 80 18h-5c-21 0 -41 5 -60 15zM427 419c-28 0 -52 -20 -52 -47
c0 -25 24 -49 52 -49s51 24 51 49c0 3 0 7 -1 9h-1c0 3 -1 8 -2 10c-8 17 -26 28 -47 28z" />
    <glyph glyph-name="d" unicode="d" horiz-adv-x="663" 
d="M257 -7c-75 0 -135 25 -176 72c-41 48 -63 120 -63 185c0 63 23 134 63 181c40 48 97 77 162 77c32 0 96 -17 141 -51v286h-90c-11 0 -16 7 -16 16s5 17 16 17h107h112h46c9 0 18 -8 18 -17v-726h69c9 0 17 -7 17 -16s-8 -17 -17 -17h-87h-100h-58c-9 0 -17 8 -17 17v33
c-26 -29 -71 -57 -127 -57zM384 111v299c-8 8 -39 38 -89 17c-42 -14 -70 -68 -70 -194c0 -71 16 -115 47 -134c39 -22 93 4 112 12zM513 743h-96v-710h42h83v710h-29zM243 475c-57 0 -105 -24 -140 -67c-33 -41 -53 -103 -53 -158s19 -119 54 -160c36 -40 88 -62 153 -62
c45 0 74 17 95 35c-15 -3 -28 -6 -44 -6c-17 0 -35 4 -52 13c-42 24 -63 78 -63 163c0 121 24 202 88 226c7 3 12 4 16 5c-23 7 -42 11 -54 11z" />
    <glyph glyph-name="e" unicode="e" horiz-adv-x="572" 
d="M407 23c-37 -20 -78 -30 -123 -30c-147 0 -267 117 -267 257c0 146 117 258 262 258c78 0 190 -14 233 -132c19 -65 13 -111 13 -111c-3 -8 -8 -15 -16 -15h-162h-133c0 -95 35 -170 88 -199c27 -14 56 -15 87 -2c13 7 19 10 20 10c36 21 65 52 86 88c4 8 13 11 21 8
c7 -6 9 -14 6 -23c-20 -36 -48 -67 -83 -90c-5 -4 -15 -10 -32 -19zM279 475c-15 -5 -59 -38 -64 -193h116c-4 151 -42 188 -52 193zM481 367c-24 65 -73 98 -158 106c19 -30 38 -85 41 -191h130c1 17 -2 46 -13 85zM49 250c0 -123 104 -226 235 -226
c-64 37 -101 122 -101 226c0 123 22 185 44 221c-104 -24 -178 -110 -178 -221z" />
    <glyph glyph-name="f" unicode="f" horiz-adv-x="393" 
d="M340 662c0 36 20 63 48 79c-4 1 -7 2 -12 2c-15 0 -29 -6 -40 -18c-26 -30 -40 -79 -46 -126c-6 -43 -5 -92 -5 -95v-3h114c11 0 17 -8 17 -17s-6 -16 -17 -16h-114v-435h77c11 0 16 -7 16 -16c0 -11 -5 -17 -16 -17h-93h-159h-70c-11 0 -18 6 -18 17c0 9 7 16 18 16h54
v435h-80c-9 0 -16 7 -16 16s7 17 16 17h80c0 42 11 132 77 198c49 51 118 77 205 77c75 0 114 -38 124 -59c11 -16 20 -34 20 -55c0 -50 -42 -90 -89 -90c-52 0 -91 40 -91 90zM251 486v18c0 6 0 52 5 95c8 45 18 100 46 136c-44 -11 -80 -30 -107 -59
c-34 -36 -52 -80 -60 -116c-8 -38 -7 -74 -7 -72v-455h123v450v1v2zM431 719c-34 0 -58 -25 -58 -57c0 -30 24 -57 58 -57c29 0 55 27 55 57c0 9 -2 17 -6 25l-4 5c0 2 -1 4 -3 6c-11 14 -25 21 -42 21z" />
    <glyph glyph-name="g" unicode="g" horiz-adv-x="577" 
d="M573 482c0 -8 -8 -15 -17 -15h-125c72 -48 86 -88 86 -135c0 -81 -65 -173 -246 -173c-24 0 -43 2 -62 3c-3 -3 -9 -13 -9 -22c0 -16 21 -17 30 -17h177c112 0 180 -62 180 -168c0 -108 -127 -193 -296 -193c-197 0 -294 45 -294 144c0 39 32 76 93 92c-5 3 -7 5 -11 9
c-32 37 -29 77 -29 80c0 29 9 52 30 73c13 12 29 20 45 27c-71 32 -101 93 -101 145c0 85 76 176 247 176c43 0 70 -4 95 -7h190c9 0 17 -8 17 -19zM326 332c0 66 -24 146 -55 146c-35 0 -56 -65 -56 -146c0 -63 24 -140 56 -140c33 0 55 56 55 140zM58 332
c0 -75 57 -123 156 -136c-23 37 -34 91 -34 136c0 57 11 111 30 142c-96 -26 -152 -70 -152 -142zM31 -94c0 -28 0 -86 167 -106c-29 28 -47 66 -47 111c0 21 10 38 21 55c-9 1 -20 2 -27 5c-81 0 -114 -39 -114 -65zM351 -36h-137c-9 -9 -29 -29 -29 -53
c0 -64 46 -115 106 -115c67 0 118 51 118 115c0 39 -17 53 -58 53zM407 87h-177c-39 0 -65 22 -65 53c0 8 1 15 4 22c-21 -3 -50 -12 -67 -28c-11 -12 -18 -27 -18 -48c0 -2 -2 -28 20 -53c19 -20 54 -35 101 -35h2h3h141c59 0 90 -28 90 -87c0 -40 -13 -73 -37 -100
c88 24 150 81 150 144c0 121 -103 132 -147 132zM483 332c-1 71 -59 120 -155 142c26 -41 33 -104 33 -142c0 -59 -10 -105 -30 -136c95 13 152 64 152 136z" />
    <glyph glyph-name="h" unicode="h" horiz-adv-x="680" 
d="M0 759c0 9 8 17 17 17h85h100h59c9 0 17 -8 17 -17v-316c34 26 90 65 157 65c78 0 130 -28 155 -85c21 -50 20 -114 20 -189v-201h53c8 0 16 -7 16 -16s-8 -17 -16 -17h-69h-157h-61c-9 0 -16 8 -16 17s7 16 16 16h44v243c0 41 0 84 -8 116c-11 38 -26 42 -45 42
c-41 0 -79 -27 -89 -37v-364h45c9 0 15 -7 15 -16s-6 -17 -15 -17h-62h-159h-72c-8 0 -15 8 -15 17s7 16 15 16h56v711h-69c-9 0 -17 6 -17 15zM435 474c-19 0 -35 -3 -50 -8c29 -7 50 -27 59 -66c9 -36 9 -80 9 -124l-1 -243h125v201c0 71 -1 133 -18 176
c-13 30 -39 64 -124 64zM202 744h-83v-711h125v711h-42z" />
    <glyph glyph-name="i" unicode="i" horiz-adv-x="354" 
d="M40 32h55v437h-67c-9 0 -16 6 -16 17c0 8 7 15 16 15h84h97h57c11 0 17 -7 17 -15v-454h55c9 0 17 -7 17 -15c0 -9 -8 -17 -17 -17h-72h-154h-72c-9 0 -17 8 -17 17c0 8 8 15 17 15zM128 469v-437h122v437h-41h-81zM56 669c0 57 52 107 113 107c64 0 113 -50 113 -107
c0 -58 -49 -107 -113 -107c-61 0 -113 49 -113 107zM248 669c0 39 -36 73 -79 73s-79 -34 -79 -73c0 -42 36 -73 79 -73s79 31 79 73z" />
    <glyph glyph-name="j" unicode="j" horiz-adv-x="346" 
d="M32 -122c0 -35 -19 -65 -48 -81h12c15 0 29 6 42 17c52 60 52 214 52 218v436h-77c-9 0 -16 7 -16 16c0 11 7 17 16 17h93h89h73c9 0 16 -6 16 -17v-436c0 -4 3 -123 -77 -207c-51 -53 -122 -79 -211 -79c-78 0 -115 39 -128 61c-12 15 -19 36 -19 55c0 51 42 93 92 93
c52 0 91 -42 91 -93zM124 468v-436c0 -8 2 -153 -51 -227c43 11 80 29 109 60c70 71 69 183 68 183v420h-55h-71zM-59 -179c31 0 59 25 59 57c0 33 -28 59 -59 59s-58 -26 -58 -59c0 -9 2 -16 7 -23c1 -4 3 -4 4 -7c0 -1 1 -3 3 -6c11 -13 27 -21 44 -21zM174 776
c61 0 113 -49 113 -107s-52 -107 -113 -107c-62 0 -114 49 -114 107s52 107 114 107zM174 596c44 0 79 32 79 73c0 39 -35 73 -79 73s-78 -34 -78 -73c0 -41 34 -73 78 -73z" />
    <glyph glyph-name="k" unicode="k" horiz-adv-x="632" 
d="M38 33h76v711h-67c-9 0 -16 6 -16 15c0 11 7 17 16 17h83h96h54c11 0 16 -6 16 -17v-500l196 210h-108c-9 0 -16 7 -16 16s7 16 16 16h231c8 0 15 -7 15 -16s-7 -16 -15 -16h-79l-109 -117c2 -2 72 -108 209 -319h20c8 0 15 -8 15 -17c0 -8 -7 -16 -15 -16h-215
c-3 0 -5 -1 -8 2c-4 1 -3 1 -6 5l-124 211l-7 -6v-179h80c8 0 16 -8 16 -17c0 -8 -8 -16 -16 -16h-96h-150h-92c-8 0 -15 8 -15 16c0 9 7 17 15 17zM597 32l-191 297l-82 -87l126 -210h147zM146 744v-712h118v712h-39h-79z" />
    <glyph glyph-name="l" unicode="l" horiz-adv-x="362" 
d="M8 760c0 8 10 16 18 16h90h100h58c9 0 17 -8 17 -16v-727h55c9 0 16 -7 16 -16s-7 -17 -16 -17h-72h-158h-72c-8 0 -17 8 -17 17s9 16 17 16h55v710h-73c-8 0 -18 6 -18 17zM216 743h-83v-710h124v710h-41z" />
    <glyph glyph-name="m" unicode="m" horiz-adv-x="1016" 
d="M228 501h59c7 0 16 -6 16 -15v-42c31 26 88 64 152 64c60 0 100 -15 128 -42c11 -11 19 -24 24 -36c34 26 97 78 171 78c170 0 171 -135 171 -277v-198h51c8 0 16 -8 16 -16c0 -11 -8 -17 -16 -17h-67h-158h-57c-9 0 -15 6 -15 17c0 8 6 16 15 16h42v250
c0 57 -1 117 -22 141c-6 6 -15 9 -28 9c-42 0 -77 -28 -91 -39c7 -37 7 -81 6 -129v-34v-198h41c8 0 16 -8 16 -16c0 -11 -8 -17 -16 -17h-57h-156h-56c-9 0 -16 6 -16 17c0 8 7 16 16 16h39l1 259c0 55 -1 107 -20 132c-7 7 -15 9 -27 9c-41 0 -76 -25 -87 -36v-364h41
c9 0 17 -8 17 -16c0 -11 -8 -17 -17 -17h-57h-155h-72c-9 0 -16 6 -16 17c0 8 7 16 16 16h55v436h-60c-11 0 -17 8 -17 17s6 15 17 15h77h96zM778 475c-17 0 -36 -4 -52 -11c15 -3 24 -8 35 -17c33 -33 31 -98 31 -164v-250h124v198c0 156 -8 244 -138 244zM455 475
c-19 0 -35 -4 -52 -11c15 -3 28 -8 36 -17c31 -31 31 -93 31 -155v-259h122v198v35c0 76 1 142 -31 176c-21 22 -57 33 -106 33zM148 33h122v436h-42h-80v-436z" />
    <glyph glyph-name="n" unicode="n" horiz-adv-x="690" 
d="M48 501h75h95h57c11 0 18 -7 18 -15v-38c29 26 81 60 155 60c59 0 98 -13 126 -40c42 -42 41 -113 41 -197v-33v-205h49c9 0 17 -7 17 -16s-8 -17 -17 -17h-65h-153h-59c-9 0 -17 8 -17 17s8 16 17 16h42v265c0 54 0 106 -19 128c-6 7 -15 10 -26 10
c-42 0 -78 -26 -91 -34v-369h43c8 0 16 -7 16 -16s-8 -17 -16 -17h-61h-152h-68c-9 0 -17 8 -17 17s8 16 17 16h52v436h-59c-9 0 -17 8 -17 17c0 8 8 15 17 15zM448 476c-20 0 -41 -4 -58 -9c17 -1 31 -8 42 -17c7 -8 13 -18 17 -29c5 -11 8 -23 9 -36c2 -13 3 -42 3 -87
v-265h121c1 179 1 276 0 293c0 17 -1 33 -3 48c-4 31 -13 55 -29 71c-19 21 -53 31 -102 31zM218 469h-79v-436h121v436h-42z" />
    <glyph glyph-name="o" unicode="o" horiz-adv-x="592" 
d="M299 -7c-172 0 -282 100 -282 257c0 155 112 258 282 258c168 0 282 -103 282 -258c0 -157 -111 -257 -282 -257zM215 250c0 -104 36 -225 84 -225c50 0 82 92 82 225c0 108 -34 226 -82 226s-84 -93 -84 -226zM549 250c0 116 -72 201 -189 220c38 -54 53 -149 53 -220
c0 -101 -16 -177 -47 -218c114 19 183 103 183 218zM231 469c-111 -21 -183 -103 -183 -219c0 -119 72 -199 190 -220c-41 54 -54 161 -54 220c0 101 16 176 47 219z" />
    <glyph glyph-name="p" unicode="p" horiz-adv-x="658" 
d="M269 484v-25c26 23 76 49 151 49c44 0 99 -19 143 -61c15 -14 28 -31 40 -51c25 -39 32 -69 36 -124c0 -151 -110 -279 -250 -279c-28 0 -82 13 -120 29v-221h89c9 0 18 -9 18 -18s-9 -17 -18 -17h-107h-159h-87c-9 0 -16 8 -16 17s7 18 16 18h70v666h-67
c-11 0 -17 8 -17 17c0 11 6 17 17 17h243c11 0 18 -6 18 -17zM324 42c52 0 107 87 107 215c0 67 -15 97 -34 133s-40 52 -56 52c-39 0 -65 -23 -72 -35v-344c11 -6 35 -21 55 -21zM110 -199h126v666h-126v-666zM605 272c-1 23 -4 42 -8 57c-8 29 -31 67 -56 91
c-38 36 -82 53 -121 53c-20 0 -36 -2 -51 -5c25 -12 49 -39 66 -82c17 -41 29 -73 29 -129c0 -104 -34 -192 -83 -230h8c108 0 216 97 216 245z" />
    <glyph glyph-name="q" unicode="q" horiz-adv-x="648" 
d="M386 459v25c0 11 6 17 17 17h243c11 0 18 -6 18 -17c0 -9 -7 -17 -18 -17h-66v-666h69c9 0 16 -9 16 -18s-7 -17 -16 -17h-87h-159h-107c-9 0 -18 8 -18 17s9 18 18 18h90v221c-38 -16 -92 -29 -121 -29c-140 0 -249 128 -249 279c1 27 4 50 9 68c11 36 37 79 66 107
c46 42 98 61 143 61c78 0 124 -26 152 -49zM330 42c22 0 42 16 56 21v344c-9 12 -31 35 -73 35c-15 0 -37 -16 -56 -52s-33 -66 -33 -133c0 -128 53 -215 106 -215zM418 -199h126v666h-126v-666zM49 272c0 -148 108 -245 216 -245h8c-49 38 -83 126 -83 230
c0 56 12 88 29 129c17 43 42 70 67 82c-16 3 -31 5 -52 5c-39 0 -83 -17 -121 -53c-12 -12 -23 -27 -34 -44c-21 -33 -27 -57 -30 -104z" />
    <glyph glyph-name="r" unicode="r" horiz-adv-x="520" 
d="M96 468h-62c-9 0 -17 8 -17 17s8 16 17 16h79h76h83c9 0 17 -7 17 -16v-33c27 21 84 56 147 56c54 0 101 -47 101 -106c0 -58 -47 -106 -101 -106c-56 0 -103 48 -103 106c0 17 4 32 11 45c-33 -21 -48 -44 -55 -53v-360h75c11 0 17 -7 17 -16s-6 -18 -17 -18h-92h-159
h-72c-11 0 -18 8 -18 17c0 11 7 17 18 17h55v434zM503 402c0 40 -30 72 -67 72c-40 0 -69 -32 -69 -72c0 -39 29 -72 69 -72c37 0 67 33 67 72zM255 468h-127v-434h127v370v3v61z" />
    <glyph glyph-name="s" unicode="s" horiz-adv-x="513" 
d="M266 508l36 -4l5 -1c61 -11 96 -40 119 -72v54c0 9 7 16 15 16c9 0 17 -7 17 -16v-151c0 -7 -8 -15 -17 -15c-8 0 -15 7 -15 15c0 6 -4 119 -126 139c-62 5 -79 -49 -79 -76s10 -37 79 -60c9 -5 20 -6 32 -10c67 -20 158 -47 158 -160c0 -112 -85 -174 -242 -174
c-91 0 -146 53 -172 103v-81c0 -8 -8 -15 -16 -15c-9 0 -17 7 -17 15v172c0 9 7 17 16 17c8 1 14 -6 17 -14c0 -7 22 -165 172 -165h1c52 0 74 25 74 81c0 34 -17 44 -83 62c-15 4 -29 9 -46 14c-96 35 -143 88 -143 169c0 91 90 157 215 157zM323 296l-33 10
c-69 24 -101 41 -101 91c0 27 9 54 29 75c-72 -13 -135 -53 -135 -121s38 -110 121 -138l45 -14c66 -22 105 -31 105 -93c0 -31 -6 -53 -19 -72c68 16 124 49 124 133c0 89 -72 110 -136 129z" />
    <glyph glyph-name="t" unicode="t" horiz-adv-x="397" 
d="M267 632v-131h118c9 0 17 -8 17 -17s-8 -17 -17 -17h-118v-234c0 -53 -1 -94 10 -123c7 -24 19 -38 35 -45c11 -5 22 -4 35 2h1c20 13 32 21 33 21c8 7 18 4 23 -3s5 -18 -4 -23c-2 -1 -87 -69 -160 -69s-124 24 -148 71c-22 38 -21 84 -21 117v286h-71
c-11 0 -17 8 -17 17s6 17 17 17h71v131c0 8 8 16 16 16h162c9 0 18 -8 18 -16zM289 38c-20 12 -35 32 -44 61c-13 33 -13 78 -13 134v382h-128v-434c0 -31 1 -71 17 -100c19 -35 59 -53 119 -53c15 0 32 5 49 10z" />
    <glyph glyph-name="u" unicode="u" horiz-adv-x="677" 
d="M659 17c0 -11 -8 -17 -16 -17h-77h-98h-58c-11 0 -16 6 -16 17v49c-32 -32 -84 -73 -160 -73c-57 0 -99 13 -125 39c-42 45 -44 116 -41 201v44v191h-61c-9 0 -16 9 -16 18s7 15 16 15h77h104h53c9 0 15 -6 15 -15v-254v-34c0 -47 1 -91 17 -110c4 -4 10 -7 25 -7
c44 0 82 28 96 39v348h-64c-9 0 -17 9 -17 18s8 15 17 15h80h125h31c9 0 16 -6 16 -15v-453h61c8 0 16 -8 16 -16zM234 26c33 0 63 11 86 24c-7 -1 -14 -3 -22 -3c-19 0 -35 6 -48 18c-27 27 -26 77 -26 133v34v236h-36h-86v-191c0 -16 -1 -30 -1 -45
c-3 -78 -3 -144 31 -175c19 -21 53 -31 102 -31zM468 33h82v435h-15h-108v-435h41z" />
    <glyph glyph-name="v" unicode="v" horiz-adv-x="567" 
d="M30 468h-25c-9 0 -16 9 -16 18s7 15 16 15h36h166h91c9 0 16 -6 16 -15s-7 -18 -16 -18h-65l141 -310l119 310h-102c-9 0 -17 9 -17 18s8 15 17 15h126h69c9 0 17 -6 17 -15s-8 -18 -17 -18h-58l-137 -359v-1l-38 -98c-1 -3 -3 -6 -4 -7c-2 -2 -4 -3 -7 -3h-4h-84
c-7 0 -12 3 -15 8zM197 468h-131l199 -435h61l31 82z" />
    <glyph glyph-name="w" unicode="w" horiz-adv-x="863" 
d="M23 501h39h164h87c9 0 17 -4 17 -15c0 -9 -8 -18 -17 -18h-62l107 -278l76 300c1 5 8 11 15 11h1h94c5 0 12 -3 15 -10l124 -334l94 311h-100c-11 0 -17 10 -17 18c0 11 6 15 17 15h194c11 0 17 -4 17 -15c0 -8 -6 -18 -17 -18h-59l-113 -367l-25 -82l-2 -8
c-1 -3 -2 -6 -5 -9c0 -1 -2 -2 -5 -2h-6h-92c-5 0 -12 4 -15 11l-120 322c-48 -200 -49 -201 -49 -204l-30 -117c-1 -1 -1 -2 -2 -5c-3 -4 -9 -7 -14 -7h-93c-5 0 -11 4 -14 11l-175 457h-29c-9 0 -17 9 -17 18c0 11 8 15 17 15zM667 106l-134 362h-71l-19 -79l133 -356h68z
M213 468h-127l168 -435h66l26 101z" />
    <glyph glyph-name="x" unicode="x" horiz-adv-x="588" 
d="M212 0h-190c-9 0 -16 6 -16 17c0 8 7 16 16 16h48l157 183l-178 252h-21c-8 0 -15 8 -15 16c0 11 7 17 15 17h29h175h84c9 0 17 -6 17 -17c0 -8 -8 -16 -17 -16h-53l98 -142l116 142h-92c-11 0 -17 8 -17 16c0 11 6 17 17 17h125h2h61c9 0 16 -6 16 -17
c0 -8 -7 -16 -16 -16h-54l-138 -170l188 -265h17c9 0 17 -8 17 -16c0 -11 -8 -17 -17 -17h-25h-170h-100c-9 0 -17 6 -17 17c0 8 8 16 17 16h67l-111 156l-132 -156h97c11 0 17 -8 17 -16c0 -11 -6 -17 -17 -17zM222 468h-132l308 -435h131z" />
    <glyph glyph-name="y" unicode="y" horiz-adv-x="562" 
d="M18 467h-23c-9 0 -16 9 -16 17c0 11 7 17 16 17h296c11 0 17 -6 17 -17c0 -8 -6 -17 -17 -17h-67l146 -301l119 301h-108c-8 0 -16 9 -16 17c0 11 8 17 16 17h200c7 0 15 -6 15 -17c0 -8 -8 -17 -15 -17h-56l-139 -349l-77 -185l-5 -10l-9 -17c-3 -7 -10 -21 -23 -43
c-36 -62 -79 -101 -159 -101h-8c-55 0 -102 47 -102 105c0 59 47 105 102 105c54 0 101 -46 101 -105c0 -17 -7 -34 -12 -49c29 25 41 44 54 71c20 37 20 35 26 51zM37 -133c0 -37 30 -71 68 -71c37 0 67 34 67 71c0 38 -30 71 -67 71c-38 0 -68 -33 -68 -71zM187 467h-131
l236 -488l61 146z" />
    <glyph glyph-name="z" unicode="z" horiz-adv-x="525" 
d="M51 345v141c0 9 7 15 15 15h451c5 0 10 -3 13 -9c3 -5 3 -10 -1 -16l-296 -443h254v143c0 11 9 17 16 17c9 0 18 -6 18 -17v-159c0 -9 -9 -17 -18 -17h-477c-5 0 -10 2 -14 9c-3 5 -2 12 1 16l299 443h-230l1 -123c0 -9 -8 -16 -17 -16c-8 0 -15 7 -15 16zM194 33
l291 435h-135l-293 -435h137z" />
    <glyph glyph-name="braceleft" unicode="{" horiz-adv-x="500" 
d="M488 -206c7 0 11 -6 12 -13c0 -7 -5 -13 -12 -13c-3 0 -7 0 -11 -1c-5 0 -16 -1 -25 -1c-87 0 -288 21 -288 221v120c0 111 -27 148 -117 153c-8 0 -16 1 -20 1h-5c-4 0 -12 4 -12 11c0 8 7 14 12 14h4h22c89 5 116 44 116 151v122c0 196 201 217 288 217c9 0 20 0 25 -1
h11c7 -1 12 -7 12 -14c-1 -5 -5 -11 -12 -11c-8 0 -123 -8 -123 -155v-107c0 -138 -101 -194 -190 -216c89 -19 190 -77 190 -214v-109c0 -149 115 -155 123 -155zM188 559v-122c0 -71 -10 -117 -41 -144c90 16 190 63 190 195v107c0 84 38 131 74 154
c-37 -4 -82 -11 -122 -31c-67 -31 -101 -86 -101 -159zM188 107v-120c0 -151 135 -185 223 -193c-36 23 -74 70 -74 155v109c0 130 -100 182 -190 196c31 -28 41 -72 41 -147z" />
    <glyph glyph-name="bar" unicode="|" horiz-adv-x="388" 
d="M198 776c7 0 12 -7 12 -16v-978c0 -9 -5 -16 -12 -16c-9 0 -16 7 -16 16v978c0 9 7 16 16 16z" />
    <glyph glyph-name="braceright" unicode="}" horiz-adv-x="500" 
d="M22 -206c6 0 123 6 123 155v109c0 137 101 195 190 214c-89 22 -190 78 -190 216v107c0 147 -117 155 -123 155c-7 0 -11 6 -12 11c0 7 5 13 12 14h11c5 1 14 1 25 1c86 0 288 -21 288 -217v-122c0 -107 26 -146 115 -151h22h5c5 0 12 -6 12 -14c0 -7 -8 -11 -12 -11h-6
c-4 0 -11 -1 -19 -1c-91 -5 -117 -42 -117 -153v-120c0 -200 -202 -221 -288 -221c-11 0 -20 1 -25 1c-5 1 -8 1 -11 1c-7 0 -12 6 -12 13c1 7 5 13 12 13zM322 437v122c0 73 -34 128 -101 159c-41 20 -86 27 -122 31c37 -24 73 -70 73 -154v-107c0 -132 102 -179 191 -195
c-32 27 -41 73 -41 144zM322 -13v120c0 75 10 119 41 147c-89 -13 -191 -66 -191 -196v-109c0 -87 -38 -130 -73 -155c88 8 223 42 223 193z" />
    <glyph glyph-name="asciitilde" unicode="~" 
d="M622 393c7 -4 11 -11 11 -19c-4 -70 -49 -200 -181 -200c-62 0 -109 28 -147 53c-32 19 -58 36 -90 36c-33 0 -60 -22 -82 -41c-12 -12 -23 -26 -33 -41c-5 -5 -10 -8 -17 -8c-3 0 -5 0 -6 1c-9 4 -14 14 -10 22c0 8 68 196 177 196c57 0 104 -28 146 -54
c33 -20 61 -35 89 -35c52 0 107 59 122 82c5 8 13 9 21 8zM452 209c79 0 120 58 133 108c-27 -27 -66 -50 -106 -50c-36 0 -71 20 -107 41c-39 23 -81 47 -128 47c-39 0 -74 -36 -99 -78c21 13 43 22 70 22c41 0 74 -19 109 -42c37 -24 75 -48 128 -48z" />
    <glyph glyph-name="Adieresis" unicode="&#xc4;" horiz-adv-x="758" 
d="M803 16c0 9 -8 17 -16 17h-55l-270 666c-1 7 -7 10 -15 10h-82c-8 0 -13 -3 -16 -10l-45 -123s0 -1 -1 -2l-122 -303s0 -1 -1 -2l-95 -236h-93c-9 0 -16 -8 -16 -17c0 -8 7 -16 16 -16h105h172c8 0 16 8 16 16c0 9 -8 17 -16 17h-147l85 215h223h1l87 -215h-100
c-8 0 -17 -8 -17 -17c0 -8 9 -16 17 -16h124h179h1h65c8 0 16 8 16 16zM221 281l97 244l99 -244h-196zM554 33l-217 536l39 107h60l260 -643h-142zM453 858c0 46 34 82 78 82c43 0 79 -36 79 -82c0 -45 -36 -81 -79 -81c-44 0 -78 36 -78 81zM582 858c0 30 -23 54 -51 54
c-27 0 -50 -24 -50 -54c0 -29 23 -54 50 -54c28 0 51 25 51 54zM191 858c0 46 35 82 78 82s79 -36 79 -82c0 -45 -36 -81 -79 -81s-78 36 -78 81zM320 858c0 30 -23 54 -51 54c-27 0 -50 -24 -50 -54c0 -29 23 -54 50 -54c28 0 51 25 51 54z" />
    <glyph glyph-name="Aring" unicode="&#xc5;" horiz-adv-x="758" 
d="M404 900c75 0 137 -50 137 -111c0 -62 -62 -113 -137 -113c-74 0 -136 51 -136 113c0 61 62 111 136 111zM403 709c56 0 101 36 101 79c0 42 -45 79 -101 79c-54 0 -99 -37 -99 -79c0 -43 45 -79 99 -79zM803 16c0 9 -8 17 -16 17h-55l-270 666c-1 7 -7 10 -15 10h-82
c-8 0 -13 -3 -16 -10l-45 -123s0 -1 -1 -2l-122 -303s0 -1 -1 -2l-95 -236h-93c-9 0 -16 -8 -16 -17c0 -8 7 -16 16 -16h105h172c8 0 16 8 16 16c0 9 -8 17 -16 17h-147l85 215h223h1l87 -215h-100c-8 0 -17 -8 -17 -17c0 -8 9 -16 17 -16h124h179h1h65c8 0 16 8 16 16z
M221 281l97 244l99 -244h-196zM554 33l-217 536l39 107h60l260 -643h-142z" />
    <glyph glyph-name="Ccedilla" unicode="&#xc7;" horiz-adv-x="715" 
d="M526 -82c16 -14 24 -32 24 -55c0 -47 -26 -77 -78 -90c-43 -11 -97 -11 -162 -11h-8h-9c-8 0 -15 7 -15 15c0 9 7 16 15 16c119 0 119 37 119 49c0 7 -1 11 -4 12c-8 8 -27 7 -31 7v1c-1 0 -1 0 -1 -1c-1 0 -3 1 -4 1h-2c0 1 -2 2 -3 3c0 0 -1 0 -2 1s-1 1 -1 2l-2 2
c0 2 0 3 -1 3v2v1v124c0 8 6 15 15 15c8 0 14 -7 14 -15v-46c29 0 99 -1 136 -36zM464 -197c40 11 55 28 55 60c0 13 -5 25 -14 34c-27 24 -84 29 -115 26v-31c12 -1 27 -5 38 -16c9 -8 15 -21 15 -34c0 -20 -7 -34 -18 -45c15 1 28 3 39 6zM10 354c0 176 131 362 372 362
c111 0 181 -65 231 -144v121c0 9 7 16 16 16s16 -7 16 -16v-251c0 -8 -7 -15 -16 -15s-16 7 -16 15v69c-46 79 -100 152 -196 171c-125 -12 -191 -124 -191 -328c0 -173 65 -243 118 -272c65 -35 142 -20 189 11c41 36 67 85 88 119c3 9 13 12 21 7c7 -4 11 -13 7 -21
c-67 -133 -165 -205 -281 -205c-173 0 -358 115 -358 361zM311 678c-176 -32 -269 -181 -269 -324c0 -225 164 -329 326 -329c17 0 32 2 47 5c-29 1 -58 8 -86 23c-61 35 -135 112 -135 301s52 278 117 324z" />
    <glyph glyph-name="Eacute" unicode="&#xc9;" horiz-adv-x="721" 
d="M182 33h-82c-9 0 -17 -8 -17 -16c0 -11 8 -17 17 -17h648c8 0 15 6 15 17v210c0 8 -7 17 -15 17c-11 0 -19 -9 -19 -17v-194h-345v317h195v-127c0 -8 10 -16 19 -16c8 0 16 8 16 16v281c0 11 -8 17 -16 17c-9 0 -19 -6 -19 -17v-121h-195v293h299v-156c0 -9 6 -17 15 -17
c11 0 18 8 18 17v173c0 9 -7 16 -18 16h-598c-9 0 -17 -7 -17 -16c0 -8 8 -17 17 -17h82v-643zM214 33v643h138v-307v-1v-1v-334h-138zM357 831c49 93 80 148 89 158c11 11 27 17 43 17c14 0 35 -3 54 -24c20 -20 24 -39 24 -53c0 -17 -7 -32 -18 -42
c-13 -15 -149 -87 -191 -109c-2 -2 -4 -2 -8 -2c-8 0 -14 6 -14 14c0 4 1 6 2 9c2 4 10 15 19 32zM529 909c3 2 8 10 8 20c0 12 -6 22 -14 31c-11 11 -23 16 -34 16c-7 0 -16 -2 -21 -7c-10 -10 -56 -97 -80 -141c68 37 133 72 141 81z" />
    <glyph glyph-name="Ntilde" unicode="&#xd1;" horiz-adv-x="839" 
d="M166 564v-531h-130c-11 0 -17 -6 -17 -17c0 -8 6 -16 17 -16h290c9 0 15 8 15 16c0 11 -6 17 -15 17h-128v484l414 -511c4 -5 9 -6 14 -6h60c9 0 16 8 16 16v1v188v471h128c8 0 16 9 16 18s-8 15 -16 15h-290c-9 0 -17 -6 -17 -15s8 -18 17 -18h129v-426l-369 453
c-3 4 -7 6 -13 6h-249c-9 0 -15 -6 -15 -15s6 -18 15 -18h128v-112zM278 676l390 -476v-167h-35l-435 537v106h80zM691 977c7 -2 11 -10 11 -17c-4 -63 -43 -183 -164 -183c-57 0 -98 26 -134 49c-29 17 -53 33 -81 33c-59 0 -104 -75 -104 -75c-4 -5 -9 -8 -16 -8
c-1 0 -3 0 -5 1c-8 4 -12 13 -9 21c1 7 60 179 160 179c52 0 95 -26 132 -49c30 -19 57 -33 82 -33c46 0 96 55 110 76c5 6 11 8 18 6zM538 809c73 0 106 54 121 99c-26 -24 -60 -46 -96 -46c-34 0 -66 18 -98 38c-36 21 -72 43 -116 43c-35 0 -66 -34 -90 -71
c20 12 40 20 64 20c37 0 67 -18 99 -39c33 -21 68 -44 116 -44z" />
    <glyph glyph-name="Odieresis" unicode="&#xd6;" horiz-adv-x="820" 
d="M389 -7c224 0 371 141 371 361c0 218 -150 362 -371 362c-223 0 -372 -144 -372 -362c0 -220 145 -361 372 -361zM235 354c0 163 48 328 154 328c93 0 153 -169 153 -328c0 -151 -41 -329 -153 -329c-99 0 -154 196 -154 329zM727 354c0 -137 -64 -280 -241 -320
c56 59 87 168 87 320c0 111 -29 253 -96 322c156 -32 250 -155 250 -322zM292 673c-57 -57 -88 -168 -88 -319c0 -107 30 -253 99 -322c-186 36 -254 181 -254 322c0 167 93 284 243 319zM461 859c0 46 34 82 78 82c43 0 79 -36 79 -82c0 -45 -36 -81 -79 -81
c-44 0 -78 36 -78 81zM590 859c0 30 -23 54 -51 54c-27 0 -50 -24 -50 -54c0 -29 23 -54 50 -54c28 0 51 25 51 54zM199 859c0 46 35 82 78 82s79 -36 79 -82c0 -45 -36 -81 -79 -81s-78 36 -78 81zM328 859c0 30 -23 54 -51 54c-27 0 -50 -24 -50 -54c0 -29 23 -54 50 -54
c28 0 51 25 51 54z" />
    <glyph glyph-name="Udieresis" unicode="&#xdc;" horiz-adv-x="833" 
d="M61 677h73v-394c0 -63 0 -155 65 -220c47 -47 120 -70 219 -70c53 0 99 5 138 20c5 1 9 4 13 5c29 11 53 27 73 46c63 63 66 157 63 219v394h127c9 0 17 8 17 16c0 9 -8 16 -17 16h-288c-9 0 -16 -7 -16 -16c0 -8 7 -16 16 -16h129v-394c0 -60 -1 -141 -54 -197
c-19 -19 -45 -33 -74 -42c-44 -14 -136 20 -165 49c-29 33 -46 84 -46 151v433h75c9 0 17 8 17 16c0 9 -8 16 -17 16h-348c-9 0 -18 -7 -18 -16c0 -8 9 -16 18 -16zM357 70c16 -15 43 -32 78 -44h-17c-91 0 -157 20 -197 59c-53 56 -54 137 -54 198v394h134v-433
c0 -75 19 -133 56 -174zM495 859c0 46 34 82 78 82c43 0 79 -36 79 -82c0 -45 -36 -81 -79 -81c-44 0 -78 36 -78 81zM624 859c0 30 -23 54 -51 54c-27 0 -50 -24 -50 -54c0 -29 23 -54 50 -54c28 0 51 25 51 54zM233 859c0 46 35 82 78 82s79 -36 79 -82
c0 -45 -36 -81 -79 -81s-78 36 -78 81zM362 859c0 30 -23 54 -51 54c-27 0 -50 -24 -50 -54c0 -29 23 -54 50 -54c28 0 51 25 51 54z" />
    <glyph glyph-name="aacute" unicode="&#xe1;" horiz-adv-x="596" 
d="M297 322v32c0 -16 0 13 -3 34c-2 25 -10 50 -27 69c-13 11 -27 16 -44 16c-23 -1 -44 -5 -61 -10c25 -12 46 -39 46 -71c0 -47 -41 -84 -87 -84c-49 0 -87 37 -87 84c0 20 8 36 24 55c29 29 68 49 153 59c32 2 32 2 46 2c92 0 157 -21 197 -66c38 -42 33 -93 33 -94v-315
h65c9 0 17 -7 17 -16c0 -8 -8 -17 -17 -17h-81h-157c-9 0 -17 9 -17 17v10c-27 0 -78 -38 -159 -34c-37 0 -71 15 -96 40s-40 63 -40 87c0 91 72 128 126 150zM121 342c28 0 51 22 51 49c0 26 -23 48 -51 48s-51 -22 -51 -48c0 -27 23 -49 51 -49zM297 84v197
c-20 -11 -45 -27 -61 -43c-29 -32 -36 -50 -36 -94c0 -36 13 -51 40 -63c27 -11 46 -3 57 3zM35 120c0 -15 11 -44 30 -63c20 -19 45 -30 73 -30c47 0 82 9 106 18c-5 3 -10 3 -17 7c-40 15 -61 55 -61 92c0 52 9 75 44 115c1 1 3 1 4 4l-75 -24c-73 -29 -104 -64 -104 -119
zM295 476c40 -48 37 -112 37 -116v-327h57h65v334c0 1 3 26 -26 58c-26 27 -70 44 -133 51zM208 653c51 95 80 151 91 160c12 12 27 18 44 18c13 0 34 -4 54 -25c21 -20 24 -40 24 -53c0 -18 -6 -32 -18 -43c-11 -15 -152 -90 -194 -111c-1 -1 -4 -2 -8 -2
c-8 0 -14 6 -14 14c0 4 1 6 2 10c3 3 10 15 19 32zM383 732c3 3 8 10 8 21s-6 22 -15 31c-11 11 -22 16 -33 16c-9 0 -17 -2 -22 -7c-11 -11 -56 -98 -81 -143c68 37 135 74 143 82z" />
    <glyph glyph-name="agrave" unicode="&#xe0;" horiz-adv-x="596" 
d="M297 354v-32l-169 -52c-54 -22 -126 -59 -126 -150c0 -24 15 -62 40 -87s59 -40 96 -40c81 -4 132 34 159 34v-10c0 -8 8 -17 17 -17h157h81c9 0 17 9 17 17c0 9 -8 16 -17 16h-65v315c0 1 5 52 -33 94c-40 45 -105 66 -197 66c-14 0 -14 0 -46 -2
c-85 -10 -124 -30 -153 -59c-16 -19 -24 -35 -24 -55c0 -47 38 -84 87 -84c46 0 87 37 87 84c0 32 -21 59 -46 71c17 5 38 9 61 10c17 0 31 -5 44 -16c17 -19 25 -44 27 -69c3 -21 3 -50 3 -34zM121 342c-28 0 -51 22 -51 49c0 26 23 48 51 48s51 -22 51 -48
c0 -27 -23 -49 -51 -49zM297 281v-197c-11 -6 -30 -14 -57 -3c-27 12 -40 27 -40 63c0 44 7 62 36 94c16 16 41 32 61 43zM35 120c0 55 31 90 104 119l75 24c-1 -3 -3 -3 -4 -4c-35 -40 -44 -63 -44 -115c0 -37 21 -77 61 -92c7 -4 12 -4 17 -7c-24 -9 -59 -18 -106 -18
c-28 0 -53 11 -73 30c-19 19 -30 48 -30 63zM295 476c63 -7 107 -24 133 -51c29 -32 26 -57 26 -58v-334h-65h-57v327c0 4 3 68 -37 116zM357 652c9 -17 16 -29 19 -32c1 -3 2 -6 2 -9c0 -8 -6 -15 -14 -15c-4 0 -6 0 -8 2c-42 23 -178 95 -192 110c-10 10 -17 25 -17 42
c0 13 4 33 24 52c19 21 40 25 54 25c16 0 32 -6 43 -17c9 -10 40 -66 89 -158zM185 729c8 -8 73 -44 141 -80c-24 44 -70 131 -80 140c-5 6 -14 8 -21 8c-11 0 -23 -5 -34 -16c-8 -9 -14 -20 -14 -31c0 -10 5 -18 8 -21z" />
    <glyph glyph-name="acircumflex" unicode="&#xe2;" horiz-adv-x="596" 
d="M297 354v-32l-169 -52c-54 -22 -126 -59 -126 -150c0 -24 15 -62 40 -87s59 -40 96 -40c81 -4 132 34 159 34v-10c0 -8 8 -17 17 -17h157h81c9 0 17 9 17 17c0 9 -8 16 -17 16h-65v315c0 1 5 52 -33 94c-40 45 -105 66 -197 66c-14 0 -14 0 -46 -2
c-85 -10 -124 -30 -153 -59c-16 -19 -24 -35 -24 -55c0 -47 38 -84 87 -84c46 0 87 37 87 84c0 32 -21 59 -46 71c17 5 38 9 61 10c17 0 31 -5 44 -16c17 -19 25 -44 27 -69c3 -21 3 -50 3 -34zM121 342c-28 0 -51 22 -51 49c0 26 23 48 51 48s51 -22 51 -48
c0 -27 -23 -49 -51 -49zM297 281v-197c-11 -6 -30 -14 -57 -3c-27 12 -40 27 -40 63c0 44 7 62 36 94c16 16 41 32 61 43zM35 120c0 55 31 90 104 119l75 24c-1 -3 -3 -3 -4 -4c-35 -40 -44 -63 -44 -115c0 -37 21 -77 61 -92c7 -4 12 -4 17 -7c-24 -9 -59 -18 -106 -18
c-28 0 -53 11 -73 30c-19 19 -30 48 -30 63zM295 476c63 -7 107 -24 133 -51c29 -32 26 -57 26 -58v-334h-65h-57v327c0 4 3 68 -37 116zM286 704l-182 -105c-5 -3 -13 -2 -19 3c-2 3 -3 7 -3 11c0 3 1 5 3 8c12 18 126 180 139 193c27 34 63 32 65 32c0 0 40 3 66 -32
l138 -193c4 -5 4 -13 -1 -19c-4 -5 -13 -6 -17 -3zM247 796c-8 -9 -59 -79 -99 -137l131 76c4 2 10 2 14 0l136 -77c-37 53 -90 127 -98 140c-15 20 -41 19 -42 19c-2 0 -24 0 -42 -21z" />
    <glyph glyph-name="adieresis" unicode="&#xe4;" horiz-adv-x="596" 
d="M297 322v32c0 -16 0 13 -3 34c-2 25 -10 50 -27 69c-13 11 -27 16 -44 16c-23 -1 -44 -5 -61 -10c25 -12 46 -39 46 -71c0 -47 -41 -84 -87 -84c-49 0 -87 37 -87 84c0 20 8 36 24 55c29 29 68 49 153 59c32 2 32 2 46 2c92 0 157 -21 197 -66c38 -42 33 -93 33 -94v-315
h65c9 0 17 -7 17 -16c0 -8 -8 -17 -17 -17h-81h-157c-9 0 -17 9 -17 17v10c-27 0 -78 -38 -159 -34c-37 0 -71 15 -96 40s-40 63 -40 87c0 91 72 128 126 150zM121 342c28 0 51 22 51 49c0 26 -23 48 -51 48s-51 -22 -51 -48c0 -27 23 -49 51 -49zM297 84v197
c-20 -11 -45 -27 -61 -43c-29 -32 -36 -50 -36 -94c0 -36 13 -51 40 -63c27 -11 46 -3 57 3zM35 120c0 -15 11 -44 30 -63c20 -19 45 -30 73 -30c47 0 82 9 106 18c-5 3 -10 3 -17 7c-40 15 -61 55 -61 92c0 52 9 75 44 115c1 1 3 1 4 4l-75 -24c-73 -29 -104 -64 -104 -119
zM295 476c40 -48 37 -112 37 -116v-327h57h65v334c0 1 3 26 -26 58c-26 27 -70 44 -133 51zM316 685c0 52 37 91 86 91c46 0 86 -39 86 -91c0 -48 -40 -89 -86 -89c-49 0 -86 41 -86 89zM457 685c0 35 -25 60 -55 60c-31 0 -55 -25 -55 -60c0 -32 24 -58 55 -58
c30 0 55 26 55 58zM53 685c0 52 38 91 85 91c46 0 87 -39 87 -91c0 -48 -41 -89 -87 -89c-47 0 -85 41 -85 89zM194 685c0 35 -26 60 -56 60c-29 0 -55 -25 -55 -60c0 -32 26 -58 55 -58c30 0 56 26 56 58z" />
    <glyph glyph-name="atilde" unicode="&#xe3;" horiz-adv-x="596" 
d="M297 354v-32l-169 -52c-54 -22 -126 -59 -126 -150c0 -24 15 -62 40 -87s59 -40 96 -40c81 -4 132 34 159 34v-10c0 -8 8 -17 17 -17h157h81c9 0 17 9 17 17c0 9 -8 16 -17 16h-65v315c0 1 5 52 -33 94c-40 45 -105 66 -197 66c-14 0 -14 0 -46 -2
c-85 -10 -124 -30 -153 -59c-16 -19 -24 -35 -24 -55c0 -47 38 -84 87 -84c46 0 87 37 87 84c0 32 -21 59 -46 71c17 5 38 9 61 10c17 0 31 -5 44 -16c17 -19 25 -44 27 -69c3 -21 3 -50 3 -34zM121 342c-28 0 -51 22 -51 49c0 26 23 48 51 48s51 -22 51 -48
c0 -27 -23 -49 -51 -49zM297 281v-197c-11 -6 -30 -14 -57 -3c-27 12 -40 27 -40 63c0 44 7 62 36 94c16 16 41 32 61 43zM35 120c0 55 31 90 104 119l75 24c-1 -3 -3 -3 -4 -4c-35 -40 -44 -63 -44 -115c0 -37 21 -77 61 -92c7 -4 12 -4 17 -7c-24 -9 -59 -18 -106 -18
c-28 0 -53 11 -73 30c-19 19 -30 48 -30 63zM295 476c63 -7 107 -24 133 -51c29 -32 26 -57 26 -58v-334h-65h-57v327c0 4 3 68 -37 116zM525 796c7 -2 11 -10 11 -17c-4 -63 -43 -183 -164 -183c-57 0 -98 26 -134 49c-29 17 -53 33 -81 33c-59 0 -104 -75 -104 -75
c-4 -5 -9 -8 -16 -8c-1 0 -3 0 -5 1c-8 4 -12 13 -9 21c1 7 60 179 160 179c52 0 95 -26 132 -49c30 -19 57 -33 82 -33c46 0 96 55 110 76c5 6 11 8 18 6zM372 628c73 0 106 54 121 99c-26 -24 -60 -46 -96 -46c-34 0 -66 18 -98 38c-36 21 -72 43 -116 43
c-35 0 -66 -34 -90 -71c20 12 40 20 64 20c37 0 67 -18 99 -39c33 -21 68 -44 116 -44z" />
    <glyph glyph-name="aring" unicode="&#xe5;" horiz-adv-x="596" 
d="M297 354v-32l-169 -52c-54 -22 -126 -59 -126 -150c0 -24 15 -62 40 -87s59 -40 96 -40c81 -4 132 34 159 34v-10c0 -8 8 -17 17 -17h157h81c9 0 17 9 17 17c0 9 -8 16 -17 16h-65v315c0 1 5 52 -33 94c-40 45 -105 66 -197 66c-14 0 -14 0 -46 -2
c-85 -10 -124 -30 -153 -59c-16 -19 -24 -35 -24 -55c0 -47 38 -84 87 -84c46 0 87 37 87 84c0 32 -21 59 -46 71c17 5 38 9 61 10c17 0 31 -5 44 -16c17 -19 25 -44 27 -69c3 -21 3 -50 3 -34zM121 342c-28 0 -51 22 -51 49c0 26 23 48 51 48s51 -22 51 -48
c0 -27 -23 -49 -51 -49zM297 281v-197c-11 -6 -30 -14 -57 -3c-27 12 -40 27 -40 63c0 44 7 62 36 94c16 16 41 32 61 43zM35 120c0 55 31 90 104 119l75 24c-1 -3 -3 -3 -4 -4c-35 -40 -44 -63 -44 -115c0 -37 21 -77 61 -92c7 -4 12 -4 17 -7c-24 -9 -59 -18 -106 -18
c-28 0 -53 11 -73 30c-19 19 -30 48 -30 63zM295 476c63 -7 107 -24 133 -51c29 -32 26 -57 26 -58v-334h-65h-57v327c0 4 3 68 -37 116zM288 822c75 0 137 -51 137 -112c0 -62 -62 -113 -137 -113c-74 0 -136 51 -136 113c0 61 62 112 136 112zM288 630c55 0 100 36 100 79
c0 42 -45 79 -100 79s-100 -37 -100 -79c0 -43 45 -79 100 -79z" />
    <glyph glyph-name="ccedilla" unicode="&#xe7;" horiz-adv-x="531" 
d="M343 372c0 43 37 78 79 79c-21 14 -54 20 -91 23c-48 -3 -99 -70 -99 -223c0 -79 31 -140 84 -164c45 -21 99 -10 144 28c10 13 20 27 28 40c4 9 13 12 22 8c8 -4 9 -14 6 -21c-45 -89 -136 -149 -228 -149c-140 0 -253 117 -253 258c0 143 113 257 253 257
c77 0 181 -10 215 -103c5 -11 7 -22 7 -33c0 -43 -38 -80 -83 -80s-84 37 -84 80zM303 59c-65 28 -103 100 -103 192c0 114 27 185 65 223c-112 -11 -199 -106 -199 -223c0 -123 100 -225 222 -225c28 0 55 7 80 18h-5c-21 0 -41 5 -60 15zM427 419c-28 0 -52 -20 -52 -47
c0 -25 24 -49 52 -49s51 24 51 49c0 3 0 7 -1 9h-1c0 3 -1 8 -2 10c-8 17 -26 28 -47 28zM433 -82c-37 35 -107 36 -136 36v46c0 8 -6 15 -14 15c-9 0 -15 -7 -15 -15v-124v-1v-2c1 0 1 -1 1 -3l2 -2c0 -1 0 -1 1 -2s2 -1 2 -1c1 -1 3 -2 3 -3h2c1 0 3 -1 4 -1c0 1 0 1 1 1
v-1c4 0 23 1 31 -7c3 -1 4 -5 4 -12c0 -12 0 -49 -119 -49c-8 0 -15 -7 -15 -16c0 -8 7 -15 15 -15h9h8c65 0 119 0 162 11c52 13 78 43 78 90c0 23 -8 41 -24 55zM371 -197c-11 -3 -24 -5 -39 -6c11 11 18 25 18 45c0 13 -6 26 -15 34c-11 11 -26 15 -38 16v31
c31 3 88 -2 115 -26c9 -9 14 -21 14 -34c0 -32 -15 -49 -55 -60z" />
    <glyph glyph-name="eacute" unicode="&#xe9;" horiz-adv-x="572" 
d="M407 23c-37 -20 -78 -30 -123 -30c-147 0 -267 117 -267 257c0 146 117 258 262 258c78 0 190 -14 233 -132c19 -65 13 -111 13 -111c-3 -8 -8 -15 -16 -15h-162h-133c0 -95 35 -170 88 -199c27 -14 56 -15 87 -2c13 7 19 10 20 10c36 21 65 52 86 88c4 8 13 11 21 8
c7 -6 9 -14 6 -23c-20 -36 -48 -67 -83 -90c-5 -4 -15 -10 -32 -19zM279 475c-15 -5 -59 -38 -64 -193h116c-4 151 -42 188 -52 193zM481 367c-24 65 -73 98 -158 106c19 -30 38 -85 41 -191h130c1 17 -2 46 -13 85zM49 250c0 -123 104 -226 235 -226
c-64 37 -101 122 -101 226c0 123 22 185 44 221c-104 -24 -178 -110 -178 -221zM208 652c51 95 80 151 91 160c12 12 27 18 44 18c13 0 34 -4 54 -25c21 -20 24 -40 24 -53c0 -18 -6 -32 -18 -43c-11 -15 -152 -90 -194 -111c-1 -1 -4 -2 -8 -2c-8 0 -14 6 -14 14
c0 4 1 6 2 10c3 3 10 15 19 32zM383 731c3 3 8 10 8 21s-6 22 -15 31c-11 11 -22 16 -33 16c-9 0 -17 -2 -22 -7c-11 -11 -56 -98 -81 -143c68 37 135 74 143 82z" />
    <glyph glyph-name="egrave" unicode="&#xe8;" horiz-adv-x="572" 
d="M407 23c17 9 27 15 32 19c35 23 63 54 83 90c3 9 1 17 -6 23c-8 3 -17 0 -21 -8c-21 -36 -50 -67 -86 -88c-1 0 -7 -3 -20 -10c-31 -13 -60 -12 -87 2c-53 29 -88 104 -88 199h133h162c8 0 13 7 16 15c0 0 6 46 -13 111c-43 118 -155 132 -233 132
c-145 0 -262 -112 -262 -258c0 -140 120 -257 267 -257c45 0 86 10 123 30zM279 475c10 -5 48 -42 52 -193h-116c5 155 49 188 64 193zM481 367c11 -39 14 -68 13 -85h-130c-3 106 -22 161 -41 191c85 -8 134 -41 158 -106zM49 250c0 111 74 197 178 221
c-22 -36 -44 -98 -44 -221c0 -104 37 -189 101 -226c-131 0 -235 103 -235 226zM359 652c9 -17 16 -29 19 -32c1 -3 2 -6 2 -9c0 -8 -6 -15 -14 -15c-4 0 -6 0 -8 2c-42 23 -178 95 -192 110c-10 10 -17 25 -17 42c0 13 4 33 24 52c19 21 40 25 54 25c16 0 32 -6 43 -17
c9 -10 40 -66 89 -158zM187 729c8 -8 73 -44 141 -80c-24 44 -70 131 -80 140c-5 6 -14 8 -21 8c-11 0 -23 -5 -34 -16c-8 -9 -14 -20 -14 -31c0 -10 5 -18 8 -21z" />
    <glyph glyph-name="ecircumflex" unicode="&#xea;" horiz-adv-x="572" 
d="M407 23c17 9 27 15 32 19c35 23 63 54 83 90c3 9 1 17 -6 23c-8 3 -17 0 -21 -8c-21 -36 -50 -67 -86 -88c-1 0 -7 -3 -20 -10c-31 -13 -60 -12 -87 2c-53 29 -88 104 -88 199h133h162c8 0 13 7 16 15c0 0 6 46 -13 111c-43 118 -155 132 -233 132
c-145 0 -262 -112 -262 -258c0 -140 120 -257 267 -257c45 0 86 10 123 30zM279 475c10 -5 48 -42 52 -193h-116c5 155 49 188 64 193zM481 367c11 -39 14 -68 13 -85h-130c-3 106 -22 161 -41 191c85 -8 134 -41 158 -106zM49 250c0 111 74 197 178 221
c-22 -36 -44 -98 -44 -221c0 -104 37 -189 101 -226c-131 0 -235 103 -235 226zM288 704l-182 -105c-5 -3 -13 -2 -19 3c-2 3 -3 7 -3 11c0 3 1 5 3 8c12 18 126 180 139 193c27 34 63 32 65 32c0 0 40 3 66 -32l138 -193c4 -5 4 -13 -1 -19c-4 -5 -13 -6 -17 -3zM249 796
c-8 -9 -59 -79 -99 -137l131 76c4 2 10 2 14 0l136 -77c-37 53 -90 127 -98 140c-15 20 -41 19 -42 19c-2 0 -24 0 -42 -21z" />
    <glyph glyph-name="edieresis" unicode="&#xeb;" horiz-adv-x="572" 
d="M407 23c-37 -20 -78 -30 -123 -30c-147 0 -267 117 -267 257c0 146 117 258 262 258c78 0 190 -14 233 -132c19 -65 13 -111 13 -111c-3 -8 -8 -15 -16 -15h-162h-133c0 -95 35 -170 88 -199c27 -14 56 -15 87 -2c13 7 19 10 20 10c36 21 65 52 86 88c4 8 13 11 21 8
c7 -6 9 -14 6 -23c-20 -36 -48 -67 -83 -90c-5 -4 -15 -10 -32 -19zM279 475c-15 -5 -59 -38 -64 -193h116c-4 151 -42 188 -52 193zM481 367c-24 65 -73 98 -158 106c19 -30 38 -85 41 -191h130c1 17 -2 46 -13 85zM49 250c0 -123 104 -226 235 -226
c-64 37 -101 122 -101 226c0 123 22 185 44 221c-104 -24 -178 -110 -178 -221zM318 685c0 52 37 91 86 91c46 0 86 -39 86 -91c0 -48 -40 -89 -86 -89c-49 0 -86 41 -86 89zM459 685c0 35 -25 60 -55 60c-31 0 -55 -25 -55 -60c0 -32 24 -58 55 -58c30 0 55 26 55 58z
M55 685c0 52 38 91 85 91c46 0 87 -39 87 -91c0 -48 -41 -89 -87 -89c-47 0 -85 41 -85 89zM196 685c0 35 -26 60 -56 60c-29 0 -55 -25 -55 -60c0 -32 26 -58 55 -58c30 0 56 26 56 58z" />
    <glyph glyph-name="iacute" unicode="&#xed;" horiz-adv-x="354" 
d="M39 0c-10 0 -16 7 -16 15s6 16 16 16h56v439h-57c-10 0 -16 7 -16 14c0 10 6 17 16 17h73h97h55c8 0 16 -7 16 -17v-453h51c9 0 16 -8 16 -16s-7 -15 -16 -15h-67h-152h-72zM126 470v-439h123v439h-41h-82zM86 653c51 95 80 151 91 160c12 12 27 18 44 18
c13 0 34 -4 54 -25c21 -20 24 -40 24 -53c0 -18 -6 -32 -18 -43c-11 -15 -152 -90 -194 -111c-1 -1 -4 -2 -8 -2c-8 0 -14 6 -14 14c0 4 1 6 2 10c3 3 10 15 19 32zM261 732c3 3 8 10 8 21s-6 22 -15 31c-11 11 -22 16 -33 16c-9 0 -17 -2 -22 -7c-11 -11 -56 -98 -81 -143
c68 37 135 74 143 82z" />
    <glyph glyph-name="igrave" unicode="&#xec;" horiz-adv-x="354" 
d="M39 0c-10 0 -16 7 -16 15s6 16 16 16h56v439h-57c-10 0 -16 7 -16 14c0 10 6 17 16 17h73h97h55c8 0 16 -7 16 -17v-453h51c9 0 16 -8 16 -16s-7 -15 -16 -15h-67h-152h-72zM126 470v-439h123v439h-41h-82zM255 651c9 -17 16 -29 19 -32c1 -3 2 -6 2 -9
c0 -8 -6 -15 -14 -15c-4 0 -6 0 -8 2c-42 23 -178 95 -192 110c-10 10 -17 25 -17 42c0 13 4 33 24 52c19 21 40 25 54 25c16 0 32 -6 43 -17c9 -10 40 -66 89 -158zM83 728c8 -8 73 -44 141 -80c-24 44 -70 131 -80 140c-5 6 -14 8 -21 8c-11 0 -23 -5 -34 -16
c-8 -9 -14 -20 -14 -31c0 -10 5 -18 8 -21z" />
    <glyph glyph-name="icircumflex" unicode="&#xee;" horiz-adv-x="354" 
d="M39 0c-10 0 -16 7 -16 15s6 16 16 16h56v439h-57c-10 0 -16 7 -16 14c0 10 6 17 16 17h73h97h55c8 0 16 -7 16 -17v-453h51c9 0 16 -8 16 -16s-7 -15 -16 -15h-67h-152h-72zM126 470v-439h123v439h-41h-82zM183 704l-182 -105c-5 -3 -13 -2 -19 3c-2 3 -3 7 -3 11
c0 3 1 5 3 8c12 18 126 180 139 193c27 34 63 32 65 32c0 0 40 3 66 -32c12 -16 137 -191 138 -193c4 -5 4 -13 -1 -19c-4 -5 -13 -6 -17 -3zM144 796c-8 -9 -59 -79 -99 -137l131 76c4 2 10 2 14 0l136 -77c-37 53 -90 127 -98 140c-15 20 -41 19 -42 19
c-2 0 -24 0 -42 -21z" />
    <glyph glyph-name="idieresis" unicode="&#xef;" horiz-adv-x="354" 
d="M39 0c-10 0 -16 7 -16 15s6 16 16 16h56v439h-57c-10 0 -16 7 -16 14c0 10 6 17 16 17h73h97h55c8 0 16 -7 16 -17v-453h51c9 0 16 -8 16 -16s-7 -15 -16 -15h-67h-152h-72zM126 470v-439h123v439h-41h-82z" />
    <glyph glyph-name="ntilde" unicode="&#xf1;" horiz-adv-x="690" 
d="M123 501h-75c-9 0 -17 -7 -17 -15c0 -9 8 -17 17 -17h59v-436h-52c-9 0 -17 -7 -17 -16s8 -17 17 -17h68h152h61c8 0 16 8 16 17s-8 16 -16 16h-43v369c13 8 49 34 91 34c11 0 20 -3 26 -10c19 -22 19 -74 19 -128v-265h-42c-9 0 -17 -7 -17 -16s8 -17 17 -17h59h153h65
c9 0 17 8 17 17s-8 16 -17 16h-49v205v33c0 84 1 155 -41 197c-28 27 -67 40 -126 40c-74 0 -126 -34 -155 -60v38c0 8 -7 15 -18 15h-57h-95zM448 476c49 0 83 -10 102 -31c16 -16 25 -40 29 -71c2 -15 3 -31 3 -48c1 -17 1 -114 0 -293h-121v265c0 45 -1 74 -3 87
c-1 13 -4 25 -9 36c-4 11 -10 21 -17 29c-11 9 -25 16 -42 17c17 5 38 9 58 9zM139 469h79h42v-436h-121v436zM580 797c7 -2 11 -10 11 -17c-4 -63 -43 -183 -164 -183c-57 0 -98 26 -134 49c-29 17 -53 33 -81 33c-59 0 -104 -75 -104 -75c-4 -5 -9 -8 -16 -8
c-1 0 -3 0 -5 1c-8 4 -12 13 -9 21c1 7 60 179 160 179c52 0 95 -26 132 -49c30 -19 57 -33 82 -33c46 0 96 55 110 76c5 6 11 8 18 6zM427 629c73 0 106 54 121 99c-26 -24 -60 -46 -96 -46c-34 0 -66 18 -98 38c-36 21 -72 43 -116 43c-35 0 -66 -34 -90 -71
c20 12 40 20 64 20c37 0 67 -18 99 -39c33 -21 68 -44 116 -44z" />
    <glyph glyph-name="oacute" unicode="&#xf3;" horiz-adv-x="636" 
d="M299 -7c-172 0 -282 100 -282 257c0 155 112 258 282 258c168 0 282 -103 282 -258c0 -157 -111 -257 -282 -257zM215 250c0 -104 36 -225 84 -225c50 0 82 92 82 225c0 108 -34 226 -82 226s-84 -93 -84 -226zM549 250c0 116 -72 201 -189 220c38 -54 53 -149 53 -220
c0 -101 -16 -177 -47 -218c114 19 183 103 183 218zM231 469c-111 -21 -183 -103 -183 -219c0 -119 72 -199 190 -220c-41 54 -54 161 -54 220c0 101 16 176 47 219zM237 652c51 95 80 151 91 160c12 12 27 18 44 18c13 0 34 -4 54 -25c21 -20 24 -40 24 -53
c0 -18 -6 -32 -18 -43c-11 -15 -152 -90 -194 -111c-1 -1 -4 -2 -8 -2c-8 0 -14 6 -14 14c0 4 1 6 2 10c3 3 10 15 19 32zM412 731c3 3 8 10 8 21s-6 22 -15 31c-11 11 -22 16 -33 16c-9 0 -17 -2 -22 -7c-11 -11 -56 -98 -81 -143c68 37 135 74 143 82z" />
    <glyph glyph-name="ograve" unicode="&#xf2;" horiz-adv-x="636" 
d="M299 -7c171 0 282 100 282 257c0 155 -114 258 -282 258c-170 0 -282 -103 -282 -258c0 -157 110 -257 282 -257zM215 250c0 133 36 226 84 226s82 -118 82 -226c0 -133 -32 -225 -82 -225c-48 0 -84 121 -84 225zM549 250c0 -115 -69 -199 -183 -218
c31 41 47 117 47 218c0 71 -15 166 -53 220c117 -19 189 -104 189 -220zM231 469c-31 -43 -47 -118 -47 -219c0 -59 13 -166 54 -220c-118 21 -190 101 -190 220c0 116 72 198 183 219zM386 652c9 -17 16 -29 19 -32c1 -3 2 -6 2 -9c0 -8 -6 -15 -14 -15c-4 0 -6 0 -8 2
c-42 23 -178 95 -192 110c-10 10 -17 25 -17 42c0 13 4 33 24 52c19 21 40 25 54 25c16 0 32 -6 43 -17c9 -10 40 -66 89 -158zM214 729c8 -8 73 -44 141 -80c-24 44 -70 131 -80 140c-5 6 -14 8 -21 8c-11 0 -23 -5 -34 -16c-8 -9 -14 -20 -14 -31c0 -10 5 -18 8 -21z" />
    <glyph glyph-name="ocircumflex" unicode="&#xf4;" horiz-adv-x="636" 
d="M299 -7c171 0 282 100 282 257c0 155 -114 258 -282 258c-170 0 -282 -103 -282 -258c0 -157 110 -257 282 -257zM215 250c0 133 36 226 84 226s82 -118 82 -226c0 -133 -32 -225 -82 -225c-48 0 -84 121 -84 225zM549 250c0 -115 -69 -199 -183 -218
c31 41 47 117 47 218c0 71 -15 166 -53 220c117 -19 189 -104 189 -220zM231 469c-31 -43 -47 -118 -47 -219c0 -59 13 -166 54 -220c-118 21 -190 101 -190 220c0 116 72 198 183 219zM315 705l-182 -105c-5 -3 -13 -2 -19 3c-2 3 -3 7 -3 11c0 3 1 5 3 8
c12 18 126 180 139 193c27 34 63 32 65 32c0 0 40 3 66 -32l138 -193c4 -5 4 -13 -1 -19c-4 -5 -13 -6 -17 -3zM276 797c-8 -9 -59 -79 -99 -137l131 76c4 2 10 2 14 0l136 -77c-37 53 -90 127 -98 140c-15 20 -41 19 -42 19c-2 0 -24 0 -42 -21z" />
    <glyph glyph-name="odieresis" unicode="&#xf6;" horiz-adv-x="636" 
d="M299 -7c-172 0 -282 100 -282 257c0 155 112 258 282 258c168 0 282 -103 282 -258c0 -157 -111 -257 -282 -257zM215 250c0 -104 36 -225 84 -225c50 0 82 92 82 225c0 108 -34 226 -82 226s-84 -93 -84 -226zM549 250c0 116 -72 201 -189 220c38 -54 53 -149 53 -220
c0 -101 -16 -177 -47 -218c114 19 183 103 183 218zM231 469c-111 -21 -183 -103 -183 -219c0 -119 72 -199 190 -220c-41 54 -54 161 -54 220c0 101 16 176 47 219zM345 685c0 52 37 91 86 91c46 0 86 -39 86 -91c0 -48 -40 -89 -86 -89c-49 0 -86 41 -86 89zM486 685
c0 35 -25 60 -55 60c-31 0 -55 -25 -55 -60c0 -32 24 -58 55 -58c30 0 55 26 55 58zM82 685c0 52 38 91 85 91c46 0 87 -39 87 -91c0 -48 -41 -89 -87 -89c-47 0 -85 41 -85 89zM223 685c0 35 -26 60 -56 60c-29 0 -55 -25 -55 -60c0 -32 26 -58 55 -58c30 0 56 26 56 58z
" />
    <glyph glyph-name="otilde" unicode="&#xf5;" horiz-adv-x="636" 
d="M299 -7c171 0 282 100 282 257c0 155 -114 258 -282 258c-170 0 -282 -103 -282 -258c0 -157 110 -257 282 -257zM215 250c0 133 36 226 84 226s82 -118 82 -226c0 -133 -32 -225 -82 -225c-48 0 -84 121 -84 225zM549 250c0 -115 -69 -199 -183 -218
c31 41 47 117 47 218c0 71 -15 166 -53 220c117 -19 189 -104 189 -220zM231 469c-31 -43 -47 -118 -47 -219c0 -59 13 -166 54 -220c-118 21 -190 101 -190 220c0 116 72 198 183 219zM554 796c7 -2 11 -10 11 -17c-4 -63 -43 -183 -164 -183c-57 0 -98 26 -134 49
c-29 17 -53 33 -81 33c-59 0 -104 -75 -104 -75c-4 -5 -9 -8 -16 -8c-1 0 -3 0 -5 1c-8 4 -12 13 -9 21c1 7 60 179 160 179c52 0 95 -26 132 -49c30 -19 57 -33 82 -33c46 0 96 55 110 76c5 6 11 8 18 6zM401 628c73 0 106 54 121 99c-26 -24 -60 -46 -96 -46
c-34 0 -66 18 -98 38c-36 21 -72 43 -116 43c-35 0 -66 -34 -90 -71c20 12 40 20 64 20c37 0 67 -18 99 -39c33 -21 68 -44 116 -44z" />
    <glyph glyph-name="uacute" unicode="&#xfa;" horiz-adv-x="677" 
d="M659 17c0 -11 -8 -17 -16 -17h-77h-98h-58c-11 0 -16 6 -16 17v49c-32 -32 -84 -73 -160 -73c-57 0 -99 13 -125 39c-42 45 -44 116 -41 201v44v191h-61c-9 0 -16 9 -16 18s7 15 16 15h77h104h53c9 0 15 -6 15 -15v-254v-34c0 -47 1 -91 17 -110c4 -4 10 -7 25 -7
c44 0 82 28 96 39v348h-64c-9 0 -17 9 -17 18s8 15 17 15h80h125h31c9 0 16 -6 16 -15v-453h61c8 0 16 -8 16 -16zM234 26c33 0 63 11 86 24c-7 -1 -14 -3 -22 -3c-19 0 -35 6 -48 18c-27 27 -26 77 -26 133v34v236h-36h-86v-191c0 -16 -1 -30 -1 -45
c-3 -78 -3 -144 31 -175c19 -21 53 -31 102 -31zM468 33h82v435h-15h-108v-435h41zM252 653c51 95 80 151 91 160c12 12 27 18 44 18c13 0 34 -4 54 -25c21 -20 24 -40 24 -53c0 -18 -6 -32 -18 -43c-11 -15 -152 -90 -194 -111c-1 -1 -4 -2 -8 -2c-8 0 -14 6 -14 14
c0 4 1 6 2 10c3 3 10 15 19 32zM427 732c3 3 8 10 8 21s-6 22 -15 31c-11 11 -22 16 -33 16c-9 0 -17 -2 -22 -7c-11 -11 -56 -98 -81 -143c68 37 135 74 143 82z" />
    <glyph glyph-name="ugrave" unicode="&#xf9;" horiz-adv-x="677" 
d="M659 17c0 8 -8 16 -16 16h-61v453c0 9 -7 15 -16 15h-31h-125h-80c-9 0 -17 -6 -17 -15s8 -18 17 -18h64v-348c-14 -11 -52 -39 -96 -39c-15 0 -21 3 -25 7c-16 19 -17 63 -17 110v34v254c0 9 -6 15 -15 15h-53h-104h-77c-9 0 -16 -6 -16 -15s7 -18 16 -18h61v-191v-44
c-3 -85 -1 -156 41 -201c26 -26 68 -39 125 -39c76 0 128 41 160 73v-49c0 -11 5 -17 16 -17h58h98h77c8 0 16 6 16 17zM234 26c-49 0 -83 10 -102 31c-34 31 -34 97 -31 175c0 15 1 29 1 45v191h86h36v-236v-34c0 -56 -1 -106 26 -133c13 -12 29 -18 48 -18c8 0 15 2 22 3
c-23 -13 -53 -24 -86 -24zM550 33h-82h-41v435h108h15v-435zM399 652c9 -17 16 -29 19 -32c1 -3 2 -6 2 -9c0 -8 -6 -15 -14 -15c-4 0 -6 0 -8 2c-42 23 -178 95 -192 110c-10 10 -17 25 -17 42c0 13 4 33 24 52c19 21 40 25 54 25c16 0 32 -6 43 -17c9 -10 40 -66 89 -158z
M227 729c8 -8 73 -44 141 -80c-24 44 -70 131 -80 140c-5 6 -14 8 -21 8c-11 0 -23 -5 -34 -16c-8 -9 -14 -20 -14 -31c0 -10 5 -18 8 -21z" />
    <glyph glyph-name="ucircumflex" unicode="&#xfb;" horiz-adv-x="677" 
d="M659 17c0 8 -8 16 -16 16h-61v453c0 9 -7 15 -16 15h-31h-125h-80c-9 0 -17 -6 -17 -15s8 -18 17 -18h64v-348c-14 -11 -52 -39 -96 -39c-15 0 -21 3 -25 7c-16 19 -17 63 -17 110v34v254c0 9 -6 15 -15 15h-53h-104h-77c-9 0 -16 -6 -16 -15s7 -18 16 -18h61v-191v-44
c-3 -85 -1 -156 41 -201c26 -26 68 -39 125 -39c76 0 128 41 160 73v-49c0 -11 5 -17 16 -17h58h98h77c8 0 16 6 16 17zM234 26c-49 0 -83 10 -102 31c-34 31 -34 97 -31 175c0 15 1 29 1 45v191h86h36v-236v-34c0 -56 -1 -106 26 -133c13 -12 29 -18 48 -18c8 0 15 2 22 3
c-23 -13 -53 -24 -86 -24zM550 33h-82h-41v435h108h15v-435zM328 705l-182 -105c-5 -3 -13 -2 -19 3c-2 3 -3 7 -3 11c0 3 1 5 3 8c12 18 126 180 139 193c27 34 63 32 65 32c0 0 40 3 66 -32l138 -193c4 -5 4 -13 -1 -19c-4 -5 -13 -6 -17 -3zM289 797
c-8 -9 -59 -79 -99 -137l131 76c4 2 10 2 14 0l136 -77c-37 53 -90 127 -98 140c-15 20 -41 19 -42 19c-2 0 -24 0 -42 -21z" />
    <glyph glyph-name="udieresis" unicode="&#xfc;" horiz-adv-x="677" 
d="M659 17c0 -11 -8 -17 -16 -17h-77h-98h-58c-11 0 -16 6 -16 17v49c-32 -32 -84 -73 -160 -73c-57 0 -99 13 -125 39c-42 45 -44 116 -41 201v44v191h-61c-9 0 -16 9 -16 18s7 15 16 15h77h104h53c9 0 15 -6 15 -15v-254v-34c0 -47 1 -91 17 -110c4 -4 10 -7 25 -7
c44 0 82 28 96 39v348h-64c-9 0 -17 9 -17 18s8 15 17 15h80h125h31c9 0 16 -6 16 -15v-453h61c8 0 16 -8 16 -16zM234 26c33 0 63 11 86 24c-7 -1 -14 -3 -22 -3c-19 0 -35 6 -48 18c-27 27 -26 77 -26 133v34v236h-36h-86v-191c0 -16 -1 -30 -1 -45
c-3 -78 -3 -144 31 -175c19 -21 53 -31 102 -31zM468 33h82v435h-15h-108v-435h41zM358 685c0 52 37 91 86 91c46 0 86 -39 86 -91c0 -48 -40 -89 -86 -89c-49 0 -86 41 -86 89zM499 685c0 35 -25 60 -55 60c-31 0 -55 -25 -55 -60c0 -32 24 -58 55 -58c30 0 55 26 55 58z
M95 685c0 52 38 91 85 91c46 0 87 -39 87 -91c0 -48 -41 -89 -87 -89c-47 0 -85 41 -85 89zM236 685c0 35 -26 60 -56 60c-29 0 -55 -25 -55 -60c0 -32 26 -58 55 -58c30 0 56 26 56 58z" />
    <glyph glyph-name="dagger" unicode="&#x2020;" horiz-adv-x="482" 
d="M445 517c6 0 11 -5 11 -11s-5 -11 -11 -11h-406c-6 0 -11 5 -11 11s5 11 11 11h406zM230 707c0 6 6 11 12 11s11 -5 11 -11v-558c0 -5 -5 -11 -11 -11s-12 6 -12 11v558z" />
    <glyph glyph-name="degree" unicode="&#xb0;" horiz-adv-x="420" 
d="M210 392c-93 0 -168 73 -168 162s75 162 168 162s168 -73 168 -162s-75 -162 -168 -162zM151 554c0 -78 32 -133 59 -133s59 55 59 133s-32 133 -59 133s-59 -55 -59 -133zM350 554c0 53 -34 99 -81 120l6 -9c15 -30 22 -70 22 -111s-7 -81 -22 -111l-6 -9
c47 22 81 67 81 120zM150 674c-46 -21 -79 -67 -79 -120s33 -98 79 -120c-1 3 -3 6 -4 9c-15 30 -23 70 -23 111s8 81 23 111c1 3 3 6 4 9z" />
    <glyph glyph-name="sterling" unicode="&#xa3;" horiz-adv-x="690" 
d="M613 157c9 0 19 -6 18 -16v-124c0 -10 -7 -17 -18 -17h-547c-10 0 -16 7 -16 17v83c0 19 9 18 13 20c3 2 87 26 87 190v7h-68c-8 0 -16 8 -16 16c0 9 8 16 16 16h68v92c0 4 -4 120 74 200c46 50 109 75 194 75c197 0 207 -125 207 -149c0 -50 -43 -93 -95 -93
c-54 0 -98 43 -98 95c0 53 47 91 99 93c-27 12 -63 21 -113 21c-10 0 -19 -3 -27 -12c-39 -41 -42 -168 -40 -213v-109h166c8 0 16 -7 16 -16c0 -8 -8 -16 -16 -16h-166v-8c0 -71 -34 -118 -80 -152h342zM530 507c35 0 62 28 62 60c0 35 -27 63 -62 63
c-36 0 -65 -28 -65 -61c0 -34 29 -62 65 -62zM183 310c0 -92 -23 -145 -51 -178c77 19 187 65 187 177v149c-1 5 -7 149 36 220c-44 -10 -80 -30 -109 -59c-66 -69 -63 -176 -63 -177v-132zM597 32v93h-383c-51 -24 -106 -33 -132 -37v-56h515z" />
    <glyph glyph-name="section" unicode="&#xa7;" horiz-adv-x="563" 
d="M513 304c0 -88 -72 -117 -124 -131c50 -29 98 -70 98 -150c0 -72 -50 -112 -103 -131c-51 -20 -109 -23 -149 -23c-65 0 -114 14 -147 43c-8 13 -26 12 -35 67v2v1c0 44 35 80 80 80c46 0 81 -35 81 -81c0 -31 -18 -59 -46 -71c32 -8 76 -11 136 -3c6 6 22 51 22 92
c0 44 -24 59 -117 93l-18 9c-74 30 -152 68 -152 170c0 72 38 122 109 145c-52 27 -86 65 -86 136c0 93 92 164 223 164c80 -3 148 -23 180 -56c0 0 19 -15 19 -52c0 -43 -35 -81 -80 -81s-80 38 -80 81c0 29 14 54 37 67c-19 5 -22 6 -47 4c-19 -1 -47 -13 -66 -33
c-17 -19 -27 -44 -27 -68c0 -16 14 -29 35 -44c11 -7 23 -15 37 -22c28 -13 75 -33 98 -45c59 -26 122 -69 122 -163zM133 29c-25 0 -46 -20 -46 -47v-5c1 -4 4 -15 9 -24c9 -11 22 -17 37 -17c27 0 47 20 47 45c0 28 -20 48 -47 48zM404 562c27 0 47 21 47 46
c0 11 -3 18 -8 26l-6 7c-9 9 -20 14 -33 14c-24 0 -47 -20 -47 -47c0 -25 23 -46 47 -46zM326 201c10 13 28 48 28 79c0 46 -34 64 -129 101c-25 -20 -28 -63 -28 -85c0 -16 15 -32 36 -47c31 -21 86 -46 93 -48zM455 23c0 87 -73 117 -134 144l-26 11
c-80 35 -132 71 -132 118c0 39 8 71 25 94c-57 -8 -116 -37 -116 -119c0 -74 52 -105 132 -140l19 -7c89 -38 138 -55 138 -125c0 -21 -5 -55 -18 -86c45 11 112 39 112 110zM367 202c43 8 112 31 112 102c0 45 -19 77 -44 98c-25 23 -56 35 -104 56
c-90 43 -140 67 -143 120c0 36 15 74 44 99c-75 -13 -138 -55 -138 -125c0 -35 12 -59 32 -79s42 -31 99 -56l11 -5c93 -37 151 -60 151 -132c0 -27 -9 -55 -20 -78z" />
    <glyph glyph-name="bullet" unicode="&#x2022;" horiz-adv-x="437" 
d="M220 473c96 0 175 -78 175 -174c0 -97 -79 -175 -175 -175s-174 78 -174 175c0 96 78 174 174 174zM220 159c76 0 139 63 139 140c0 76 -63 139 -139 139c-77 0 -140 -63 -140 -139c0 -77 63 -140 140 -140z" />
    <glyph glyph-name="paragraph" unicode="&#xb6;" horiz-adv-x="549" 
d="M521 709c8 0 15 -6 15 -15s-7 -15 -15 -15h-66v-769c0 -9 -7 -16 -16 -16s-16 7 -16 16v769h-78v-769c0 -9 -7 -16 -16 -16s-16 7 -16 16v389h-42c-26 0 -92 4 -149 36c-27 17 -49 39 -64 63c-18 30 -27 65 -27 105c0 88 42 137 77 164c37 26 88 42 136 42h277zM313 330
v349h-69c-68 0 -182 -38 -182 -176c0 -165 173 -173 209 -173h42z" />
    <glyph glyph-name="germandbls" unicode="&#xdf;" horiz-adv-x="658" 
d="M527 36c-38 -24 -86 -36 -141 -36h-142h-1h-219c-8 0 -16 7 -16 15c0 9 8 17 16 17h55v499c0 29 4 84 36 136c21 32 49 59 84 76c42 22 94 33 155 33c53 0 99 -7 136 -23c30 -13 54 -32 72 -55c30 -39 32 -80 32 -87c0 -37 -12 -69 -34 -94c-18 -21 -44 -38 -76 -50
c-10 -4 -20 -7 -30 -9c13 -3 25 -8 36 -13c41 -17 73 -40 98 -70c42 -52 46 -106 46 -122c0 -17 -3 -78 -33 -135c-18 -35 -43 -62 -74 -82zM537 679c-25 32 -67 54 -123 62c33 -45 30 -121 29 -133c1 -9 3 -81 -39 -127c-1 -1 -2 -1 -2 -2c26 4 50 9 71 18
c60 22 89 59 89 114c0 3 0 36 -25 68zM110 531v-499h127v530c0 45 5 86 14 119c6 25 15 43 25 57c-153 -32 -166 -163 -166 -207zM291 31c34 0 62 11 84 34c60 63 55 191 55 192v1c0 43 -8 186 -119 186c-9 0 -16 7 -16 15c0 9 7 17 16 17c29 0 53 8 70 26
c35 39 31 105 31 106v1c2 24 -1 90 -29 120c-9 11 -21 16 -36 16c-31 0 -53 -24 -66 -72c-8 -30 -13 -69 -13 -111v-531h23zM397 43c-4 -4 -9 -8 -13 -12h2c206 0 216 185 216 222c0 10 -2 58 -39 102c-33 42 -86 70 -158 82c12 -13 23 -29 31 -47c22 -49 25 -103 25 -132
c0 -9 5 -143 -64 -215z" />
    <glyph glyph-name="registered" unicode="&#xae;" horiz-adv-x="942" 
d="M753 104c9 0 17 -7 17 -16c0 -8 -8 -16 -17 -16h-36h-1h-1h-125h-1c-4 0 -8 2 -11 4c0 2 -1 2 -1 2s-1 0 -1 1l-133 173v-148h45c9 0 17 -7 17 -16c0 -8 -8 -16 -17 -16h-60h-105h-60c-9 0 -16 8 -16 16c0 9 7 16 16 16h43v389h-43c-9 0 -16 6 -16 15s7 17 16 17h60h105
h21v0c118 0 225 -5 225 -118c0 -55 -34 -97 -92 -118l142 -185h29zM597 104h86l-135 175c-25 -6 -48 -7 -70 -7h-10zM443 306c33 4 82 22 82 96c0 42 -30 83 -82 90v-186zM642 407c0 60 -38 78 -122 83c23 -23 37 -56 37 -88c0 -43 -15 -74 -36 -95c11 1 21 3 32 6
c41 9 89 35 89 94zM338 104h74v389h-74v-389zM472 -160c-249 0 -452 203 -452 452c0 251 203 454 452 454c251 0 453 -203 453 -454c0 -249 -202 -452 -453 -452zM472 708c-229 0 -415 -186 -415 -416c0 -229 186 -415 415 -415c230 0 416 186 416 415
c0 230 -186 416 -416 416z" />
    <glyph glyph-name="copyright" unicode="&#xa9;" horiz-adv-x="942" 
d="M472 -165c-249 0 -452 203 -452 452c0 251 203 453 452 453c251 0 453 -202 453 -453c0 -249 -202 -452 -453 -452zM472 703c-229 0 -415 -186 -415 -416c0 -229 186 -415 415 -415c230 0 416 186 416 415c0 230 -186 416 -416 416zM668 202c8 -4 11 -14 7 -22
c-19 -38 -42 -68 -68 -92c0 0 0 -1 -1 -2h-1c-38 -34 -82 -52 -129 -52c-125 0 -258 81 -258 258c0 125 94 258 267 258c73 0 120 -42 155 -89v60c0 9 7 16 17 16c9 0 17 -7 17 -16v-168c0 -9 -8 -16 -17 -16c-10 0 -17 7 -17 16v47c-30 51 -68 104 -132 115
c-105 -9 -127 -126 -127 -223c0 -119 42 -166 79 -186c45 -23 98 -12 127 8v0c26 24 45 53 59 81c3 8 14 11 22 7zM252 292c0 -151 107 -221 215 -224c-7 3 -15 5 -22 10c-45 23 -97 79 -97 214c0 116 30 181 67 215c-106 -29 -163 -124 -163 -215z" />
    <glyph glyph-name="trademark" unicode="&#x2122;" horiz-adv-x="947" 
d="M880 375c9 0 17 -7 17 -17s-8 -18 -17 -18h-46h-84h-49c-10 0 -18 8 -18 18s8 17 18 17h32v218l-56 -143v-1l-37 -94c-2 -6 -7 -9 -14 -10h-3h-15c-7 0 -15 4 -17 11l-85 233v-214h54c8 0 16 -7 16 -17s-8 -18 -16 -18h-143c-10 0 -18 8 -18 18s8 17 18 17h53v295h-49
v-75c0 -11 -7 -18 -18 -18c-9 0 -18 7 -18 18v75h-82v-295h31c11 0 19 -7 19 -17s-8 -18 -19 -18h-50h-83h-51c-10 0 -18 8 -18 18s8 17 18 17h34v295h-83v-75c0 -11 -8 -18 -19 -18c-9 0 -17 7 -17 18v94c0 10 8 18 17 18h119h83h119h1h83h1h85c8 0 13 -5 15 -13l71 -189
l74 188c2 8 9 14 17 14h30h54h46c9 0 17 -8 17 -18c0 -11 -8 -19 -17 -19h-28v-295h28zM266 375v295h-47v-295h47zM513 670l105 -276l23 61l-80 215h-48zM768 375h47v295h-35h-12v-295z" />
    <glyph glyph-name="acute" unicode="&#xb4;" horiz-adv-x="500" 
d="M169 564c51 95 80 151 91 160c12 12 27 18 44 18c13 0 34 -4 54 -25c21 -20 24 -40 24 -53c0 -18 -6 -32 -18 -43c-11 -15 -152 -90 -194 -111c-1 -1 -4 -2 -8 -2c-8 0 -14 6 -14 14c0 4 1 6 2 10c3 3 10 15 19 32zM344 643c3 3 8 10 8 21s-6 22 -15 31
c-11 11 -22 16 -33 16c-9 0 -17 -2 -22 -7c-11 -11 -56 -98 -81 -143c68 37 135 74 143 82z" />
    <glyph glyph-name="dieresis" unicode="&#xa8;" horiz-adv-x="500" 
d="M277 651c0 52 37 91 86 91c46 0 86 -39 86 -91c0 -48 -40 -89 -86 -89c-49 0 -86 41 -86 89zM418 651c0 35 -25 60 -55 60c-31 0 -55 -25 -55 -60c0 -32 24 -58 55 -58c30 0 55 26 55 58zM14 651c0 52 38 91 85 91c46 0 87 -39 87 -91c0 -48 -41 -89 -87 -89
c-47 0 -85 41 -85 89zM155 651c0 35 -26 60 -56 60c-29 0 -55 -25 -55 -60c0 -32 26 -58 55 -58c30 0 56 26 56 58z" />
    <glyph glyph-name="AE" unicode="&#xc6;" horiz-adv-x="1070" 
d="M1023 242c9 0 16 -7 16 -15v-212c0 -8 -7 -15 -16 -15h-358v0h-169h-1h-99c-8 0 -16 7 -16 15c0 9 8 16 16 16h84v278h-233l-154 -278h152c8 0 15 -7 15 -16c0 -8 -7 -15 -15 -15h-279c-8 0 -15 7 -15 15c0 9 7 16 15 16h91l360 647h-110c-8 0 -15 7 -15 16
c0 8 7 15 15 15h681c8 0 15 -7 15 -15v-173c0 -8 -7 -15 -15 -15c-9 0 -16 7 -16 15v157h-292v-296h189v124c0 8 7 15 16 15s15 -7 15 -15v-283c0 -8 -6 -15 -15 -15s-16 7 -16 15v129h-189v-321h328v196c0 8 7 15 15 15zM264 340h216v338h-28zM511 678v-647h138v647h-138z
" />
    <glyph glyph-name="Oslash" unicode="&#xd8;" horiz-adv-x="820" 
d="M768 712c6 6 17 5 24 -2c6 -5 6 -16 0 -23l-99 -98c-6 -5 -17 -6 -23 0c-6 7 -6 18 -1 24zM553 502c7 6 17 5 24 -2c6 -5 6 -16 0 -22l-297 -297c-6 -5 -17 -6 -23 0c-7 7 -7 18 -1 24zM149 98c7 6 18 6 24 -1c7 -6 7 -17 0 -23l-130 -130c-6 -6 -17 -7 -23 0
c-7 7 -7 18 -1 24zM413 -7c224 0 371 141 371 361c0 218 -150 362 -371 362c-223 0 -372 -144 -372 -362c0 -220 145 -361 372 -361zM259 354c0 163 48 328 154 328c93 0 153 -169 153 -328c0 -151 -41 -329 -153 -329c-99 0 -154 196 -154 329zM751 354
c0 -137 -64 -280 -241 -320c56 59 87 168 87 320c0 111 -29 253 -96 322c156 -32 250 -155 250 -322zM316 673c-57 -57 -88 -168 -88 -319c0 -107 30 -253 99 -322c-186 36 -254 181 -254 322c0 167 93 284 243 319z" />
    <glyph glyph-name="plusminus" unicode="&#xb1;" 
d="M627 325c8 0 13 -6 13 -13c0 -6 -5 -13 -13 -13h-263v-263c0 -8 -5 -13 -13 -13c-6 0 -11 5 -11 13v263h-266c-6 0 -11 7 -11 13c0 7 5 13 11 13h266v264c0 8 5 13 11 13c8 0 13 -5 13 -13v-264h263zM624 21c7 0 13 7 13 15c0 6 -6 12 -13 12h-542c-7 0 -14 -6 -14 -12
c0 -8 7 -15 14 -15h542z" />
    <glyph glyph-name="yen" unicode="&#xa5;" horiz-adv-x="732" 
d="M23 676h-50c-9 0 -17 8 -17 16c0 9 9 17 17 17h255h1h131c11 0 17 -8 17 -17c0 -8 -6 -16 -17 -16h-104l190 -338l191 338h-138c-9 0 -17 8 -17 16c0 9 8 17 17 17h167h1h83c9 0 16 -8 16 -17c0 -8 -7 -16 -16 -16h-75l-213 -375v-268h88c9 0 15 -6 15 -17
c0 -9 -6 -16 -15 -16h-104h-170h-104c-9 0 -15 7 -15 16c0 11 6 17 15 17h88v244zM429 302l-210 374h-157l229 -386c1 -3 2 -5 2 -8v-249h136v269zM452 277h163c11 0 17 -9 17 -18c0 -8 -6 -15 -17 -15h-163c-11 0 -18 7 -18 15c0 9 7 18 18 18zM87 277h182
c11 0 17 -9 17 -18c0 -8 -6 -15 -17 -15h-182c-9 0 -17 7 -17 15c0 9 8 18 17 18z" />
    <glyph glyph-name="mu1" unicode="&#xb5;" horiz-adv-x="668" 
d="M73 -178c-14 12 -31 33 -31 73c0 27 6 53 12 80c8 32 16 68 16 114v397c0 8 8 15 16 15h152c10 0 16 -7 16 -15v-257v-34c-1 -49 -2 -91 15 -108c6 -6 14 -8 25 -8c51 0 94 36 100 40c-6 41 -6 89 -6 143v10v213c0 9 7 15 15 15h154c8 0 14 -6 14 -15v-257
c0 -81 8 -135 22 -160c11 -17 22 -18 40 -18c5 0 9 -2 12 -5c3 -5 4 -11 1 -16c-1 -4 -4 -7 -14 -11c-5 -3 -12 -7 -23 -11c-19 -7 -48 -14 -88 -14c-61 0 -99 28 -118 84c0 1 -1 2 -1 3c-8 -9 -19 -21 -32 -32c-41 -35 -89 -54 -138 -54c-11 0 -21 0 -30 1
c1 -6 3 -13 5 -19c9 -32 19 -67 19 -88c0 -28 -12 -51 -34 -67c-18 -11 -40 -19 -61 -19c-22 0 -42 8 -58 20zM418 262c0 -72 0 -133 15 -176c13 -44 40 -62 88 -62c27 0 49 3 65 8c-6 5 -13 12 -18 21c-18 30 -26 86 -26 175v242h-124v-208zM84 -32c-6 -27 -12 -50 -12 -73
c0 -60 52 -62 59 -62c18 0 65 10 65 55c0 16 -10 53 -18 80c-4 11 -6 20 -8 28c-3 12 -4 20 1 26c4 5 9 6 15 6c14 -2 29 -4 46 -4c32 0 62 9 91 27c-9 -2 -18 -3 -29 -3c-19 0 -35 6 -46 18c-26 25 -26 74 -25 129v34v241h-122v-381c0 -49 -9 -88 -17 -121z" />
    <glyph glyph-name="ordfeminine" unicode="&#xaa;" horiz-adv-x="552" 
d="M468 320h43c11 0 22 -9 22 -22c0 -12 -11 -22 -22 -22h-65h-123c-12 0 -21 10 -21 22v5c-27 -15 -63 -27 -118 -27c-64 0 -117 53 -117 118c0 76 61 109 106 127l129 41v17c0 15 -3 59 -22 80c-8 7 -17 11 -29 11c-11 0 -18 -3 -25 -4c12 -13 21 -31 21 -52
c0 -40 -35 -75 -77 -75s-77 35 -77 75c0 20 7 35 20 48c11 11 30 22 56 32c26 11 50 17 73 20c9 1 21 2 36 2c75 0 129 -19 161 -55c34 -39 29 -79 29 -82v-259zM170 583c19 0 32 15 32 31c0 17 -13 31 -32 31c-17 0 -33 -14 -33 -31c0 -16 15 -31 33 -31zM269 480
c-24 -21 -26 -36 -26 -68c0 -25 9 -41 26 -49c12 -4 22 -4 33 0v143c-13 -8 -28 -17 -33 -26zM113 394c0 -41 32 -74 71 -74c24 0 41 3 58 8c-28 13 -45 45 -45 84c0 33 6 54 22 75l-32 -8c-52 -21 -74 -45 -74 -85zM345 576v-256h79v262c0 2 2 28 -19 49
c-15 19 -41 32 -76 37c19 -40 16 -85 16 -92z" />
    <glyph glyph-name="ordmasculine" unicode="&#xba;" horiz-adv-x="552" 
d="M511 504c0 -57 -25 -111 -70 -150c-44 -41 -103 -63 -166 -63c-62 0 -121 22 -165 63c-46 39 -70 93 -70 150s24 110 70 150c44 40 103 62 165 62v0v0c63 0 122 -22 166 -62c45 -40 70 -93 70 -150zM317 638c-12 30 -27 49 -42 49c-13 0 -29 -19 -41 -49
c-14 -36 -22 -83 -22 -134s8 -98 22 -134c12 -31 28 -49 41 -49c15 0 30 18 42 49c15 36 22 83 22 134s-7 98 -22 134zM70 504c0 -84 64 -155 151 -176c-5 8 -11 19 -15 31c-16 39 -24 90 -24 145c0 54 8 106 24 145c4 12 10 22 15 31c-87 -21 -151 -92 -151 -176zM330 328
c87 21 151 92 151 176s-64 155 -151 176c5 -9 11 -19 15 -31c15 -39 24 -91 24 -145c0 -55 -9 -106 -24 -145c-4 -12 -10 -23 -15 -31z" />
    <glyph glyph-name="ae" unicode="&#xe6;" horiz-adv-x="857" 
d="M822 251h-290s-1 0 -1 -1c0 -97 34 -173 87 -201c28 -15 60 -14 92 2c6 2 11 6 17 9c1 1 3 2 5 3l2 2c30 21 56 48 73 82c5 7 13 10 21 6c7 -4 10 -13 6 -20c-20 -38 -49 -70 -85 -93v-1c-9 -6 -19 -12 -28 -16c-38 -20 -81 -30 -125 -30c-43 0 -85 10 -122 29
c-31 15 -58 36 -80 60c-5 -6 -11 -13 -17 -20c-4 -7 -51 -69 -181 -69c-35 0 -68 14 -92 39c-26 25 -39 57 -39 93c0 35 10 64 32 88c20 22 49 41 89 56c1 0 1 1 1 1l165 51v30v1c0 1 3 74 -31 108c-11 12 -26 17 -44 17c-24 -2 -45 -6 -62 -11c27 -12 46 -39 46 -70
c0 -43 -37 -80 -83 -80c-45 0 -81 37 -81 80c0 21 7 40 21 53l-1 1c2 2 43 46 150 56c11 1 30 2 44 2c63 0 114 -11 151 -32c38 21 82 32 129 32c56 0 101 -8 137 -25c46 -21 77 -57 96 -107v-1c18 -64 13 -109 12 -111c-1 -7 -7 -13 -14 -13zM590 477
c-11 -6 -53 -39 -58 -195h113c-3 154 -43 188 -55 195zM795 367c-24 67 -75 102 -163 109c2 -3 4 -5 6 -9c23 -40 35 -102 37 -185h132c1 16 -1 46 -12 85zM230 396c0 27 -22 49 -52 49c-28 0 -52 -22 -52 -49c0 -28 24 -49 52 -49c30 0 52 21 52 49zM355 82
c8 8 15 19 19 25c-18 30 -22 61 -22 96v1v1c-1 6 -1 13 0 20v61c-20 -12 -47 -30 -63 -47c-26 -31 -35 -47 -35 -92c0 -35 14 -59 39 -70v0c32 -14 57 2 62 5zM95 125c0 -57 45 -102 101 -102c47 0 82 10 106 20c-7 1 -13 3 -20 6c-37 15 -58 52 -58 98c0 50 9 74 43 112
c2 2 4 4 5 6l-76 -24c-71 -27 -101 -62 -101 -116zM602 23c-30 17 -55 45 -72 84c-19 40 -28 90 -28 143c0 100 13 172 39 216c1 3 3 6 4 8c-26 -5 -52 -15 -76 -29c-5 -2 -11 -2 -15 1c-27 17 -63 27 -108 31c38 -43 35 -119 35 -126v-98v-3v-18v-7v-19c1 -35 4 -65 24 -90
c44 -58 116 -93 191 -93h6z" />
    <glyph glyph-name="oslash" unicode="&#xf8;" horiz-adv-x="636" 
d="M560 504c6 6 17 5 23 -2c7 -5 7 -16 0 -23l-68 -68c-6 -6 -17 -7 -23 0c-7 6 -7 18 -1 24zM378 327c6 6 17 5 24 -2c6 -6 6 -16 0 -23l-174 -174c-6 -5 -18 -6 -23 0c-7 7 -7 18 -1 24zM117 65c6 6 17 6 24 -1c6 -6 6 -17 0 -23l-98 -97c-6 -6 -17 -7 -23 0
c-7 7 -7 18 -1 24zM299 -7c171 0 282 100 282 257c0 155 -114 258 -282 258c-170 0 -282 -103 -282 -258c0 -157 110 -257 282 -257zM215 250c0 133 36 226 84 226s82 -118 82 -226c0 -133 -32 -225 -82 -225c-48 0 -84 121 -84 225zM549 250c0 -115 -69 -199 -183 -218
c31 41 47 117 47 218c0 71 -15 166 -53 220c117 -19 189 -104 189 -220zM231 469c-31 -43 -47 -118 -47 -219c0 -59 13 -166 54 -220c-118 21 -190 101 -190 220c0 116 72 198 183 219z" />
    <glyph glyph-name="questiondown" unicode="&#xbf;" horiz-adv-x="548" 
d="M280 -7c-208 0 -251 119 -251 220c0 135 131 226 253 226h9v44c0 10 6 17 15 17s17 -7 17 -17v-60v-17v-104c0 -8 -7 -15 -14 -16c-5 -1 -112 -16 -112 -125c0 -44 15 -78 45 -102c33 -27 73 -32 87 -29c1 0 1 1 1 1c12 1 23 4 34 7c-37 14 -65 51 -65 93
c0 55 46 100 101 100c50 0 92 -38 99 -88c0 -2 1 -5 1 -7c0 -1 -1 -2 -1 -2c0 -1 1 -2 1 -3c0 -22 -8 -42 -20 -59c-2 -4 -5 -7 -9 -11c0 0 0 -1 -1 -1c-58 -64 -184 -67 -190 -67zM333 131c0 -38 29 -68 67 -68c17 0 33 7 45 19c13 13 20 30 22 51c-2 35 -32 65 -67 65
c-38 0 -67 -31 -67 -67zM291 406h-9c-105 0 -221 -79 -221 -193c0 -109 57 -171 168 -185c-2 2 -5 4 -7 5c-26 22 -57 60 -57 128c0 100 75 143 126 154v91v0zM304 512c-60 0 -108 48 -108 103c0 56 48 102 108 102s109 -46 109 -102c0 -55 -49 -103 -109 -103zM304 685
c-42 0 -76 -32 -76 -70s34 -69 76 -69s76 31 76 69s-34 70 -76 70z" />
    <glyph glyph-name="exclamdown" unicode="&#xa1;" horiz-adv-x="376" 
d="M188 534c-52 0 -96 42 -96 91c0 51 44 91 96 91c54 0 99 -40 99 -91c0 -49 -45 -91 -99 -91zM188 687c-36 0 -66 -28 -66 -62c0 -33 30 -62 66 -62c39 0 69 29 69 62c0 34 -30 62 -69 62zM79 100c0 25 65 260 94 385c3 11 7 18 17 18c7 0 14 -5 17 -13
c15 -58 93 -356 93 -392c0 -43 -34 -105 -109 -105c-71 0 -112 54 -112 107zM190 419c-25 -91 -77 -292 -77 -319c0 -29 21 -73 78 -73c58 0 75 48 75 71c0 22 -42 185 -76 321z" />
    <glyph glyph-name="florin" unicode="&#x192;" horiz-adv-x="613" 
d="M409 640c194 0 204 -121 204 -146c0 -50 -43 -91 -95 -91s-95 41 -95 92s43 92 95 92h2c-26 12 -62 21 -111 21c-10 0 -18 -4 -26 -12c-38 -40 -42 -164 -40 -209v-38h127c9 0 16 -7 16 -16s-7 -16 -16 -16h-127v-76v-23v-129c0 -5 5 -118 -71 -197
c-44 -48 -109 -72 -191 -72c-194 0 -205 121 -205 145c0 51 43 92 96 92c52 0 94 -42 94 -93c0 -50 -42 -92 -94 -92h-2c26 -12 61 -21 111 -21c10 0 18 4 26 12c39 41 41 165 39 209v147l1 22v76h-68c-9 0 -16 7 -16 16s7 16 16 16h68v22c-1 4 -5 118 70 197
c45 48 110 72 192 72zM-28 24c-35 0 -63 -26 -63 -59s28 -61 63 -61c34 0 62 28 62 60c0 34 -28 60 -62 60zM312 386c-1 6 -7 148 36 216c-44 -9 -80 -27 -107 -56c-66 -69 -62 -173 -62 -174v-131l-1 -22v-146c1 -6 7 -147 -36 -216c44 9 80 28 107 57c66 68 62 173 62 174
v131l1 22v145zM518 435c35 0 63 27 63 59c0 34 -28 61 -63 61s-62 -27 -62 -60s27 -60 62 -60z" />
    <glyph glyph-name="guillemotleft" unicode="&#xab;" horiz-adv-x="610" 
d="M219 259l120 -209c4 -7 2 -15 -3 -21c-4 -3 -7 -4 -11 -4c-5 0 -7 1 -11 3c-22 14 -205 145 -222 159c-39 32 -37 73 -37 76c0 0 -3 45 37 75c20 14 220 158 222 158c6 5 16 4 21 0c6 -6 8 -15 4 -22zM114 213c9 -8 91 -66 156 -112l-86 149c-3 6 -3 13 0 18l87 156
c-61 -44 -146 -106 -159 -113c-24 -18 -23 -47 -23 -48c0 -4 0 -30 25 -50zM435 259l120 -209c4 -7 2 -15 -3 -21c-3 -3 -8 -4 -11 -4c-5 0 -8 1 -12 3c-20 14 -204 145 -221 159c-38 32 -37 73 -37 76c0 0 -3 45 37 75c20 14 220 158 221 158c7 5 17 4 23 0
c5 -6 7 -15 3 -22zM330 213c9 -8 90 -66 156 -112l-87 149c-3 6 -3 13 0 18l88 156c-61 -44 -146 -106 -158 -113c-25 -18 -23 -47 -23 -48c0 -4 -1 -30 24 -50z" />
    <glyph glyph-name="guillemotright" unicode="&#xbb;" horiz-adv-x="610" 
d="M272 50l120 209l-120 215c-4 7 -2 16 4 22c5 4 15 5 21 0c1 0 202 -144 222 -158c40 -30 37 -75 37 -75c0 -3 2 -44 -37 -76c-18 -14 -201 -145 -222 -159c-4 -2 -6 -3 -11 -3c-4 0 -7 1 -11 4c-5 6 -7 14 -3 21zM497 213c24 20 24 46 24 50c0 1 2 30 -22 48
c-14 7 -99 69 -159 113l87 -156c3 -5 3 -12 0 -18l-86 -149c65 46 147 104 156 112zM56 50l120 209l-120 215c-4 7 -2 16 3 22c6 4 16 5 23 0c1 0 201 -144 221 -158c40 -30 37 -75 37 -75c0 -3 1 -44 -37 -76c-17 -14 -201 -145 -221 -159c-4 -2 -7 -3 -12 -3
c-4 0 -8 1 -11 4c-5 6 -7 14 -3 21zM281 213c25 20 24 46 24 50c0 1 2 30 -23 48c-12 7 -97 69 -158 113l87 -156c3 -5 3 -12 0 -18l-86 -149c65 46 147 104 156 112z" />
    <glyph glyph-name="ellipsis" unicode="&#x2026;" horiz-adv-x="942" 
d="M164 193c62 0 113 -50 113 -110c0 -63 -51 -113 -113 -113s-113 50 -113 113c0 60 51 110 113 110zM164 5c44 0 79 34 79 78c0 42 -35 77 -79 77s-80 -35 -80 -77c0 -44 36 -78 80 -78zM479 193c63 0 113 -50 113 -110c0 -63 -50 -113 -113 -113c-62 0 -113 50 -113 113
c0 60 51 110 113 110zM479 5c44 0 80 34 80 78c0 42 -36 77 -80 77c-43 0 -79 -35 -79 -77c0 -44 36 -78 79 -78zM792 193c63 0 114 -50 114 -110c0 -63 -51 -113 -114 -113c-62 0 -112 50 -112 113c0 60 50 110 112 110zM792 5c44 0 80 34 80 78c0 42 -36 77 -80 77
c-43 0 -79 -35 -79 -77c0 -44 36 -78 79 -78z" />
    <glyph glyph-name="Agrave" unicode="&#xc0;" horiz-adv-x="758" 
d="M803 16c0 9 -8 17 -16 17h-55l-270 666c-1 7 -7 10 -15 10h-82c-8 0 -13 -3 -16 -10l-45 -123s0 -1 -1 -2l-122 -303s0 -1 -1 -2l-95 -236h-93c-9 0 -16 -8 -16 -17c0 -8 7 -16 16 -16h105h172c8 0 16 8 16 16c0 9 -8 17 -16 17h-147l85 215h223h1l87 -215h-100
c-8 0 -17 -8 -17 -17c0 -8 9 -16 17 -16h124h179h1h65c8 0 16 8 16 16zM221 281l97 244l99 -244h-196zM554 33l-217 536l39 107h60l260 -643h-142zM496 833c9 -17 16 -29 19 -32c1 -3 2 -6 2 -10c0 -8 -7 -14 -15 -14c-3 0 -5 0 -7 2c-42 22 -179 95 -192 109
c-10 10 -17 25 -17 42c0 14 4 34 24 53c19 21 40 25 53 25c16 0 33 -7 43 -18c10 -9 41 -65 90 -157zM324 910c8 -8 73 -44 140 -81c-24 45 -69 131 -79 141c-6 5 -14 8 -22 8c-10 0 -22 -6 -33 -16c-9 -9 -14 -20 -14 -32c0 -9 4 -18 8 -20z" />
    <glyph glyph-name="Atilde" unicode="&#xc3;" horiz-adv-x="758" 
d="M803 16c0 9 -8 17 -16 17h-55l-270 666c-1 7 -7 10 -15 10h-82c-8 0 -13 -3 -16 -10l-45 -123s0 -1 -1 -2l-122 -303s0 -1 -1 -2l-95 -236h-93c-9 0 -16 -8 -16 -17c0 -8 7 -16 16 -16h105h172c8 0 16 8 16 16c0 9 -8 17 -16 17h-147l85 215h223h1l87 -215h-100
c-8 0 -17 -8 -17 -17c0 -8 9 -16 17 -16h124h179h1h65c8 0 16 8 16 16zM221 281l97 244l99 -244h-196zM554 33l-217 536l39 107h60l260 -643h-142zM645 977c7 -2 11 -10 11 -17c-4 -63 -43 -183 -164 -183c-57 0 -98 26 -134 49c-29 17 -53 33 -81 33
c-59 0 -104 -75 -104 -75c-4 -5 -9 -8 -16 -8c-1 0 -3 0 -5 1c-8 4 -12 13 -9 21c1 7 60 179 160 179c52 0 95 -26 132 -49c30 -19 57 -33 82 -33c46 0 96 55 110 76c5 6 11 8 18 6zM492 809c73 0 106 54 121 99c-26 -24 -60 -46 -96 -46c-34 0 -66 18 -98 38
c-36 21 -72 43 -116 43c-35 0 -66 -34 -90 -71c20 12 40 20 64 20c37 0 67 -18 99 -39c33 -21 68 -44 116 -44z" />
    <glyph glyph-name="Otilde" unicode="&#xd5;" horiz-adv-x="820" 
d="M389 -7c224 0 371 141 371 361c0 218 -150 362 -371 362c-223 0 -372 -144 -372 -362c0 -220 145 -361 372 -361zM235 354c0 163 48 328 154 328c93 0 153 -169 153 -328c0 -151 -41 -329 -153 -329c-99 0 -154 196 -154 329zM727 354c0 -137 -64 -280 -241 -320
c56 59 87 168 87 320c0 111 -29 253 -96 322c156 -32 250 -155 250 -322zM292 673c-57 -57 -88 -168 -88 -319c0 -107 30 -253 99 -322c-186 36 -254 181 -254 322c0 167 93 284 243 319zM646 978c7 -2 11 -10 11 -17c-4 -63 -43 -183 -164 -183c-57 0 -98 26 -134 49
c-29 17 -53 33 -81 33c-59 0 -104 -75 -104 -75c-4 -5 -9 -8 -16 -8c-1 0 -3 0 -5 1c-8 4 -12 13 -9 21c1 7 60 179 160 179c52 0 95 -26 132 -49c30 -19 57 -33 82 -33c46 0 96 55 110 76c5 6 11 8 18 6zM493 810c73 0 106 54 121 99c-26 -24 -60 -46 -96 -46
c-34 0 -66 18 -98 38c-36 21 -72 43 -116 43c-35 0 -66 -34 -90 -71c20 12 40 20 64 20c37 0 67 -18 99 -39c33 -21 68 -44 116 -44z" />
    <glyph glyph-name="OE" unicode="&#x152;" horiz-adv-x="1101" 
d="M529 0h-1h-90c-48 0 -96 7 -142 21c-48 14 -90 36 -128 63c-84 64 -127 158 -127 271c0 114 44 207 129 271c37 27 80 48 129 63c41 12 84 19 129 20h2h2h8h4h161h1h13h6h1h1h71h330c8 0 15 -7 15 -15v-173c0 -9 -7 -16 -15 -16c-9 0 -16 7 -16 16v157h-298v-296h196v124
c0 9 7 15 15 15c9 0 16 -6 16 -15v-283c0 -8 -7 -15 -16 -15c-8 0 -15 7 -15 15v129h-196v-321h346v196c0 8 7 15 15 15s16 -7 16 -15v-211c0 -9 -8 -16 -16 -16h-377h-33h-136zM458 32l55 -1v642c-97 -16 -251 -79 -251 -318c0 -111 18 -190 55 -243c32 -45 77 -70 141 -80
zM683 31v647h-64h-46c-8 0 -17 0 -29 -1v-646h121v0h18zM72 355c0 -186 127 -286 275 -315c-21 15 -40 32 -55 54c-41 58 -61 144 -61 261c0 69 12 129 36 179c21 44 50 80 88 109c20 14 41 26 62 35c-175 -10 -345 -111 -345 -323z" />
    <glyph glyph-name="oe" unicode="&#x153;" horiz-adv-x="938" 
d="M148 69c-22 23 -39 50 -50 82c-12 31 -17 64 -17 99c0 36 5 69 17 100s29 59 52 82c49 51 126 79 213 76c50 -2 94 -12 133 -30c20 -11 35 -21 45 -29c20 17 41 30 63 39c28 13 59 19 91 19c55 0 98 -8 133 -25c44 -21 75 -57 93 -106v-1c18 -65 13 -109 13 -111
c-1 -7 -8 -13 -16 -13h-288c0 -1 -1 -3 -1 -5c0 -48 8 -92 22 -127c14 -33 33 -57 55 -72c27 -17 59 -18 92 -1h4c43 22 79 57 102 100c4 8 13 11 21 7c7 -4 10 -13 6 -20c-21 -42 -54 -76 -94 -101c-41 -26 -89 -39 -137 -39c-85 0 -143 38 -166 56
c-43 -35 -100 -53 -170 -56h-5h-3h-5c-85 0 -155 26 -203 76zM357 479c-27 -2 -44 -35 -54 -62c-15 -42 -23 -101 -23 -167c0 -104 34 -225 77 -228c2 0 4 1 5 1c46 4 75 95 75 227c0 56 -8 114 -22 157c-15 43 -34 69 -54 71c-1 0 -3 0 -4 1zM687 473
c-8 -3 -51 -29 -57 -192h115c-3 151 -46 185 -58 192zM893 366c-25 69 -77 104 -166 110c3 -3 5 -6 8 -11c25 -38 38 -101 40 -184h129c0 16 -1 47 -11 85zM529 419c-8 8 -44 39 -112 53c9 -14 18 -32 26 -55c15 -46 25 -108 25 -167c0 -71 -9 -131 -24 -176
c-7 -19 -15 -33 -23 -45c41 9 76 26 102 51c6 6 16 6 21 0c0 0 15 -15 42 -29c22 -11 58 -25 102 -28c-56 37 -88 120 -88 223c0 99 12 171 36 215c2 3 4 7 6 10c-33 -9 -63 -27 -92 -53c-5 -4 -14 -5 -21 1zM298 474c-115 -19 -187 -102 -187 -224c0 -99 52 -205 193 -224
c-11 14 -21 35 -31 62c-14 47 -23 109 -23 162c0 71 8 132 24 177c8 20 16 35 24 47z" />
    <glyph glyph-name="endash" unicode="&#x2013;" 
d="M652 296c9 0 16 -8 16 -18c0 -8 -7 -16 -16 -16h-601c-8 0 -16 8 -16 16c0 10 8 18 16 18h601z" />
    <glyph glyph-name="emdash" unicode="&#x2014;" horiz-adv-x="928" 
d="M877 296c9 0 16 -8 16 -18c0 -8 -7 -16 -16 -16h-826c-8 0 -16 8 -16 16c0 10 8 18 16 18h826z" />
    <glyph glyph-name="quotedblleft" unicode="&#x201c;" horiz-adv-x="519" 
d="M152 414h-4c-20 0 -115 8 -115 139c0 137 157 186 165 186c1 1 2 1 4 1c7 0 14 -4 15 -11c4 -9 -2 -17 -10 -20c-2 0 -143 -41 -143 -156c0 -5 1 -10 1 -14c14 33 44 58 87 58c51 0 93 -40 93 -91c0 -50 -42 -92 -93 -92zM152 566c-34 0 -64 -27 -64 -60
c0 -32 30 -60 64 -60s61 28 61 60c0 33 -27 60 -61 60zM397 414h-3c-20 0 -116 8 -116 139c0 137 159 186 165 186c1 1 3 1 5 1c7 0 14 -4 15 -11c4 -9 -3 -17 -11 -20c0 0 -143 -41 -142 -156c0 -5 1 -10 1 -14c11 33 47 58 86 58c52 0 93 -40 93 -91
c0 -50 -41 -92 -93 -92zM397 566c-34 0 -63 -27 -63 -60c0 -32 29 -60 63 -60s62 28 62 60c0 33 -28 60 -62 60z" />
    <glyph glyph-name="quotedblright" unicode="&#x201d;" horiz-adv-x="519" 
d="M371 740h4c20 0 115 -7 115 -139c0 -135 -157 -186 -165 -186c-1 -1 -2 -1 -4 -1c-7 0 -14 4 -15 11c-4 9 2 17 10 20c2 0 143 42 143 156c0 5 -1 10 -1 15c-13 -34 -45 -58 -87 -58c-51 0 -93 40 -93 90c0 52 42 92 93 92zM371 588c34 0 64 28 64 60c0 33 -30 60 -64 60
s-61 -27 -61 -60c0 -32 27 -60 61 -60zM125 740h4c20 0 116 -7 116 -139c0 -135 -159 -186 -165 -186c-1 -1 -3 -1 -5 -1c-7 0 -14 4 -15 11c-4 9 2 17 11 20c0 0 143 43 142 156c0 5 -1 10 -1 15c-11 -35 -46 -58 -87 -58c-50 0 -92 40 -92 90c0 52 42 92 92 92zM125 588
c36 0 64 28 64 60c0 33 -28 60 -64 60c-32 0 -61 -27 -61 -60c0 -32 29 -60 61 -60z" />
    <glyph glyph-name="quoteleft" unicode="&#x2018;" horiz-adv-x="269" 
d="M152 416h-4c-20 0 -115 6 -115 139c0 135 157 186 165 186c1 1 2 1 4 1c7 0 14 -5 15 -12c4 -8 -2 -16 -10 -20c-2 0 -143 -42 -143 -155c0 -5 1 -10 1 -15c13 34 45 58 87 58c51 0 93 -41 93 -90c0 -52 -42 -92 -93 -92zM152 567c-34 0 -64 -26 -64 -59
c0 -32 30 -61 64 -61s61 29 61 61c0 33 -27 59 -61 59z" />
    <glyph glyph-name="quoteright" unicode="&#x2019;" horiz-adv-x="269" 
d="M125 740h4c20 0 116 -7 116 -139c0 -135 -159 -186 -165 -186c-1 -1 -3 -1 -5 -1c-7 0 -14 4 -15 11c-4 9 2 17 11 20c0 0 143 43 142 156c0 5 -1 10 -1 15c-11 -35 -46 -58 -87 -58c-50 0 -92 40 -92 90c0 52 42 92 92 92zM125 588c36 0 64 28 64 60c0 33 -28 60 -64 60
c-32 0 -61 -27 -61 -60c0 -32 29 -60 61 -60z" />
    <glyph glyph-name="divide" unicode="&#xf7;" 
d="M613 301c9 0 16 -8 16 -17s-7 -16 -16 -16h-533c-8 0 -17 7 -17 16s9 17 17 17h533zM253 481c0 55 42 98 93 98s93 -43 93 -98c0 -53 -42 -96 -93 -96s-93 43 -93 96zM406 481c0 36 -27 65 -60 65c-32 0 -59 -29 -59 -65c0 -34 27 -63 59 -63c33 0 60 29 60 63zM253 90
c0 55 42 97 93 97s93 -42 93 -97c0 -54 -42 -96 -93 -96s-93 42 -93 96zM406 90c0 35 -27 64 -60 64c-32 0 -59 -29 -59 -64c0 -34 27 -64 59 -64c33 0 60 30 60 64z" />
    <glyph glyph-name="ydieresis" unicode="&#xff;" horiz-adv-x="562" 
d="M18 467h-23c-9 0 -16 9 -16 17c0 11 7 17 16 17h296c11 0 17 -6 17 -17c0 -8 -6 -17 -17 -17h-67l146 -301l119 301h-108c-8 0 -16 9 -16 17c0 11 8 17 16 17h200c7 0 15 -6 15 -17c0 -8 -8 -17 -15 -17h-56l-139 -349l-77 -185l-5 -10l-9 -17c-3 -7 -10 -21 -23 -43
c-36 -62 -79 -101 -159 -101h-8c-55 0 -102 47 -102 105c0 59 47 105 102 105c54 0 101 -46 101 -105c0 -17 -7 -34 -12 -49c29 25 41 44 54 71c20 37 20 35 26 51zM37 -133c0 -37 30 -71 68 -71c37 0 67 34 67 71c0 38 -30 71 -67 71c-38 0 -68 -33 -68 -71zM187 467h-131
l236 -488l61 146zM336 684c0 52 37 91 86 91c46 0 86 -39 86 -91c0 -48 -40 -89 -86 -89c-49 0 -86 41 -86 89zM477 684c0 35 -25 60 -55 60c-31 0 -55 -25 -55 -60c0 -32 24 -58 55 -58c30 0 55 26 55 58zM73 684c0 52 38 91 85 91c46 0 87 -39 87 -91
c0 -48 -41 -89 -87 -89c-47 0 -85 41 -85 89zM214 684c0 35 -26 60 -56 60c-29 0 -55 -25 -55 -60c0 -32 26 -58 55 -58c30 0 56 26 56 58z" />
    <glyph glyph-name="Ydieresis" unicode="&#x178;" horiz-adv-x="732" 
d="M-10 676h50l237 -398v-245h-89c-8 0 -15 -6 -15 -17c0 -9 7 -16 15 -16h105h169h103c9 0 16 7 16 16c0 11 -7 17 -16 17h-87v269l212 374h76c8 0 16 8 16 16c0 9 -8 17 -16 17h-252c-9 0 -16 -8 -16 -17c0 -8 7 -16 16 -16h138l-190 -337l-189 337h103c11 0 18 8 18 16
c0 9 -7 17 -18 17h-387c-8 0 -16 -8 -16 -17s8 -16 17 -16zM235 676l210 -373v-270h-135v250c0 3 -1 5 -2 8l-229 385h156zM451 857c0 46 34 82 78 82c43 0 79 -36 79 -82c0 -45 -36 -81 -79 -81c-44 0 -78 36 -78 81zM580 857c0 30 -23 54 -51 54c-27 0 -50 -24 -50 -54
c0 -29 23 -54 50 -54c28 0 51 25 51 54zM189 857c0 46 35 82 78 82s79 -36 79 -82c0 -45 -36 -81 -79 -81s-78 36 -78 81zM318 857c0 30 -23 54 -51 54c-27 0 -50 -24 -50 -54c0 -29 23 -54 50 -54c28 0 51 25 51 54z" />
    <glyph glyph-name="Euro" unicode="&#x20ac;" horiz-adv-x="715" 
d="M641 218c9 -3 11 -12 6 -20c-66 -132 -166 -205 -280 -205c-177 0 -300 109 -327 282h-37c-9 0 -17 8 -17 17c0 8 8 17 17 17h33c-2 14 -3 29 -3 45s1 30 3 46h-31c-11 0 -18 7 -18 16s7 16 18 16h35c27 151 135 284 341 284c112 0 181 -67 230 -145v110c0 8 8 17 16 17
c10 0 17 -9 17 -17v-238c0 -10 -7 -17 -17 -17c-8 0 -16 7 -16 17v67c-43 78 -100 155 -194 171c-69 -6 -149 -42 -165 -249h190c10 0 16 -8 16 -16c0 -10 -6 -17 -16 -17h-192c-1 -15 -1 -29 -1 -45s1 -31 2 -45h144c10 0 16 -9 16 -17c0 -9 -6 -17 -16 -17h-141
c15 -121 64 -173 106 -196c63 -32 132 -13 171 13c41 38 70 86 88 120c5 7 13 12 22 6zM64 354c0 -203 117 -329 303 -329c18 0 35 2 50 6c-25 2 -50 9 -71 20c-52 27 -113 92 -125 241v0v0c-3 19 -3 40 -3 62c0 21 0 42 2 61v1v0c7 132 38 217 98 262
c-174 -30 -254 -177 -254 -324z" />
    <glyph glyph-name="guilsinglleft" unicode="&#x2039;" horiz-adv-x="396" 
d="M339 480l-121 -217l121 -210c4 -7 2 -16 -3 -22c-4 -3 -7 -4 -11 -4c-5 0 -7 1 -11 3c-22 15 -207 146 -224 161c-39 32 -37 73 -37 76c0 0 -3 46 38 76c19 14 221 158 223 159c6 6 16 5 21 -1c6 -4 8 -14 4 -21zM112 217c10 -9 92 -67 158 -113l-87 151c-3 5 -3 12 0 17
l88 158c-61 -44 -147 -107 -161 -115c-24 -17 -23 -46 -23 -48c0 -4 0 -30 25 -50z" />
    <glyph glyph-name="guilsinglright" unicode="&#x203a;" horiz-adv-x="396" 
d="M175 263l-121 217c-4 7 -2 17 4 21c5 6 15 7 21 1c2 -1 204 -145 223 -159c41 -30 38 -76 38 -76c0 -3 2 -44 -37 -76c-17 -15 -202 -146 -224 -161c-4 -2 -6 -3 -11 -3c-4 0 -7 1 -11 4c-5 6 -7 15 -3 22zM281 217c25 20 25 46 25 50c0 2 1 31 -23 48
c-13 8 -100 71 -161 115l88 -158c3 -5 3 -12 0 -17l-87 -151c66 46 148 104 158 113z" />
    <glyph glyph-name="daggerdbl" unicode="&#x2021;" horiz-adv-x="482" 
d="M443 517c7 0 12 -5 12 -11s-5 -11 -12 -11h-404c-7 0 -11 5 -11 11s4 11 11 11h404zM443 368c7 0 12 -5 12 -11c0 -7 -5 -11 -12 -11h-404c-7 0 -11 4 -11 11c0 6 4 11 11 11h404zM229 707c0 6 6 12 12 12s12 -6 12 -12v-557c0 -5 -6 -11 -12 -11s-12 6 -12 11v557z" />
    <glyph glyph-name="quotesinglbase" unicode="&#x201a;" horiz-adv-x="269" 
d="M125 176h4c20 0 116 -8 116 -139c0 -138 -159 -186 -165 -186c-1 -1 -3 -1 -5 -1c-7 0 -14 4 -15 11c-4 9 2 16 11 20c0 0 143 41 142 156c0 5 -1 9 -1 14c-11 -33 -46 -58 -87 -58c-50 0 -92 41 -92 90c0 51 42 93 92 93zM125 24c36 0 64 28 64 59c0 34 -28 61 -64 61
c-32 0 -61 -27 -61 -61c0 -31 29 -59 61 -59z" />
    <glyph glyph-name="quotedblbase" unicode="&#x201e;" horiz-adv-x="519" 
d="M371 176h4c20 0 115 -8 115 -139c0 -138 -157 -186 -165 -186c-1 -1 -2 -1 -4 -1c-7 0 -14 4 -15 11c-4 9 2 16 10 20c2 0 143 41 143 156c0 5 -1 9 -1 14c-14 -33 -44 -58 -87 -58c-51 0 -93 41 -93 90c0 51 42 93 93 93zM371 24c34 0 64 28 64 59c0 34 -30 61 -64 61
s-61 -27 -61 -61c0 -31 27 -59 61 -59zM125 176h4c20 0 116 -8 116 -139c0 -138 -159 -186 -165 -186c-1 -1 -3 -1 -5 -1c-7 0 -14 4 -15 11c-4 9 2 16 11 20c0 0 143 41 142 156c0 5 -1 9 -1 14c-11 -33 -46 -58 -87 -58c-50 0 -92 41 -92 90c0 51 42 93 92 93zM125 24
c36 0 64 28 64 59c0 34 -28 61 -64 61c-32 0 -61 -27 -61 -61c0 -31 29 -59 61 -59z" />
    <glyph glyph-name="perthousand" unicode="&#x2030;" horiz-adv-x="1309" 
d="M443 529c0 -121 -82 -199 -209 -199c-125 0 -207 78 -207 199c0 119 84 200 207 200c124 0 209 -81 209 -200zM191 529c0 -84 25 -165 43 -165c22 0 44 58 44 165c0 96 -27 166 -44 166c-16 0 -43 -53 -43 -166zM408 529c0 84 -48 143 -124 160c22 -43 28 -115 28 -160
c0 -39 -3 -114 -26 -159c90 20 122 91 122 159zM61 529c0 -69 35 -141 126 -161c-23 47 -29 124 -29 161c0 32 2 112 26 159c-75 -17 -123 -76 -123 -159zM646 364c124 0 208 -80 208 -200c0 -121 -83 -199 -208 -199c-126 0 -207 78 -207 199c0 120 83 200 207 200z
M689 164c0 96 -25 166 -43 166s-42 -53 -42 -166c0 -85 23 -165 42 -165c21 0 43 58 43 165zM474 164c0 -68 33 -142 125 -161c-24 48 -30 124 -30 161c0 32 2 111 27 160c-77 -18 -122 -76 -122 -160zM698 3c88 21 122 93 122 161c0 85 -49 143 -125 160
c22 -43 28 -116 28 -160c0 -39 -3 -113 -25 -161zM735 710c8 -5 9 -16 3 -23l-575 -699c-3 -4 -8 -6 -14 -6c-3 0 -8 1 -11 5c-7 6 -8 15 -2 22l575 699c8 7 17 8 24 2zM1081 364c125 0 209 -80 209 -200c0 -121 -83 -199 -209 -199c-125 0 -206 78 -206 199
c0 120 83 200 206 200zM1125 164c0 96 -25 166 -44 166c-17 0 -42 -53 -42 -166c0 -85 24 -165 42 -165c22 0 44 58 44 165zM909 164c0 -68 33 -142 126 -161c-25 48 -31 124 -31 161c0 32 3 111 28 160c-77 -18 -123 -76 -123 -160zM1133 3c89 21 122 93 122 161
c0 85 -48 143 -125 160c23 -43 29 -116 29 -160c0 -39 -3 -113 -26 -161z" />
    <glyph glyph-name="Acircumflex" unicode="&#xc2;" horiz-adv-x="758" 
d="M803 16c0 9 -8 17 -16 17h-55l-270 666c-1 7 -7 10 -15 10h-82c-8 0 -13 -3 -16 -10l-45 -123s0 -1 -1 -2l-122 -303s0 -1 -1 -2l-95 -236h-93c-9 0 -16 -8 -16 -17c0 -8 7 -16 16 -16h105h172c8 0 16 8 16 16c0 9 -8 17 -16 17h-147l85 215h223h1l87 -215h-100
c-8 0 -17 -8 -17 -17c0 -8 9 -16 17 -16h124h179h1h65c8 0 16 8 16 16zM221 281l97 244l99 -244h-196zM554 33l-217 536l39 107h60l260 -643h-142zM398 873l-160 -93c-5 -3 -12 -1 -16 2c-3 3 -4 6 -4 9s1 5 2 9c12 15 112 158 123 170c25 29 56 27 58 27c0 0 35 3 59 -28
c10 -15 120 -167 121 -169c4 -6 3 -13 -1 -18c-4 -3 -11 -5 -16 -2zM364 953c-7 -7 -51 -69 -87 -120l115 66c4 2 9 2 13 0l121 -67c-35 47 -81 113 -88 122c-14 19 -36 17 -37 17c-2 0 -22 0 -37 -18z" />
    <glyph glyph-name="Ecircumflex" unicode="&#xca;" horiz-adv-x="721" 
d="M182 33h-82c-9 0 -17 -8 -17 -16c0 -11 8 -17 17 -17h648c8 0 15 6 15 17v210c0 8 -7 17 -15 17c-11 0 -19 -9 -19 -17v-194h-345v317h195v-127c0 -8 10 -16 19 -16c8 0 16 8 16 16v281c0 11 -8 17 -16 17c-9 0 -19 -6 -19 -17v-121h-195v293h299v-156c0 -9 6 -17 15 -17
c11 0 18 8 18 17v173c0 9 -7 16 -18 16h-598c-9 0 -17 -7 -17 -16c0 -8 8 -17 17 -17h82v-643zM214 33v643h138v-307v-1v-1v-334h-138zM442 873l-160 -93c-5 -3 -12 -1 -16 2c-3 3 -4 6 -4 9s1 5 2 9c12 15 112 158 123 170c25 29 56 27 58 27c0 0 35 3 59 -28
c10 -15 120 -167 121 -169c4 -6 3 -13 -1 -18c-4 -3 -11 -5 -16 -2zM408 953c-7 -7 -51 -69 -87 -120l115 66c4 2 9 2 13 0l121 -67c-35 47 -81 113 -88 122c-14 19 -36 17 -37 17c-2 0 -22 0 -37 -18z" />
    <glyph glyph-name="Aacute" unicode="&#xc1;" horiz-adv-x="758" 
d="M803 16c0 9 -8 17 -16 17h-55l-270 666c-1 7 -7 10 -15 10h-82c-8 0 -13 -3 -16 -10l-45 -123s0 -1 -1 -2l-122 -303s0 -1 -1 -2l-95 -236h-93c-9 0 -16 -8 -16 -17c0 -8 7 -16 16 -16h105h172c8 0 16 8 16 16c0 9 -8 17 -16 17h-147l85 215h223h1l87 -215h-100
c-8 0 -17 -8 -17 -17c0 -8 9 -16 17 -16h124h179h1h65c8 0 16 8 16 16zM221 281l97 244l99 -244h-196zM554 33l-217 536l39 107h60l260 -643h-142zM321 833c49 93 80 148 89 158c11 11 27 17 43 17c14 0 35 -3 54 -24c20 -20 24 -39 24 -53c0 -17 -7 -32 -18 -42
c-13 -15 -149 -87 -191 -109c-2 -2 -4 -2 -8 -2c-8 0 -14 6 -14 14c0 4 1 6 2 9c2 4 10 15 19 32zM493 911c3 2 8 10 8 20c0 12 -6 22 -14 31c-11 11 -23 16 -34 16c-7 0 -16 -2 -21 -7c-10 -10 -56 -97 -80 -141c68 37 133 72 141 81z" />
    <glyph glyph-name="Edieresis" unicode="&#xcb;" horiz-adv-x="721" 
d="M182 33h-82c-9 0 -17 -8 -17 -16c0 -11 8 -17 17 -17h648c8 0 15 6 15 17v210c0 8 -7 17 -15 17c-11 0 -19 -9 -19 -17v-194h-345v317h195v-127c0 -8 10 -16 19 -16c8 0 16 8 16 16v281c0 11 -8 17 -16 17c-9 0 -19 -6 -19 -17v-121h-195v293h299v-156c0 -9 6 -17 15 -17
c11 0 18 8 18 17v173c0 9 -7 16 -18 16h-598c-9 0 -17 -7 -17 -16c0 -8 8 -17 17 -17h82v-643zM214 33v643h138v-307v-1v-1v-334h-138zM497 859c0 46 34 82 78 82c43 0 79 -36 79 -82c0 -45 -36 -81 -79 -81c-44 0 -78 36 -78 81zM626 859c0 30 -23 54 -51 54
c-27 0 -50 -24 -50 -54c0 -29 23 -54 50 -54c28 0 51 25 51 54zM235 859c0 46 35 82 78 82s79 -36 79 -82c0 -45 -36 -81 -79 -81s-78 36 -78 81zM364 859c0 30 -23 54 -51 54c-27 0 -50 -24 -50 -54c0 -29 23 -54 50 -54c28 0 51 25 51 54z" />
    <glyph glyph-name="Egrave" unicode="&#xc8;" horiz-adv-x="721" 
d="M182 33h-82c-9 0 -17 -8 -17 -16c0 -11 8 -17 17 -17h648c8 0 15 6 15 17v210c0 8 -7 17 -15 17c-11 0 -19 -9 -19 -17v-194h-345v317h195v-127c0 -8 10 -16 19 -16c8 0 16 8 16 16v281c0 11 -8 17 -16 17c-9 0 -19 -6 -19 -17v-121h-195v293h299v-156c0 -9 6 -17 15 -17
c11 0 18 8 18 17v173c0 9 -7 16 -18 16h-598c-9 0 -17 -7 -17 -16c0 -8 8 -17 17 -17h82v-643zM214 33v643h138v-307v-1v-1v-334h-138zM513 832c9 -17 16 -29 19 -32c1 -3 2 -6 2 -10c0 -8 -7 -14 -15 -14c-3 0 -5 0 -7 2c-42 22 -179 95 -192 109c-10 10 -17 25 -17 42
c0 14 4 34 24 53c19 21 40 25 53 25c16 0 33 -7 43 -18c10 -9 41 -65 90 -157zM341 909c8 -8 73 -44 140 -81c-24 45 -69 131 -79 141c-6 5 -14 8 -22 8c-10 0 -22 -6 -33 -16c-9 -9 -14 -20 -14 -32c0 -9 4 -18 8 -20z" />
    <glyph glyph-name="Iacute" unicode="&#xcd;" horiz-adv-x="446" 
d="M197 709h-96c-11 0 -17 -8 -17 -17s6 -16 17 -16h78v-643h-78c-11 0 -17 -6 -17 -17c0 -8 6 -16 17 -16h96h167h99c9 0 17 8 17 16c0 11 -8 17 -17 17h-82v643h82c9 0 17 7 17 16s-8 17 -17 17h-99h-167zM212 676h134v-643h-134v643zM188 832c49 93 80 148 89 158
c11 11 27 17 43 17c14 0 35 -3 54 -24c20 -20 24 -39 24 -53c0 -17 -7 -32 -18 -42c-13 -15 -149 -87 -191 -109c-2 -2 -4 -2 -8 -2c-8 0 -14 6 -14 14c0 4 1 6 2 9c2 4 10 15 19 32zM360 910c3 2 8 10 8 20c0 12 -6 22 -14 31c-11 11 -23 16 -34 16c-7 0 -16 -2 -21 -7
c-10 -10 -56 -97 -80 -141c68 37 133 72 141 81z" />
    <glyph glyph-name="Icircumflex" unicode="&#xce;" horiz-adv-x="446" 
d="M197 709h-96c-11 0 -17 -8 -17 -17s6 -16 17 -16h78v-643h-78c-11 0 -17 -6 -17 -17c0 -8 6 -16 17 -16h96h167h99c9 0 17 8 17 16c0 11 -8 17 -17 17h-82v643h82c9 0 17 7 17 16s-8 17 -17 17h-99h-167zM212 676h134v-643h-134v643zM276 873l-160 -93
c-5 -3 -12 -1 -16 2c-3 3 -4 6 -4 9s1 5 2 9c12 15 112 158 123 170c25 29 56 27 58 27c0 0 35 3 59 -28c10 -15 120 -167 121 -169c4 -6 3 -13 -1 -18c-4 -3 -11 -5 -16 -2zM242 953c-7 -7 -51 -69 -87 -120l115 66c4 2 9 2 13 0l121 -67c-35 47 -81 113 -88 122
c-14 19 -36 17 -37 17c-2 0 -22 0 -37 -18z" />
    <glyph glyph-name="Idieresis" unicode="&#xcf;" horiz-adv-x="446" 
d="M101 709h96h167h99c9 0 17 -8 17 -17s-8 -16 -17 -16h-82v-643h82c9 0 17 -6 17 -17c0 -8 -8 -16 -17 -16h-99h-167h-96c-11 0 -17 8 -17 16c0 11 6 17 17 17h78v643h-78c-11 0 -17 7 -17 16s6 17 17 17zM346 676h-134v-643h134v643zM329 864c0 52 37 91 86 91
c46 0 86 -39 86 -91c0 -48 -40 -89 -86 -89c-49 0 -86 41 -86 89zM470 864c0 35 -25 60 -55 60c-31 0 -55 -25 -55 -60c0 -32 24 -58 55 -58c30 0 55 26 55 58zM66 864c0 52 38 91 85 91c46 0 87 -39 87 -91c0 -48 -41 -89 -87 -89c-47 0 -85 41 -85 89zM207 864
c0 35 -26 60 -56 60c-29 0 -55 -25 -55 -60c0 -32 26 -58 55 -58c30 0 56 26 56 58z" />
    <glyph glyph-name="Igrave" unicode="&#xcc;" horiz-adv-x="446" 
d="M197 709h-96c-11 0 -17 -8 -17 -17s6 -16 17 -16h78v-643h-78c-11 0 -17 -6 -17 -17c0 -8 6 -16 17 -16h96h167h99c9 0 17 8 17 16c0 11 -8 17 -17 17h-82v643h82c9 0 17 7 17 16s-8 17 -17 17h-99h-167zM212 676h134v-643h-134v643zM376 833c9 -17 16 -29 19 -32
c1 -3 2 -6 2 -10c0 -8 -7 -14 -15 -14c-3 0 -5 0 -7 2c-42 22 -179 95 -192 109c-10 10 -17 25 -17 42c0 14 4 34 24 53c19 21 40 25 53 25c16 0 33 -7 43 -18c10 -9 41 -65 90 -157zM204 910c8 -8 73 -44 140 -81c-24 45 -69 131 -79 141c-6 5 -14 8 -22 8
c-10 0 -22 -6 -33 -16c-9 -9 -14 -20 -14 -32c0 -9 4 -18 8 -20z" />
    <glyph glyph-name="Oacute" unicode="&#xd3;" horiz-adv-x="820" 
d="M389 -7c224 0 371 141 371 361c0 218 -150 362 -371 362c-223 0 -372 -144 -372 -362c0 -220 145 -361 372 -361zM235 354c0 163 48 328 154 328c93 0 153 -169 153 -328c0 -151 -41 -329 -153 -329c-99 0 -154 196 -154 329zM727 354c0 -137 -64 -280 -241 -320
c56 59 87 168 87 320c0 111 -29 253 -96 322c156 -32 250 -155 250 -322zM292 673c-57 -57 -88 -168 -88 -319c0 -107 30 -253 99 -322c-186 36 -254 181 -254 322c0 167 93 284 243 319zM317 832c49 93 80 148 89 158c11 11 27 17 43 17c14 0 35 -3 54 -24
c20 -20 24 -39 24 -53c0 -17 -7 -32 -18 -42c-13 -15 -149 -87 -191 -109c-2 -2 -4 -2 -8 -2c-8 0 -14 6 -14 14c0 4 1 6 2 9c2 4 10 15 19 32zM489 910c3 2 8 10 8 20c0 12 -6 22 -14 31c-11 11 -23 16 -34 16c-7 0 -16 -2 -21 -7c-10 -10 -56 -97 -80 -141
c68 37 133 72 141 81z" />
    <glyph glyph-name="Ocircumflex" unicode="&#xd4;" horiz-adv-x="820" 
d="M389 -7c224 0 371 141 371 361c0 218 -150 362 -371 362c-223 0 -372 -144 -372 -362c0 -220 145 -361 372 -361zM235 354c0 163 48 328 154 328c93 0 153 -169 153 -328c0 -151 -41 -329 -153 -329c-99 0 -154 196 -154 329zM727 354c0 -137 -64 -280 -241 -320
c56 59 87 168 87 320c0 111 -29 253 -96 322c156 -32 250 -155 250 -322zM292 673c-57 -57 -88 -168 -88 -319c0 -107 30 -253 99 -322c-186 36 -254 181 -254 322c0 167 93 284 243 319zM408 872l-160 -93c-5 -3 -12 -1 -16 2c-3 3 -4 6 -4 9s1 5 2 9
c12 15 112 158 123 170c25 29 56 27 58 27c0 0 35 3 59 -28c10 -15 120 -167 121 -169c4 -6 3 -13 -1 -18c-4 -3 -11 -5 -16 -2zM374 952c-7 -7 -51 -69 -87 -120l115 66c4 2 9 2 13 0l121 -67c-35 47 -81 113 -88 122c-14 19 -36 17 -37 17c-2 0 -22 0 -37 -18z" />
    <glyph glyph-name="Ograve" unicode="&#xd2;" horiz-adv-x="820" 
d="M389 -7c224 0 371 141 371 361c0 218 -150 362 -371 362c-223 0 -372 -144 -372 -362c0 -220 145 -361 372 -361zM235 354c0 163 48 328 154 328c93 0 153 -169 153 -328c0 -151 -41 -329 -153 -329c-99 0 -154 196 -154 329zM727 354c0 -137 -64 -280 -241 -320
c56 59 87 168 87 320c0 111 -29 253 -96 322c156 -32 250 -155 250 -322zM292 673c-57 -57 -88 -168 -88 -319c0 -107 30 -253 99 -322c-186 36 -254 181 -254 322c0 167 93 284 243 319zM475 832c9 -17 16 -29 19 -32c1 -3 2 -6 2 -10c0 -8 -7 -14 -15 -14c-3 0 -5 0 -7 2
c-42 22 -179 95 -192 109c-10 10 -17 25 -17 42c0 14 4 34 24 53c19 21 40 25 53 25c16 0 33 -7 43 -18c10 -9 41 -65 90 -157zM303 909c8 -8 73 -44 140 -81c-24 45 -69 131 -79 141c-6 5 -14 8 -22 8c-10 0 -22 -6 -33 -16c-9 -9 -14 -20 -14 -32c0 -9 4 -18 8 -20z" />
    <glyph glyph-name="Uacute" unicode="&#xda;" horiz-adv-x="833" 
d="M61 677h73v-394c0 -63 0 -155 65 -220c47 -47 120 -70 219 -70c53 0 99 5 138 20c5 1 9 4 13 5c29 11 53 27 73 46c63 63 66 157 63 219v394h127c9 0 17 8 17 16c0 9 -8 16 -17 16h-288c-9 0 -16 -7 -16 -16c0 -8 7 -16 16 -16h129v-394c0 -60 -1 -141 -54 -197
c-19 -19 -45 -33 -74 -42c-44 -14 -136 20 -165 49c-29 33 -46 84 -46 151v433h75c9 0 17 8 17 16c0 9 -8 16 -17 16h-348c-9 0 -18 -7 -18 -16c0 -8 9 -16 18 -16zM357 70c16 -15 43 -32 78 -44h-17c-91 0 -157 20 -197 59c-53 56 -54 137 -54 198v394h134v-433
c0 -75 19 -133 56 -174zM366 832c49 93 80 148 89 158c11 11 27 17 43 17c14 0 35 -3 54 -24c20 -20 24 -39 24 -53c0 -17 -7 -32 -18 -42c-13 -15 -149 -87 -191 -109c-2 -2 -4 -2 -8 -2c-8 0 -14 6 -14 14c0 4 1 6 2 9c2 4 10 15 19 32zM538 910c3 2 8 10 8 20
c0 12 -6 22 -14 31c-11 11 -23 16 -34 16c-7 0 -16 -2 -21 -7c-10 -10 -56 -97 -80 -141c68 37 133 72 141 81z" />
    <glyph glyph-name="Ucircumflex" unicode="&#xdb;" horiz-adv-x="833" 
d="M61 677h73v-394c0 -63 0 -155 65 -220c47 -47 120 -70 219 -70c53 0 99 5 138 20c5 1 9 4 13 5c29 11 53 27 73 46c63 63 66 157 63 219v394h127c9 0 17 8 17 16c0 9 -8 16 -17 16h-288c-9 0 -16 -7 -16 -16c0 -8 7 -16 16 -16h129v-394c0 -60 -1 -141 -54 -197
c-19 -19 -45 -33 -74 -42c-44 -14 -136 20 -165 49c-29 33 -46 84 -46 151v433h75c9 0 17 8 17 16c0 9 -8 16 -17 16h-348c-9 0 -18 -7 -18 -16c0 -8 9 -16 18 -16zM357 70c16 -15 43 -32 78 -44h-17c-91 0 -157 20 -197 59c-53 56 -54 137 -54 198v394h134v-433
c0 -75 19 -133 56 -174zM422 872l-160 -93c-5 -3 -12 -1 -16 2c-3 3 -4 6 -4 9s1 5 2 9c12 15 112 158 123 170c25 29 56 27 58 27c0 0 35 3 59 -28c10 -15 120 -167 121 -169c4 -6 3 -13 -1 -18c-4 -3 -11 -5 -16 -2zM388 952c-7 -7 -51 -69 -87 -120l115 66c4 2 9 2 13 0
l121 -67c-35 47 -81 113 -88 122c-14 19 -36 17 -37 17c-2 0 -22 0 -37 -18z" />
    <glyph glyph-name="Ugrave" unicode="&#xd9;" horiz-adv-x="833" 
d="M61 677h73v-394c0 -63 0 -155 65 -220c47 -47 120 -70 219 -70c53 0 99 5 138 20c5 1 9 4 13 5c29 11 53 27 73 46c63 63 66 157 63 219v394h127c9 0 17 8 17 16c0 9 -8 16 -17 16h-288c-9 0 -16 -7 -16 -16c0 -8 7 -16 16 -16h129v-394c0 -60 -1 -141 -54 -197
c-19 -19 -45 -33 -74 -42c-44 -14 -136 20 -165 49c-29 33 -46 84 -46 151v433h75c9 0 17 8 17 16c0 9 -8 16 -17 16h-348c-9 0 -18 -7 -18 -16c0 -8 9 -16 18 -16zM357 70c16 -15 43 -32 78 -44h-17c-91 0 -157 20 -197 59c-53 56 -54 137 -54 198v394h134v-433
c0 -75 19 -133 56 -174zM529 832c9 -17 16 -29 19 -32c1 -3 2 -6 2 -10c0 -8 -7 -14 -15 -14c-3 0 -5 0 -7 2c-42 22 -179 95 -192 109c-10 10 -17 25 -17 42c0 14 4 34 24 53c19 21 40 25 53 25c16 0 33 -7 43 -18c10 -9 41 -65 90 -157zM357 909c8 -8 73 -44 140 -81
c-24 45 -69 131 -79 141c-6 5 -14 8 -22 8c-10 0 -22 -6 -33 -16c-9 -9 -14 -20 -14 -32c0 -9 4 -18 8 -20z" />
    <glyph glyph-name="circumflex" unicode="&#x2c6;" horiz-adv-x="500" 
d="M247 629l-182 -105c-5 -3 -13 -2 -19 3c-2 3 -3 7 -3 11c0 3 1 5 3 8c12 18 126 180 139 193c27 34 63 32 65 32c0 0 40 3 66 -32c12 -16 137 -191 138 -193c4 -5 4 -13 -1 -19c-4 -5 -13 -6 -17 -3zM208 721c-8 -9 -59 -79 -99 -137l131 76c4 2 10 2 14 0l136 -77
c-37 53 -90 127 -98 140c-15 20 -41 19 -42 19c-2 0 -24 0 -42 -21z" />
    <glyph glyph-name="tilde" unicode="&#x2dc;" horiz-adv-x="500" 
d="M486 748c7 -2 11 -10 11 -17c-4 -63 -43 -183 -164 -183c-57 0 -98 26 -134 49c-29 17 -53 33 -81 33c-59 0 -104 -75 -104 -75c-4 -5 -9 -8 -16 -8c-1 0 -3 0 -5 1c-8 4 -12 13 -9 21c1 7 60 179 160 179c52 0 95 -26 132 -49c30 -19 57 -33 82 -33c46 0 96 55 110 76
c5 6 11 8 18 6zM333 580c73 0 106 54 121 99c-26 -24 -60 -46 -96 -46c-34 0 -66 18 -98 38c-36 21 -72 43 -116 43c-35 0 -66 -34 -90 -71c20 12 40 20 64 20c37 0 67 -18 99 -39c33 -21 68 -44 116 -44z" />
    <glyph glyph-name="cedilla" unicode="&#xb8;" horiz-adv-x="500" 
d="M364 -82c16 -14 24 -32 24 -55c0 -47 -26 -77 -78 -90c-43 -11 -97 -11 -162 -11h-8h-9c-8 0 -15 7 -15 15c0 9 7 16 15 16c119 0 119 37 119 49c0 7 -1 11 -4 12c-8 8 -27 7 -31 7v1c-1 0 -1 0 -1 -1c-1 0 -3 1 -4 1h-2c0 1 -2 2 -3 3c0 0 -1 0 -2 1s-1 1 -1 2l-2 2
c0 2 0 3 -1 3v2v1v124c0 8 6 15 15 15c8 0 14 -7 14 -15v-46c29 0 99 -1 136 -36zM302 -197c40 11 55 28 55 60c0 13 -5 25 -14 34c-27 24 -84 29 -115 26v-31c12 -1 27 -5 38 -16c9 -8 15 -21 15 -34c0 -20 -7 -34 -18 -45c15 1 28 3 39 6z" />
    <glyph glyph-name="Scaron" unicode="&#x160;" horiz-adv-x="649" 
d="M54 0c9 0 16 8 16 17v151c37 -77 114 -175 260 -175c101 0 291 45 291 222c0 152 -103 187 -211 224c-17 7 -35 12 -54 19c-109 40 -119 59 -119 100c0 45 45 120 133 123c51 -9 89 -27 120 -58c47 -52 56 -124 56 -151v-14c0 -8 8 -15 16 -15s15 7 16 15c0 0 1 7 0 16
v219c0 8 -7 16 -16 16c-8 0 -16 -8 -16 -16v-94c-8 13 -21 30 -34 46c-35 36 -81 59 -140 67c-16 3 -31 4 -46 4h-4c-157 0 -267 -86 -267 -210c0 -139 99 -190 184 -219l38 -13c112 -35 160 -56 160 -113c0 -97 -35 -133 -108 -136c-208 0 -259 231 -259 240
c-3 8 -10 13 -18 13c-7 -1 -15 -7 -15 -15v-246c0 -9 9 -17 17 -17zM286 306l-37 12c-114 40 -161 93 -161 188c0 94 71 163 186 176c-44 -33 -69 -84 -69 -124c0 -65 37 -90 140 -130c19 -8 36 -12 55 -20c105 -38 188 -61 188 -193c0 -101 -75 -152 -150 -176
c19 25 31 65 31 122c0 85 -74 108 -183 145zM325 903l160 93c5 4 12 2 16 -2c3 -2 4 -6 4 -9c0 -2 -1 -4 -2 -8c-12 -15 -112 -159 -123 -170c-25 -29 -56 -28 -58 -28c0 0 -35 -2 -59 28c-10 15 -120 168 -121 170c-4 6 -3 12 1 17c4 4 11 6 16 2zM359 823
c7 8 51 70 87 121l-115 -66c-4 -2 -9 -2 -13 0l-121 66c35 -46 81 -112 88 -122c14 -19 36 -17 37 -17c2 0 22 0 37 18z" />
    <glyph glyph-name="scaron" unicode="&#x161;" horiz-adv-x="513" 
d="M266 508c-125 0 -215 -66 -215 -157c0 -81 47 -134 143 -169c17 -5 31 -10 46 -14c66 -18 83 -28 83 -62c0 -56 -22 -81 -74 -81h-1c-150 0 -172 158 -172 165c-3 8 -9 15 -17 14c-9 0 -16 -8 -16 -17v-172c0 -8 8 -15 17 -15c8 0 16 7 16 15v81c26 -50 81 -103 172 -103
c157 0 242 62 242 174c0 113 -91 140 -158 160c-12 4 -23 5 -32 10c-69 23 -79 33 -79 60s17 81 79 76c122 -20 126 -133 126 -139c0 -8 7 -15 15 -15c9 0 17 8 17 15v151c0 9 -8 16 -17 16c-8 0 -15 -7 -15 -16v-54c-23 32 -58 61 -119 72l-5 1zM290 306l33 -10
c64 -19 136 -40 136 -129c0 -84 -56 -117 -124 -133c13 19 19 41 19 72c0 62 -39 71 -105 93l-45 14c-83 28 -121 70 -121 138s63 108 135 121c-20 -21 -29 -48 -29 -75c0 -50 32 -67 101 -91zM264 722l160 93c5 3 12 1 16 -2c3 -2 4 -6 4 -9c0 -2 -1 -5 -2 -8
c-12 -16 -112 -159 -123 -171c-25 -28 -56 -27 -58 -27c0 0 -35 -2 -59 28c-10 15 -120 167 -121 170c-4 6 -3 12 1 17c4 3 11 5 16 2zM298 642c7 8 51 70 87 121l-115 -67c-4 -2 -9 -2 -13 0l-121 67c35 -46 81 -113 88 -122c14 -19 36 -17 37 -17c2 0 22 0 37 18z" />
    <glyph glyph-name="Zcaron" unicode="&#x17d;" horiz-adv-x="689" 
d="M4 0h197h459c9 0 16 7 16 16v229c0 8 -7 16 -16 16s-17 -8 -17 -16v-212h-410l471 650c3 5 4 12 1 17c-4 5 -10 9 -15 9h-195h-2h-411c-9 0 -17 -8 -17 -16v-206c0 -9 8 -16 17 -16s17 7 17 16v189h362l-471 -651c-4 -5 -4 -12 -1 -17c4 -5 8 -8 15 -8zM36 33l466 643
h155l-465 -643h-156zM351 903l160 93c5 4 12 2 16 -2c3 -2 4 -6 4 -9c0 -2 -1 -4 -2 -8c-12 -15 -112 -159 -123 -170c-25 -29 -56 -28 -58 -28c0 0 -35 -2 -59 28c-10 15 -120 168 -121 170c-4 6 -3 12 1 17c4 4 11 6 16 2zM385 823c7 8 51 70 87 121l-115 -66
c-4 -2 -9 -2 -13 0l-121 66c35 -46 81 -112 88 -122c14 -19 36 -17 37 -17c2 0 22 0 37 18z" />
    <glyph glyph-name="zcaron" unicode="&#x17e;" horiz-adv-x="525" 
d="M51 486v-141c0 -9 7 -16 15 -16c9 0 17 7 17 16l-1 123h230l-299 -443c-3 -4 -4 -11 -1 -16c4 -7 9 -9 14 -9h477c9 0 18 8 18 17v159c0 11 -9 17 -18 17c-7 0 -16 -6 -16 -17v-143h-254l296 443c4 6 4 11 1 16c-3 6 -8 9 -13 9h-451c-8 0 -15 -6 -15 -15zM485 468
l-291 -435h-137l293 435h135zM273 722l160 93c5 3 12 1 16 -2c3 -2 4 -6 4 -9c0 -2 -1 -5 -2 -8c-12 -16 -112 -159 -123 -171c-25 -28 -56 -27 -58 -27c0 0 -35 -2 -59 28c-10 15 -120 167 -121 170c-4 6 -3 12 1 17c4 3 11 5 16 2zM307 642c7 8 51 70 87 121l-115 -67
c-4 -2 -9 -2 -13 0l-121 67c35 -46 81 -113 88 -122c14 -19 36 -17 37 -17c2 0 22 0 37 18z" />
    <glyph glyph-name="brokenbar" unicode="&#xa6;" horiz-adv-x="388" 
d="M213 723v-388c0 -10 -7 -17 -17 -17c-8 0 -16 7 -16 17v388c0 10 8 17 16 17c10 0 17 -7 17 -17zM213 167v-388c0 -10 -7 -17 -17 -17c-8 0 -16 7 -16 17v388c0 10 8 18 16 18c10 0 17 -8 17 -18z" />
    <glyph glyph-name="Eth" unicode="&#xd0;" horiz-adv-x="834" 
d="M456 377h-131c-11 0 -18 -9 -18 -18c0 -7 7 -15 18 -15h131c11 0 17 8 17 15c0 9 -6 18 -17 18zM54 377h93c11 0 17 -9 17 -18c0 -7 -6 -15 -17 -15h-93c-11 0 -18 8 -18 15c0 9 7 18 18 18zM54 709h417c192 0 346 -161 346 -355c0 -196 -157 -354 -349 -354h-69h-77h-10
h-79h-26h-54h-99c-8 0 -17 7 -17 16s9 17 17 17h83v643h-83c-8 0 -17 8 -17 16c0 9 9 17 17 17zM169 33h136v643h-136v-643zM338 33h60c92 16 196 63 196 321c0 175 -140 322 -255 322h-1v-643zM471 676h-24c95 -56 180 -180 180 -322c0 -164 -41 -268 -126 -319
c159 16 283 153 283 319c0 176 -140 319 -313 322z" />
    <glyph glyph-name="eth" unicode="&#xf0;" horiz-adv-x="638" 
d="M130 43c-63 43 -94 116 -94 213c0 51 11 95 32 133c19 31 44 57 77 78c55 35 117 45 142 45c37 0 66 -7 88 -17c3 -1 7 -3 10 -4c-11 52 -25 92 -40 122l-88 -60c-3 -1 -6 -2 -8 -2c-5 0 -10 2 -13 7c-5 6 -3 16 4 21l91 60c0 1 -1 2 -1 3c-36 58 -71 68 -71 68
c-9 3 -13 11 -10 19c1 8 9 13 18 11c3 -1 61 -16 129 -59l85 57c7 4 17 2 21 -5c5 -6 3 -16 -4 -21l-75 -49c4 -2 8 -6 13 -9c49 -37 88 -81 116 -131c35 -61 53 -131 53 -208c0 -109 -30 -193 -90 -250c-35 -32 -80 -55 -131 -66c-27 -5 -49 -6 -60 -6h-8
c-77 0 -140 17 -186 50zM343 677c45 -63 94 -185 94 -421c0 -2 0 -44 -7 -93c-9 -60 -24 -104 -46 -133c32 8 74 24 111 58c53 50 80 127 80 227c0 129 -53 235 -157 314c-26 20 -52 36 -75 48zM303 465c-49 -30 -68 -130 -68 -212c0 -18 -1 -60 5 -104
c7 -52 20 -89 39 -109c11 -11 24 -16 38 -16s26 5 36 16c45 45 54 171 54 216v0c0 77 -6 140 -14 194c-8 6 -17 12 -30 17c-10 5 -20 7 -30 7s-21 -2 -30 -9zM161 441c-63 -40 -95 -102 -95 -185c0 -132 61 -209 184 -228c-20 26 -33 65 -40 117c-6 46 -5 90 -5 109
c0 49 6 101 19 142c12 38 28 66 49 85c-24 -2 -70 -12 -112 -40z" />
    <glyph glyph-name="Yacute" unicode="&#xdd;" horiz-adv-x="732" 
d="M-10 676h50l237 -398v-245h-89c-8 0 -15 -6 -15 -17c0 -9 7 -16 15 -16h105h169h103c9 0 16 7 16 16c0 11 -7 17 -16 17h-87v269l212 374h76c8 0 16 8 16 16c0 9 -8 17 -16 17h-252c-9 0 -16 -8 -16 -17c0 -8 7 -16 16 -16h138l-190 -337l-189 337h103c11 0 18 8 18 16
c0 9 -7 17 -18 17h-387c-8 0 -16 -8 -16 -17s8 -16 17 -16zM235 676l210 -373v-270h-135v250c0 3 -1 5 -2 8l-229 385h156zM330 832c49 93 80 148 89 158c11 11 27 17 43 17c14 0 35 -3 54 -24c20 -20 24 -39 24 -53c0 -17 -7 -32 -18 -42c-13 -15 -149 -87 -191 -109
c-2 -2 -4 -2 -8 -2c-8 0 -14 6 -14 14c0 4 1 6 2 9c2 4 10 15 19 32zM502 910c3 2 8 10 8 20c0 12 -6 22 -14 31c-11 11 -23 16 -34 16c-7 0 -16 -2 -21 -7c-10 -10 -56 -97 -80 -141c68 37 133 72 141 81z" />
    <glyph glyph-name="yacute" unicode="&#xfd;" horiz-adv-x="562" 
d="M18 467h-23c-9 0 -16 9 -16 17c0 11 7 17 16 17h296c11 0 17 -6 17 -17c0 -8 -6 -17 -17 -17h-67l146 -301l119 301h-108c-8 0 -16 9 -16 17c0 11 8 17 16 17h200c7 0 15 -6 15 -17c0 -8 -8 -17 -15 -17h-56l-139 -349l-77 -185l-5 -10l-9 -17c-3 -7 -10 -21 -23 -43
c-36 -62 -79 -101 -159 -101h-8c-55 0 -102 47 -102 105c0 59 47 105 102 105c54 0 101 -46 101 -105c0 -17 -7 -34 -12 -49c29 25 41 44 54 71c20 37 20 35 26 51zM37 -133c0 -37 30 -71 68 -71c37 0 67 34 67 71c0 38 -30 71 -67 71c-38 0 -68 -33 -68 -71zM187 467h-131
l236 -488l61 146zM228 651c51 95 80 151 91 160c12 12 27 18 44 18c13 0 34 -4 54 -25c21 -20 24 -40 24 -53c0 -18 -6 -32 -18 -43c-11 -15 -152 -90 -194 -111c-1 -1 -4 -2 -8 -2c-8 0 -14 6 -14 14c0 4 1 6 2 10c3 3 10 15 19 32zM403 730c3 3 8 10 8 21s-6 22 -15 31
c-11 11 -22 16 -33 16c-9 0 -17 -2 -22 -7c-11 -11 -56 -98 -81 -143c68 37 135 74 143 82z" />
    <glyph glyph-name="Thorn" unicode="&#xde;" horiz-adv-x="708" 
d="M696 366c0 -143 -124 -216 -366 -219v-114h83c9 0 17 -7 17 -16s-8 -17 -17 -17h-100h-168h-97c-9 0 -16 8 -16 17s7 16 16 16h80v644h-80c-9 0 -16 7 -16 16s7 16 16 16h97h168h100c9 0 17 -7 17 -16s-8 -16 -17 -16h-83v-115c197 0 366 -5 366 -196zM478 366
c0 104 -49 158 -148 164v-350c73 10 148 78 148 186zM663 366c0 122 -79 154 -221 163c46 -33 69 -89 69 -163c0 -81 -38 -143 -88 -181c161 17 240 77 240 181zM160 33h137v644h-137v-644z" />
    <glyph glyph-name="thorn" unicode="&#xfe;" horiz-adv-x="645" 
d="M265 459c28 23 75 49 153 49c89 0 221 -61 221 -260c0 -155 -111 -255 -252 -255c-30 0 -84 5 -122 23v-215h90c10 0 18 -9 18 -18s-8 -17 -18 -17h-107h-162h-87c-10 0 -17 8 -17 17s7 18 17 18h70v941h-68c-10 0 -17 7 -17 17c0 11 7 17 17 17h247c10 0 17 -6 17 -17
v-300zM321 43c52 0 108 59 108 189c0 154 -60 210 -91 210c-41 0 -64 -24 -73 -35v-350c12 -5 35 -14 56 -14zM104 -199h127v941h-127v-941zM605 248c0 174 -111 225 -187 225c-21 0 -37 -2 -52 -5c51 -23 96 -101 96 -236c0 -104 -33 -168 -84 -204h9c107 0 218 69 218 220
z" />
    <glyph glyph-name="multiply" unicode="&#xd7;" 
d="M555 504c7 6 17 5 24 -2c6 -5 6 -16 0 -23l-482 -481c-6 -6 -17 -7 -23 0c-7 6 -7 18 -1 23zM98 504l482 -483c5 -5 5 -17 -1 -23c-6 -7 -17 -6 -23 0l-482 481c-7 7 -7 18 0 23c7 7 17 8 24 2z" />
    <glyph glyph-name="onesuperior" unicode="&#xb9;" horiz-adv-x="552" 
d="M144 680c-8 0 -15 7 -15 15s7 14 15 14h90v0h118c8 0 16 -6 16 -14v-426h67c8 0 15 -6 15 -15c0 -8 -7 -15 -15 -15h-83h-118h-88c-8 0 -14 7 -14 15c0 9 6 15 14 15h73v411h-75zM337 269v411h-88v-411h88z" />
    <glyph glyph-name="twosuperior" unicode="&#xb2;" horiz-adv-x="552" 
d="M92 224c-9 0 -16 7 -16 16v89c0 7 6 14 13 15l46 9h2c0 0 17 3 44 10l1 1c101 38 128 144 128 195v13c1 64 -5 106 -81 111c-20 -2 -37 -6 -52 -12c35 -8 60 -39 60 -76c0 -43 -34 -78 -78 -78c-43 0 -78 35 -78 78v2v1c0 6 2 40 34 71c34 32 85 47 153 47
c80 0 138 -18 174 -55c18 -19 38 -51 37 -101v-1c0 -42 -19 -80 -56 -114c-28 -27 -67 -50 -116 -71c-17 -8 -36 -15 -52 -21h229c8 0 16 -7 16 -16v-97c0 -9 -8 -16 -16 -16h-392zM207 595c0 26 -21 47 -48 47c-26 0 -47 -21 -47 -47s21 -47 47 -47c27 0 48 21 48 47z
M309 438c-9 -16 -19 -30 -30 -43c6 2 11 5 17 7c44 20 81 42 106 66c31 28 46 58 46 91v2c1 31 -9 58 -28 78c-24 25 -60 39 -109 44c7 -7 13 -16 18 -25c12 -27 12 -59 12 -87c0 -4 -1 -8 -1 -12c0 -40 -11 -84 -31 -121zM107 316v-61h361v67h-327z" />
    <glyph glyph-name="threesuperior" unicode="&#xb3;" horiz-adv-x="552" 
d="M104 263c-20 14 -33 37 -34 63c0 4 -1 6 -1 7c0 2 1 4 2 6c5 37 36 67 74 67c42 0 76 -35 76 -78c0 -32 -19 -59 -46 -71c14 -4 29 -7 44 -9h1c66 4 99 43 99 119c0 21 -11 44 -31 62c-15 13 -39 28 -79 30h-11c-7 0 -12 5 -14 11c-1 2 -1 3 -1 5v0v0c0 8 7 15 15 15h8
c69 4 95 61 95 99s-4 69 -60 95c-16 -2 -31 -5 -44 -9c28 -11 47 -39 47 -71c0 -43 -34 -79 -76 -79c-41 0 -74 35 -75 78c0 1 -1 2 -1 2c0 8 2 16 6 25c2 8 6 14 10 21c5 7 12 14 19 21c34 29 85 44 153 44c74 0 127 -16 158 -49c14 -14 31 -38 29 -77v-1
c0 -29 -15 -70 -87 -99c25 -6 50 -17 70 -35c26 -23 39 -56 39 -95c0 -16 0 -58 -35 -92c-17 -16 -41 -29 -72 -38c-33 -9 -75 -15 -125 -15c-68 0 -119 17 -153 48zM213 604c0 25 -20 47 -45 47c-14 0 -26 -7 -34 -18c-4 -5 -7 -10 -9 -14c-1 -5 -2 -11 -2 -15
c0 -27 21 -48 45 -48c25 0 45 21 45 48zM319 656c11 -22 13 -45 13 -67c0 -29 -12 -61 -31 -84c-2 -2 -4 -5 -6 -6c24 3 45 9 63 15c25 9 45 20 58 33c14 12 21 26 21 42v3c0 22 -6 40 -21 54c-22 24 -64 38 -121 40c10 -10 17 -19 24 -30zM350 367c0 -60 -19 -97 -45 -119
c60 4 103 19 128 43c23 21 26 46 26 69c0 31 -10 55 -29 72c-48 43 -135 35 -136 34h-2h-3c38 -24 61 -62 61 -99zM145 375c-24 0 -44 -21 -45 -47c2 -9 8 -25 23 -40c7 -5 14 -7 22 -7c24 0 45 21 45 47s-21 47 -45 47z" />
    <glyph glyph-name="onehalf" unicode="&#xbd;" horiz-adv-x="1071" 
d="M81 680c-8 0 -15 7 -15 15s7 14 15 14h90v0h118c8 0 16 -6 16 -14v-426h67c8 0 15 -6 15 -15c0 -8 -7 -15 -15 -15h-83h-118h-88c-8 0 -14 7 -14 15c0 9 6 15 14 15h73v411h-75zM274 269v411h-88v-411h88zM636 -15c-9 0 -16 7 -16 16v89c0 7 6 14 13 15l46 9h2
c0 0 17 3 44 10l1 1c101 38 128 144 128 195v13c1 64 -5 106 -81 111c-20 -2 -37 -6 -52 -12c35 -8 60 -39 60 -76c0 -43 -34 -78 -78 -78c-43 0 -78 35 -78 78v2v1c0 6 2 40 34 71c34 32 85 47 153 47c80 0 138 -18 174 -55c18 -19 38 -51 37 -101v-1
c0 -42 -19 -80 -56 -114c-28 -27 -67 -50 -116 -71c-17 -8 -36 -15 -52 -21h229c8 0 16 -7 16 -16v-97c0 -9 -8 -16 -16 -16h-392zM751 356c0 26 -21 47 -48 47c-26 0 -47 -21 -47 -47s21 -47 47 -47c27 0 48 21 48 47zM853 199c-9 -16 -19 -30 -30 -43c6 2 11 5 17 7
c44 20 81 42 106 66c31 28 46 58 46 91v2c1 31 -9 58 -28 78c-24 25 -60 39 -109 44c7 -7 13 -16 18 -25c12 -27 12 -59 12 -87c0 -4 -1 -8 -1 -12c0 -40 -11 -84 -31 -121zM651 77v-61h361v67h-327zM739 739c8 -2 12 -12 10 -19l-422 -724c-2 -6 -9 -11 -14 -11h-5
c-10 5 -14 14 -11 22l420 722c4 9 15 13 22 10z" />
    <glyph glyph-name="onequarter" unicode="&#xbc;" horiz-adv-x="1071" 
d="M942 15c0 -8 -6 -15 -15 -15h-111c-8 0 -15 7 -15 15v125h-205c-6 0 -11 4 -13 9c-3 5 -2 12 1 16l263 314v1l4 3c3 4 7 6 11 6h65c9 0 15 -7 15 -15v-304h57c8 0 15 -6 15 -15c0 -8 -7 -15 -15 -15h-57v-125zM629 170h172v207zM831 30h81v122c0 1 -1 2 -1 3s1 2 1 4v300
h-43l-38 -45v-384zM81 680c-8 0 -15 7 -15 15s7 14 15 14h90v0h118c8 0 16 -6 16 -14v-426h67c8 0 15 -6 15 -15c0 -8 -7 -15 -15 -15h-83h-118h-88c-8 0 -14 7 -14 15c0 9 6 15 14 15h73v411h-75zM274 269v411h-88v-411h88zM758 739c8 -2 12 -12 10 -19l-422 -724
c-2 -6 -9 -11 -14 -11h-5c-10 5 -14 14 -11 22l420 722c4 9 15 13 22 10z" />
    <glyph glyph-name="threequarters" unicode="&#xbe;" horiz-adv-x="1071" 
d="M942 15c0 -8 -6 -15 -15 -15h-111c-8 0 -15 7 -15 15v125h-205c-6 0 -11 4 -13 9c-3 5 -2 12 1 16l263 314v1l4 3c3 4 7 6 11 6h65c9 0 15 -7 15 -15v-304h57c8 0 15 -6 15 -15c0 -8 -7 -15 -15 -15h-57v-125zM629 170h172v207zM831 30h81v122c0 1 -1 2 -1 3s1 2 1 4v300
h-43l-38 -45v-384zM89 263c-20 14 -33 37 -34 63c0 4 -1 6 -1 7c0 2 1 4 2 6c5 37 36 67 74 67c42 0 76 -35 76 -78c0 -32 -19 -59 -46 -71c14 -4 29 -7 44 -9h1c66 4 99 43 99 119c0 21 -11 44 -31 62c-15 13 -39 28 -79 30h-11c-7 0 -12 5 -14 11c-1 2 -1 3 -1 5v0v0
c0 8 7 15 15 15h8c69 4 95 61 95 99s-4 69 -60 95c-16 -2 -31 -5 -44 -9c28 -11 47 -39 47 -71c0 -43 -34 -79 -76 -79c-41 0 -74 35 -75 78c0 1 -1 2 -1 2c0 8 2 16 6 25c2 8 6 14 10 21c5 7 12 14 19 21c34 29 85 44 153 44c74 0 127 -16 158 -49c14 -14 31 -38 29 -77v-1
c0 -29 -15 -70 -87 -99c25 -6 50 -17 70 -35c26 -23 39 -56 39 -95c0 -16 0 -58 -35 -92c-17 -16 -41 -29 -72 -38c-33 -9 -75 -15 -125 -15c-68 0 -119 17 -153 48zM198 604c0 25 -20 47 -45 47c-14 0 -26 -7 -34 -18c-4 -5 -7 -10 -9 -14c-1 -5 -2 -11 -2 -15
c0 -27 21 -48 45 -48c25 0 45 21 45 48zM304 656c11 -22 13 -45 13 -67c0 -29 -12 -61 -31 -84c-2 -2 -4 -5 -6 -6c24 3 45 9 63 15c25 9 45 20 58 33c14 12 21 26 21 42v3c0 22 -6 40 -21 54c-22 24 -64 38 -121 40c10 -10 17 -19 24 -30zM335 367c0 -60 -19 -97 -45 -119
c60 4 103 19 128 43c23 21 26 46 26 69c0 31 -10 55 -29 72c-48 43 -135 35 -136 34h-2h-3c38 -24 61 -62 61 -99zM130 375c-24 0 -44 -21 -45 -47c2 -9 8 -25 23 -40c7 -5 14 -7 22 -7c24 0 45 21 45 47s-21 47 -45 47zM806 739c8 -2 12 -12 10 -19l-422 -724
c-2 -6 -9 -11 -14 -11h-5c-10 5 -14 14 -11 22l420 722c4 9 15 13 22 10z" />
    <glyph glyph-name="overscore.001" unicode="&#xaf;" 
d="M703 776c9 0 16 -8 16 -18c0 -8 -7 -16 -16 -16h-705c-8 0 -17 8 -17 16c0 10 9 18 17 18h705z" />
    <glyph glyph-name="middot" unicode="&#xb7;" horiz-adv-x="338" 
d="M168 370c63 0 114 -50 114 -111s-51 -113 -114 -113c-62 0 -112 52 -112 113s50 111 112 111zM168 182c44 0 80 34 80 77s-36 77 -80 77c-42 0 -79 -34 -79 -77s37 -77 79 -77z" />
    <glyph glyph-name="Dcroat" unicode="&#x110;" horiz-adv-x="834" 
 />
    <glyph glyph-name="Zdotaccent" unicode="&#x17b;" horiz-adv-x="689" 
d="M4 0h197h459c9 0 16 7 16 16v229c0 8 -7 16 -16 16s-17 -8 -17 -16v-212h-410l471 650c3 5 4 12 1 17c-4 5 -10 9 -15 9h-195h-2h-411c-9 0 -17 -8 -17 -16v-206c0 -9 8 -16 17 -16s17 7 17 16v189h362l-471 -651c-4 -5 -4 -12 -1 -17c4 -5 8 -8 15 -8zM36 33l466 643
h155l-465 -643h-156zM363 1000c63 0 114 -50 114 -111c0 -62 -51 -113 -114 -113c-62 0 -112 51 -112 113c0 61 50 111 112 111zM363 812c44 0 80 34 80 77c0 42 -36 77 -80 77c-43 0 -79 -35 -79 -77c0 -43 36 -77 79 -77z" />
    <glyph glyph-name="zdotaccent" unicode="&#x17c;" horiz-adv-x="525" 
d="M51 486v-141c0 -9 7 -16 15 -16c9 0 17 7 17 16l-1 123h230l-299 -443c-3 -4 -4 -11 -1 -16c4 -7 9 -9 14 -9h477c9 0 18 8 18 17v159c0 11 -9 17 -18 17c-7 0 -16 -6 -16 -17v-143h-254l296 443c4 6 4 11 1 16c-3 6 -8 9 -13 9h-451c-8 0 -15 -6 -15 -15zM485 468
l-291 -435h-137l293 435h135zM266 819c63 0 114 -50 114 -111c0 -62 -51 -113 -114 -113c-62 0 -112 51 -112 113c0 61 50 111 112 111zM266 631c44 0 80 34 80 77c0 42 -36 77 -80 77c-43 0 -79 -35 -79 -77c0 -43 36 -77 79 -77z" />
    <glyph glyph-name="gdotaccent" unicode="&#x121;" horiz-adv-x="577" 
d="M573 482c0 11 -8 19 -17 19h-190c-25 3 -52 7 -95 7c-171 0 -247 -91 -247 -176c0 -52 30 -113 101 -145c-16 -7 -32 -15 -45 -27c-21 -21 -30 -44 -30 -73c0 -3 -3 -43 29 -80c4 -4 6 -6 11 -9c-61 -16 -93 -53 -93 -92c0 -99 97 -144 294 -144c169 0 296 85 296 193
c0 106 -68 168 -180 168h-177c-9 0 -30 1 -30 17c0 9 6 19 9 22c19 -1 38 -3 62 -3c181 0 246 92 246 173c0 47 -14 87 -86 135h125c9 0 17 7 17 15zM326 332c0 -84 -22 -140 -55 -140c-32 0 -56 77 -56 140c0 81 21 146 56 146c31 0 55 -80 55 -146zM58 332
c0 72 56 116 152 142c-19 -31 -30 -85 -30 -142c0 -45 11 -99 34 -136c-99 13 -156 61 -156 136zM31 -94c0 26 33 65 114 65c7 -3 18 -4 27 -5c-11 -17 -21 -34 -21 -55c0 -45 18 -83 47 -111c-167 20 -167 78 -167 106zM214 -36h137c41 0 58 -14 58 -53
c0 -64 -51 -115 -118 -115c-60 0 -106 51 -106 115c0 24 20 44 29 53zM230 87h177c44 0 147 -11 147 -132c0 -63 -62 -120 -150 -144c24 27 37 60 37 100c0 59 -31 87 -90 87h-141h-3h-2c-47 0 -82 15 -101 35c-22 25 -20 51 -20 53c0 21 7 36 18 48c17 16 46 25 67 28
c-3 -7 -4 -14 -4 -22c0 -31 26 -53 65 -53zM483 332c0 -72 -57 -123 -152 -136c20 31 30 77 30 136c0 38 -7 101 -33 142c96 -22 154 -71 155 -142zM285 821c63 0 114 -50 114 -111c0 -62 -51 -113 -114 -113c-62 0 -112 51 -112 113c0 61 50 111 112 111zM285 633
c44 0 80 34 80 77c0 42 -36 77 -80 77c-43 0 -79 -35 -79 -77c0 -43 36 -77 79 -77z" />
    <glyph glyph-name="Omacron" unicode="&#x14c;" horiz-adv-x="820" 
d="M389 -7c-227 0 -372 141 -372 361c0 218 149 362 372 362c221 0 371 -144 371 -362c0 -220 -147 -361 -371 -361zM235 354c0 -133 55 -329 154 -329c112 0 153 178 153 329c0 159 -60 328 -153 328c-106 0 -154 -165 -154 -328zM727 354c0 167 -94 290 -250 322
c67 -69 96 -211 96 -322c0 -152 -31 -261 -87 -320c177 40 241 183 241 320zM292 673c-150 -35 -243 -152 -243 -319c0 -141 68 -286 254 -322c-69 69 -99 215 -99 322c0 151 31 262 88 319zM205 865h354c11 0 17 -9 17 -18c0 -8 -6 -15 -17 -15h-354c-11 0 -17 7 -17 15
c0 9 6 18 17 18z" />
    <glyph glyph-name="currency" unicode="&#xa4;" 
d="M232 374l-118 118c-6 6 -6 16 0 23c6 6 16 6 23 0l117 -118c27 22 60 35 98 35c35 0 68 -13 94 -34l118 119c7 6 17 6 23 0c6 -7 6 -17 0 -23l-118 -118c21 -26 34 -60 34 -96s-12 -69 -33 -95l119 -119c6 -6 6 -16 0 -23c-3 -3 -7 -4 -11 -4s-8 1 -12 4l-118 120
c-27 -22 -60 -35 -96 -35s-69 12 -94 33l-119 -119c-4 -4 -8 -5 -12 -5s-8 1 -11 5c-6 6 -6 16 0 22l119 119c-23 26 -36 60 -36 97c0 35 12 68 33 94zM471 280c0 66 -54 120 -119 120c-67 0 -121 -54 -121 -120s54 -120 121 -120c65 0 119 54 119 120z" />
    <glyph glyph-name="cent" unicode="&#xa2;" horiz-adv-x="531" 
d="M284 709c7 0 13 -7 13 -16v-599c0 -9 -6 -15 -13 -15c-9 0 -15 6 -15 15v599c0 9 6 16 15 16zM284 23c7 0 13 -7 13 -16v-158c0 -9 -6 -16 -13 -16c-9 0 -15 7 -15 16v158c0 9 6 16 15 16zM343 372c0 43 37 78 79 79c-21 14 -54 20 -91 23c-48 -3 -99 -70 -99 -223
c0 -79 31 -140 84 -164c45 -21 99 -10 144 28c10 13 20 27 28 40c4 9 13 12 22 8c8 -4 9 -14 6 -21c-45 -89 -136 -149 -228 -149c-140 0 -253 117 -253 258c0 143 113 257 253 257c77 0 181 -10 215 -103c5 -11 7 -22 7 -33c0 -43 -38 -80 -83 -80s-84 37 -84 80zM303 59
c-65 28 -103 100 -103 192c0 114 27 185 65 223c-112 -11 -199 -106 -199 -223c0 -123 100 -225 222 -225c28 0 55 7 80 18h-5c-21 0 -41 5 -60 15zM427 419c-28 0 -52 -20 -52 -47c0 -25 24 -49 52 -49s51 24 51 49c0 3 0 7 -1 9h-1c0 3 -1 8 -2 10c-8 17 -26 28 -47 28z
" />
    <glyph glyph-name="logicalnot" unicode="&#xac;" horiz-adv-x="833" 
d="M142 424h366c11 0 17 -7 17 -18c0 -7 -6 -14 -17 -14h-366c-11 0 -18 7 -18 14c0 11 7 18 18 18zM525 406v-182c0 -11 -8 -17 -19 -17c-7 0 -14 6 -14 17v182c0 11 7 18 14 18c11 0 19 -7 19 -18z" />
    <glyph glyph-name="uni00AD" unicode="&#xad;" horiz-adv-x="833" 
d="M226 239h214c11 0 18 -7 18 -18c0 -7 -7 -14 -18 -14h-214c-11 0 -18 7 -18 14c0 11 7 18 18 18z" />
  </font>
</defs>
</svg>
