<?xml version="1.0" encoding="utf-8"?>
<!-- Generator: Adobe Illustrator 16.0.0, SVG Export Plug-In . SVG Version: 6.00 Build 0)  -->
<!DOCTYPE svg PUBLIC "-//W3C//DTD SVG 1.1//EN" "http://www.w3.org/Graphics/SVG/1.1/DTD/svg11.dtd">
<svg version="1.1" id="Layer_1" xmlns="http://www.w3.org/2000/svg" xmlns:xlink="http://www.w3.org/1999/xlink" x="0px" y="0px"
	 width="280.833px" height="280.833px" viewBox="0 0 280.833 280.833" enable-background="new 0 0 280.833 280.833"
	 xml:space="preserve">
<g id="circles">
	<circle fill="#00828A" cx="138.695" cy="138.697" r="138.695"/>
</g>
<g id="icons">
	<g display="none">
		<g display="inline">
			<g>
				
					<line fill="none" stroke="#D1D3D4" stroke-width="1.117" stroke-miterlimit="10" x1="32.292" y1="193.486" x2="100.913" y2="124.849"/>
				
					<line fill="none" stroke="#D1D3D4" stroke-width="1.117" stroke-miterlimit="10" x1="100.912" y1="193.486" x2="32.292" y2="124.849"/>
				
					<line fill="none" stroke="#D1D3D4" stroke-width="1.117" stroke-miterlimit="10" x1="115.125" y1="133.702" x2="18.081" y2="133.702"/>
				
					<line fill="none" stroke="#D1D3D4" stroke-width="1.117" stroke-miterlimit="10" x1="41.145" y1="105.948" x2="41.145" y2="202.997"/>
				
					<line fill="none" stroke="#D1D3D4" stroke-width="1.117" stroke-miterlimit="10" x1="17.531" y1="184.646" x2="114.575" y2="184.646"/>
				
					<line fill="none" stroke="#D1D3D4" stroke-width="1.117" stroke-miterlimit="10" x1="91.511" y1="212.356" x2="91.511" y2="115.348"/>
				
					<rect x="34.445" y="127.003" fill="none" stroke="#D1D3D4" stroke-width="1.117" stroke-miterlimit="10" width="64.313" height="64.33"/>
			</g>
			<g>
				
					<line fill="none" stroke="#D1D3D4" stroke-width="1.117" stroke-miterlimit="10" x1="118.056" y1="193.486" x2="186.678" y2="124.849"/>
				
					<line fill="none" stroke="#D1D3D4" stroke-width="1.117" stroke-miterlimit="10" x1="186.677" y1="193.486" x2="118.055" y2="124.849"/>
				
					<line fill="none" stroke="#D1D3D4" stroke-width="1.117" stroke-miterlimit="10" x1="200.89" y1="133.702" x2="103.844" y2="133.702"/>
				
					<line fill="none" stroke="#D1D3D4" stroke-width="1.117" stroke-miterlimit="10" x1="126.908" y1="105.948" x2="126.908" y2="202.997"/>
				
					<line fill="none" stroke="#D1D3D4" stroke-width="1.117" stroke-miterlimit="10" x1="103.295" y1="184.646" x2="200.34" y2="184.646"/>
				
					<line fill="none" stroke="#D1D3D4" stroke-width="1.117" stroke-miterlimit="10" x1="177.275" y1="212.356" x2="177.275" y2="115.348"/>
				
					<rect x="120.21" y="127.003" fill="none" stroke="#D1D3D4" stroke-width="1.117" stroke-miterlimit="10" width="64.312" height="64.33"/>
			</g>
			<g>
				
					<line fill="none" stroke="#D1D3D4" stroke-width="1.117" stroke-miterlimit="10" x1="203.819" y1="193.486" x2="272.484" y2="124.849"/>
				
					<line fill="none" stroke="#D1D3D4" stroke-width="1.117" stroke-miterlimit="10" x1="272.484" y1="193.486" x2="203.819" y2="124.849"/>
				
					<line fill="none" stroke="#D1D3D4" stroke-width="1.117" stroke-miterlimit="10" x1="286.727" y1="133.702" x2="189.608" y2="133.702"/>
				
					<line fill="none" stroke="#D1D3D4" stroke-width="1.117" stroke-miterlimit="10" x1="212.673" y1="105.948" x2="212.673" y2="202.997"/>
				
					<line fill="none" stroke="#D1D3D4" stroke-width="1.117" stroke-miterlimit="10" x1="189.059" y1="184.646" x2="286.179" y2="184.646"/>
				
					<line fill="none" stroke="#D1D3D4" stroke-width="1.117" stroke-miterlimit="10" x1="263.048" y1="212.356" x2="263.048" y2="115.348"/>
				
					<rect x="205.975" y="127.003" fill="none" stroke="#D1D3D4" stroke-width="1.117" stroke-miterlimit="10" width="64.346" height="64.33"/>
			</g>
			<g>
				
					<line fill="none" stroke="#D1D3D4" stroke-width="1.117" stroke-miterlimit="10" x1="289.658" y1="193.486" x2="358.279" y2="124.849"/>
				
					<line fill="none" stroke="#D1D3D4" stroke-width="1.117" stroke-miterlimit="10" x1="358.279" y1="193.486" x2="289.658" y2="124.849"/>
				
					<line fill="none" stroke="#D1D3D4" stroke-width="1.117" stroke-miterlimit="10" x1="372.491" y1="133.702" x2="275.43" y2="133.702"/>
				
					<line fill="none" stroke="#D1D3D4" stroke-width="1.117" stroke-miterlimit="10" x1="298.512" y1="105.948" x2="298.512" y2="202.997"/>
				
					<line fill="none" stroke="#D1D3D4" stroke-width="1.117" stroke-miterlimit="10" x1="274.879" y1="184.646" x2="371.941" y2="184.646"/>
				
					<line fill="none" stroke="#D1D3D4" stroke-width="1.117" stroke-miterlimit="10" x1="348.879" y1="212.356" x2="348.879" y2="115.348"/>
				
					<rect x="291.812" y="127.003" fill="none" stroke="#D1D3D4" stroke-width="1.117" stroke-miterlimit="10" width="64.314" height="64.33"/>
			</g>
			<g>
				
					<line fill="none" stroke="#D1D3D4" stroke-width="1.117" stroke-miterlimit="10" x1="375.424" y1="193.486" x2="444.045" y2="124.849"/>
				
					<line fill="none" stroke="#D1D3D4" stroke-width="1.117" stroke-miterlimit="10" x1="444.045" y1="193.486" x2="375.424" y2="124.849"/>
				
					<line fill="none" stroke="#D1D3D4" stroke-width="1.117" stroke-miterlimit="10" x1="458.257" y1="133.702" x2="361.212" y2="133.702"/>
				
					<line fill="none" stroke="#D1D3D4" stroke-width="1.117" stroke-miterlimit="10" x1="384.277" y1="105.948" x2="384.277" y2="202.997"/>
				
					<line fill="none" stroke="#D1D3D4" stroke-width="1.117" stroke-miterlimit="10" x1="360.662" y1="184.646" x2="457.707" y2="184.646"/>
				
					<line fill="none" stroke="#D1D3D4" stroke-width="1.117" stroke-miterlimit="10" x1="434.644" y1="212.356" x2="434.644" y2="115.348"/>
				
					<rect x="377.577" y="127.003" fill="none" stroke="#D1D3D4" stroke-width="1.117" stroke-miterlimit="10" width="64.314" height="64.33"/>
			</g>
			<g>
				
					<line fill="none" stroke="#D1D3D4" stroke-width="1.117" stroke-miterlimit="10" x1="461.18" y1="193.486" x2="529.801" y2="124.849"/>
				
					<line fill="none" stroke="#D1D3D4" stroke-width="1.117" stroke-miterlimit="10" x1="529.801" y1="193.486" x2="461.18" y2="124.849"/>
				
					<line fill="none" stroke="#D1D3D4" stroke-width="1.117" stroke-miterlimit="10" x1="544.013" y1="133.702" x2="446.969" y2="133.702"/>
				
					<line fill="none" stroke="#D1D3D4" stroke-width="1.117" stroke-miterlimit="10" x1="470.033" y1="105.948" x2="470.033" y2="202.997"/>
				
					<line fill="none" stroke="#D1D3D4" stroke-width="1.117" stroke-miterlimit="10" x1="446.418" y1="184.646" x2="543.463" y2="184.646"/>
				
					<line fill="none" stroke="#D1D3D4" stroke-width="1.117" stroke-miterlimit="10" x1="520.4" y1="212.356" x2="520.4" y2="115.348"/>
				
					<rect x="463.333" y="127.003" fill="none" stroke="#D1D3D4" stroke-width="1.117" stroke-miterlimit="10" width="64.314" height="64.33"/>
			</g>
		</g>
		<g display="inline">
			<g>
				
					<line fill="none" stroke="#D1D3D4" stroke-width="1.117" stroke-miterlimit="10" x1="32.26" y1="272.442" x2="100.881" y2="203.878"/>
				
					<line fill="none" stroke="#D1D3D4" stroke-width="1.117" stroke-miterlimit="10" x1="100.88" y1="272.442" x2="32.259" y2="203.878"/>
				
					<line fill="none" stroke="#D1D3D4" stroke-width="1.117" stroke-miterlimit="10" x1="115.094" y1="212.688" x2="18.048" y2="212.688"/>
				
					<line fill="none" stroke="#D1D3D4" stroke-width="1.117" stroke-miterlimit="10" x1="41.114" y1="184.982" x2="41.114" y2="281.966"/>
				
					<line fill="none" stroke="#D1D3D4" stroke-width="1.117" stroke-miterlimit="10" x1="17.5" y1="263.611" x2="114.543" y2="263.611"/>
				
					<line fill="none" stroke="#D1D3D4" stroke-width="1.117" stroke-miterlimit="10" x1="91.479" y1="291.37" x2="91.479" y2="194.392"/>
				
					<rect x="34.414" y="206.021" fill="none" stroke="#D1D3D4" stroke-width="1.117" stroke-miterlimit="10" width="64.313" height="64.269"/>
			</g>
			<g>
				
					<line fill="none" stroke="#D1D3D4" stroke-width="1.117" stroke-miterlimit="10" x1="118.024" y1="272.442" x2="186.646" y2="203.878"/>
				
					<line fill="none" stroke="#D1D3D4" stroke-width="1.117" stroke-miterlimit="10" x1="186.645" y1="272.442" x2="118.024" y2="203.878"/>
				
					<line fill="none" stroke="#D1D3D4" stroke-width="1.117" stroke-miterlimit="10" x1="200.856" y1="212.688" x2="103.812" y2="212.688"/>
				
					<line fill="none" stroke="#D1D3D4" stroke-width="1.117" stroke-miterlimit="10" x1="126.877" y1="184.982" x2="126.877" y2="281.966"/>
				
					<line fill="none" stroke="#D1D3D4" stroke-width="1.117" stroke-miterlimit="10" x1="103.263" y1="263.611" x2="200.307" y2="263.611"/>
				
					<line fill="none" stroke="#D1D3D4" stroke-width="1.117" stroke-miterlimit="10" x1="177.243" y1="291.37" x2="177.243" y2="194.392"/>
				
					<rect x="120.177" y="206.021" fill="none" stroke="#D1D3D4" stroke-width="1.117" stroke-miterlimit="10" width="64.313" height="64.269"/>
			</g>
			<g>
				
					<line fill="none" stroke="#D1D3D4" stroke-width="1.117" stroke-miterlimit="10" x1="203.789" y1="272.442" x2="272.452" y2="203.878"/>
				
					<line fill="none" stroke="#D1D3D4" stroke-width="1.117" stroke-miterlimit="10" x1="272.452" y1="272.442" x2="203.789" y2="203.878"/>
				
					<line fill="none" stroke="#D1D3D4" stroke-width="1.117" stroke-miterlimit="10" x1="286.695" y1="212.688" x2="189.577" y2="212.688"/>
				
					<line fill="none" stroke="#D1D3D4" stroke-width="1.117" stroke-miterlimit="10" x1="212.643" y1="184.982" x2="212.643" y2="281.966"/>
				
					<line fill="none" stroke="#D1D3D4" stroke-width="1.117" stroke-miterlimit="10" x1="189.027" y1="263.611" x2="286.146" y2="263.611"/>
				
					<line fill="none" stroke="#D1D3D4" stroke-width="1.117" stroke-miterlimit="10" x1="263.018" y1="291.37" x2="263.018" y2="194.392"/>
				
					<rect x="205.942" y="206.021" fill="none" stroke="#D1D3D4" stroke-width="1.117" stroke-miterlimit="10" width="64.345" height="64.269"/>
			</g>
			<g>
				
					<line fill="none" stroke="#D1D3D4" stroke-width="1.117" stroke-miterlimit="10" x1="289.628" y1="272.442" x2="358.249" y2="203.878"/>
				
					<line fill="none" stroke="#D1D3D4" stroke-width="1.117" stroke-miterlimit="10" x1="358.249" y1="272.442" x2="289.626" y2="203.878"/>
				
					<line fill="none" stroke="#D1D3D4" stroke-width="1.117" stroke-miterlimit="10" x1="372.461" y1="212.688" x2="275.397" y2="212.688"/>
				
					<line fill="none" stroke="#D1D3D4" stroke-width="1.117" stroke-miterlimit="10" x1="298.481" y1="184.982" x2="298.481" y2="281.966"/>
				
					<line fill="none" stroke="#D1D3D4" stroke-width="1.117" stroke-miterlimit="10" x1="274.846" y1="263.611" x2="371.911" y2="263.611"/>
				
					<line fill="none" stroke="#D1D3D4" stroke-width="1.117" stroke-miterlimit="10" x1="348.846" y1="291.37" x2="348.846" y2="194.392"/>
				
					<rect x="291.781" y="206.021" fill="none" stroke="#D1D3D4" stroke-width="1.117" stroke-miterlimit="10" width="64.312" height="64.269"/>
			</g>
			<g>
				
					<line fill="none" stroke="#D1D3D4" stroke-width="1.117" stroke-miterlimit="10" x1="375.393" y1="272.442" x2="444.015" y2="203.878"/>
				
					<line fill="none" stroke="#D1D3D4" stroke-width="1.117" stroke-miterlimit="10" x1="444.015" y1="272.442" x2="375.391" y2="203.878"/>
				
					<line fill="none" stroke="#D1D3D4" stroke-width="1.117" stroke-miterlimit="10" x1="458.224" y1="212.688" x2="361.182" y2="212.688"/>
				
					<line fill="none" stroke="#D1D3D4" stroke-width="1.117" stroke-miterlimit="10" x1="384.246" y1="184.982" x2="384.246" y2="281.966"/>
				
					<line fill="none" stroke="#D1D3D4" stroke-width="1.117" stroke-miterlimit="10" x1="360.632" y1="263.611" x2="457.676" y2="263.611"/>
				
					<line fill="none" stroke="#D1D3D4" stroke-width="1.117" stroke-miterlimit="10" x1="434.611" y1="291.37" x2="434.611" y2="194.392"/>
				
					<rect x="377.547" y="206.021" fill="none" stroke="#D1D3D4" stroke-width="1.117" stroke-miterlimit="10" width="64.312" height="64.269"/>
			</g>
			<g>
				
					<line fill="none" stroke="#D1D3D4" stroke-width="1.117" stroke-miterlimit="10" x1="461.149" y1="272.442" x2="529.771" y2="203.878"/>
				
					<line fill="none" stroke="#D1D3D4" stroke-width="1.117" stroke-miterlimit="10" x1="529.771" y1="272.442" x2="461.147" y2="203.878"/>
				
					<line fill="none" stroke="#D1D3D4" stroke-width="1.117" stroke-miterlimit="10" x1="543.982" y1="212.688" x2="446.938" y2="212.688"/>
				
					<line fill="none" stroke="#D1D3D4" stroke-width="1.117" stroke-miterlimit="10" x1="470.003" y1="184.982" x2="470.003" y2="281.966"/>
				
					<line fill="none" stroke="#D1D3D4" stroke-width="1.117" stroke-miterlimit="10" x1="446.388" y1="263.611" x2="543.433" y2="263.611"/>
				
					<line fill="none" stroke="#D1D3D4" stroke-width="1.117" stroke-miterlimit="10" x1="520.367" y1="291.37" x2="520.367" y2="194.392"/>
				
					<rect x="463.303" y="206.021" fill="none" stroke="#D1D3D4" stroke-width="1.117" stroke-miterlimit="10" width="64.312" height="64.269"/>
			</g>
		</g>
		<g display="inline">
			<g>
				
					<line fill="none" stroke="#D1D3D4" stroke-width="1.117" stroke-miterlimit="10" x1="32.229" y1="351.477" x2="100.851" y2="282.85"/>
				
					<line fill="none" stroke="#D1D3D4" stroke-width="1.117" stroke-miterlimit="10" x1="100.849" y1="351.477" x2="32.228" y2="282.85"/>
				
					<line fill="none" stroke="#D1D3D4" stroke-width="1.117" stroke-miterlimit="10" x1="115.061" y1="291.702" x2="18.017" y2="291.702"/>
				
					<line fill="none" stroke="#D1D3D4" stroke-width="1.117" stroke-miterlimit="10" x1="41.081" y1="263.949" x2="41.081" y2="361"/>
				
					<line fill="none" stroke="#D1D3D4" stroke-width="1.117" stroke-miterlimit="10" x1="17.467" y1="342.646" x2="114.512" y2="342.646"/>
				
					<line fill="none" stroke="#D1D3D4" stroke-width="1.117" stroke-miterlimit="10" x1="91.448" y1="370.405" x2="91.448" y2="273.348"/>
				
					<rect x="34.381" y="285.005" fill="none" stroke="#D1D3D4" stroke-width="1.117" stroke-miterlimit="10" width="64.313" height="64.318"/>
			</g>
			<g>
				
					<line fill="none" stroke="#D1D3D4" stroke-width="1.117" stroke-miterlimit="10" x1="117.992" y1="351.477" x2="186.614" y2="282.85"/>
				
					<line fill="none" stroke="#D1D3D4" stroke-width="1.117" stroke-miterlimit="10" x1="186.614" y1="351.477" x2="117.991" y2="282.85"/>
				
					<line fill="none" stroke="#D1D3D4" stroke-width="1.117" stroke-miterlimit="10" x1="200.826" y1="291.702" x2="103.782" y2="291.702"/>
				
					<line fill="none" stroke="#D1D3D4" stroke-width="1.117" stroke-miterlimit="10" x1="126.846" y1="263.949" x2="126.846" y2="361"/>
				
					<line fill="none" stroke="#D1D3D4" stroke-width="1.117" stroke-miterlimit="10" x1="103.232" y1="342.646" x2="200.276" y2="342.646"/>
				
					<line fill="none" stroke="#D1D3D4" stroke-width="1.117" stroke-miterlimit="10" x1="177.211" y1="370.405" x2="177.211" y2="273.348"/>
				
					<rect x="120.146" y="285.005" fill="none" stroke="#D1D3D4" stroke-width="1.117" stroke-miterlimit="10" width="64.313" height="64.318"/>
			</g>
			<g>
				
					<line fill="none" stroke="#D1D3D4" stroke-width="1.117" stroke-miterlimit="10" x1="203.757" y1="351.477" x2="272.42" y2="282.85"/>
				
					<line fill="none" stroke="#D1D3D4" stroke-width="1.117" stroke-miterlimit="10" x1="272.42" y1="351.477" x2="203.756" y2="282.85"/>
				
					<line fill="none" stroke="#D1D3D4" stroke-width="1.117" stroke-miterlimit="10" x1="286.663" y1="291.702" x2="189.547" y2="291.702"/>
				
					<line fill="none" stroke="#D1D3D4" stroke-width="1.117" stroke-miterlimit="10" x1="212.609" y1="263.949" x2="212.609" y2="361"/>
				
					<line fill="none" stroke="#D1D3D4" stroke-width="1.117" stroke-miterlimit="10" x1="188.997" y1="342.646" x2="286.115" y2="342.646"/>
				
					<line fill="none" stroke="#D1D3D4" stroke-width="1.117" stroke-miterlimit="10" x1="262.987" y1="370.405" x2="262.987" y2="273.348"/>
				
					<rect x="205.91" y="285.005" fill="none" stroke="#D1D3D4" stroke-width="1.117" stroke-miterlimit="10" width="64.347" height="64.318"/>
			</g>
			<g>
				
					<line fill="none" stroke="#D1D3D4" stroke-width="1.117" stroke-miterlimit="10" x1="289.596" y1="351.477" x2="358.217" y2="282.85"/>
				
					<line fill="none" stroke="#D1D3D4" stroke-width="1.117" stroke-miterlimit="10" x1="358.217" y1="351.477" x2="289.596" y2="282.85"/>
				
					<line fill="none" stroke="#D1D3D4" stroke-width="1.117" stroke-miterlimit="10" x1="372.428" y1="291.702" x2="275.366" y2="291.702"/>
				
					<line fill="none" stroke="#D1D3D4" stroke-width="1.117" stroke-miterlimit="10" x1="298.448" y1="263.949" x2="298.448" y2="361"/>
				
					<line fill="none" stroke="#D1D3D4" stroke-width="1.117" stroke-miterlimit="10" x1="274.814" y1="342.646" x2="371.878" y2="342.646"/>
				
					<line fill="none" stroke="#D1D3D4" stroke-width="1.117" stroke-miterlimit="10" x1="348.815" y1="370.405" x2="348.815" y2="273.348"/>
				
					<rect x="291.749" y="285.005" fill="none" stroke="#D1D3D4" stroke-width="1.117" stroke-miterlimit="10" width="64.314" height="64.318"/>
			</g>
			<g>
				
					<line fill="none" stroke="#D1D3D4" stroke-width="1.117" stroke-miterlimit="10" x1="375.36" y1="351.477" x2="443.981" y2="282.85"/>
				
					<line fill="none" stroke="#D1D3D4" stroke-width="1.117" stroke-miterlimit="10" x1="443.981" y1="351.477" x2="375.36" y2="282.85"/>
				
					<line fill="none" stroke="#D1D3D4" stroke-width="1.117" stroke-miterlimit="10" x1="458.193" y1="291.702" x2="361.148" y2="291.702"/>
				
					<line fill="none" stroke="#D1D3D4" stroke-width="1.117" stroke-miterlimit="10" x1="384.214" y1="263.949" x2="384.214" y2="361"/>
				
					<line fill="none" stroke="#D1D3D4" stroke-width="1.117" stroke-miterlimit="10" x1="360.599" y1="342.646" x2="457.644" y2="342.646"/>
				
					<line fill="none" stroke="#D1D3D4" stroke-width="1.117" stroke-miterlimit="10" x1="434.58" y1="370.405" x2="434.58" y2="273.348"/>
				
					<rect x="377.514" y="285.005" fill="none" stroke="#D1D3D4" stroke-width="1.117" stroke-miterlimit="10" width="64.314" height="64.318"/>
			</g>
			<g>
				
					<line fill="none" stroke="#D1D3D4" stroke-width="1.117" stroke-miterlimit="10" x1="461.116" y1="351.477" x2="529.738" y2="282.85"/>
				
					<line fill="none" stroke="#D1D3D4" stroke-width="1.117" stroke-miterlimit="10" x1="529.738" y1="351.477" x2="461.116" y2="282.85"/>
				
					<line fill="none" stroke="#D1D3D4" stroke-width="1.117" stroke-miterlimit="10" x1="543.949" y1="291.702" x2="446.905" y2="291.702"/>
				
					<line fill="none" stroke="#D1D3D4" stroke-width="1.117" stroke-miterlimit="10" x1="469.97" y1="263.949" x2="469.97" y2="361"/>
				
					<line fill="none" stroke="#D1D3D4" stroke-width="1.117" stroke-miterlimit="10" x1="446.355" y1="342.646" x2="543.399" y2="342.646"/>
				
					<line fill="none" stroke="#D1D3D4" stroke-width="1.117" stroke-miterlimit="10" x1="520.337" y1="370.405" x2="520.337" y2="273.348"/>
				
					<rect x="463.27" y="285.005" fill="none" stroke="#D1D3D4" stroke-width="1.117" stroke-miterlimit="10" width="64.313" height="64.318"/>
			</g>
		</g>
		<g display="inline">
			<g>
				
					<line fill="none" stroke="#D1D3D4" stroke-width="1.117" stroke-miterlimit="10" x1="32.196" y1="430.512" x2="100.818" y2="361.884"/>
				
					<line fill="none" stroke="#D1D3D4" stroke-width="1.117" stroke-miterlimit="10" x1="100.816" y1="430.512" x2="32.196" y2="361.884"/>
				
					<line fill="none" stroke="#D1D3D4" stroke-width="1.117" stroke-miterlimit="10" x1="115.03" y1="370.737" x2="17.985" y2="370.737"/>
				
					<line fill="none" stroke="#D1D3D4" stroke-width="1.117" stroke-miterlimit="10" x1="41.05" y1="342.983" x2="41.05" y2="440.034"/>
				
					<line fill="none" stroke="#D1D3D4" stroke-width="1.117" stroke-miterlimit="10" x1="17.436" y1="421.68" x2="114.48" y2="421.68"/>
				
					<line fill="none" stroke="#D1D3D4" stroke-width="1.117" stroke-miterlimit="10" x1="91.416" y1="449.439" x2="91.416" y2="352.383"/>
				
					<rect x="34.35" y="364.039" fill="none" stroke="#D1D3D4" stroke-width="1.117" stroke-miterlimit="10" width="64.313" height="64.319"/>
			</g>
			<g>
				
					<line fill="none" stroke="#D1D3D4" stroke-width="1.117" stroke-miterlimit="10" x1="117.961" y1="430.512" x2="186.583" y2="361.884"/>
				
					<line fill="none" stroke="#D1D3D4" stroke-width="1.117" stroke-miterlimit="10" x1="186.582" y1="430.512" x2="117.96" y2="361.884"/>
				
					<line fill="none" stroke="#D1D3D4" stroke-width="1.117" stroke-miterlimit="10" x1="200.794" y1="370.737" x2="103.749" y2="370.737"/>
				
					<line fill="none" stroke="#D1D3D4" stroke-width="1.117" stroke-miterlimit="10" x1="126.813" y1="342.983" x2="126.813" y2="440.034"/>
				
					<line fill="none" stroke="#D1D3D4" stroke-width="1.117" stroke-miterlimit="10" x1="103.201" y1="421.68" x2="200.246" y2="421.68"/>
				
					<line fill="none" stroke="#D1D3D4" stroke-width="1.117" stroke-miterlimit="10" x1="177.181" y1="449.439" x2="177.181" y2="352.383"/>
				
					<rect x="120.114" y="364.039" fill="none" stroke="#D1D3D4" stroke-width="1.117" stroke-miterlimit="10" width="64.314" height="64.319"/>
			</g>
			<g>
				
					<line fill="none" stroke="#D1D3D4" stroke-width="1.117" stroke-miterlimit="10" x1="203.725" y1="430.512" x2="272.388" y2="361.884"/>
				
					<line fill="none" stroke="#D1D3D4" stroke-width="1.117" stroke-miterlimit="10" x1="272.388" y1="430.512" x2="203.725" y2="361.884"/>
				
					<line fill="none" stroke="#D1D3D4" stroke-width="1.117" stroke-miterlimit="10" x1="286.633" y1="370.737" x2="189.514" y2="370.737"/>
				
					<line fill="none" stroke="#D1D3D4" stroke-width="1.117" stroke-miterlimit="10" x1="212.579" y1="342.983" x2="212.579" y2="440.034"/>
				
					<line fill="none" stroke="#D1D3D4" stroke-width="1.117" stroke-miterlimit="10" x1="188.965" y1="421.68" x2="286.083" y2="421.68"/>
				
					<line fill="none" stroke="#D1D3D4" stroke-width="1.117" stroke-miterlimit="10" x1="262.954" y1="449.439" x2="262.954" y2="352.383"/>
				
					<rect x="205.879" y="364.039" fill="none" stroke="#D1D3D4" stroke-width="1.117" stroke-miterlimit="10" width="64.346" height="64.319"/>
			</g>
			<g>
				
					<line fill="none" stroke="#D1D3D4" stroke-width="1.117" stroke-miterlimit="10" x1="289.564" y1="430.512" x2="358.186" y2="361.884"/>
				
					<line fill="none" stroke="#D1D3D4" stroke-width="1.117" stroke-miterlimit="10" x1="358.186" y1="430.512" x2="289.562" y2="361.884"/>
				
					<line fill="none" stroke="#D1D3D4" stroke-width="1.117" stroke-miterlimit="10" x1="372.397" y1="370.737" x2="275.333" y2="370.737"/>
				
					<line fill="none" stroke="#D1D3D4" stroke-width="1.117" stroke-miterlimit="10" x1="298.418" y1="342.983" x2="298.418" y2="440.034"/>
				
					<line fill="none" stroke="#D1D3D4" stroke-width="1.117" stroke-miterlimit="10" x1="274.783" y1="421.68" x2="371.848" y2="421.68"/>
				
					<line fill="none" stroke="#D1D3D4" stroke-width="1.117" stroke-miterlimit="10" x1="348.783" y1="449.439" x2="348.783" y2="352.383"/>
				
					<rect x="291.718" y="364.039" fill="none" stroke="#D1D3D4" stroke-width="1.117" stroke-miterlimit="10" width="64.312" height="64.319"/>
			</g>
			<g>
				
					<line fill="none" stroke="#D1D3D4" stroke-width="1.117" stroke-miterlimit="10" x1="375.33" y1="430.512" x2="443.951" y2="361.884"/>
				
					<line fill="none" stroke="#D1D3D4" stroke-width="1.117" stroke-miterlimit="10" x1="443.951" y1="430.512" x2="375.327" y2="361.884"/>
				
					<line fill="none" stroke="#D1D3D4" stroke-width="1.117" stroke-miterlimit="10" x1="458.16" y1="370.737" x2="361.118" y2="370.737"/>
				
					<line fill="none" stroke="#D1D3D4" stroke-width="1.117" stroke-miterlimit="10" x1="384.184" y1="342.983" x2="384.184" y2="440.034"/>
				
					<line fill="none" stroke="#D1D3D4" stroke-width="1.117" stroke-miterlimit="10" x1="360.568" y1="421.68" x2="457.613" y2="421.68"/>
				
					<line fill="none" stroke="#D1D3D4" stroke-width="1.117" stroke-miterlimit="10" x1="434.548" y1="449.439" x2="434.548" y2="352.383"/>
				
					<rect x="377.483" y="364.039" fill="none" stroke="#D1D3D4" stroke-width="1.117" stroke-miterlimit="10" width="64.312" height="64.319"/>
			</g>
			<g>
				
					<line fill="none" stroke="#D1D3D4" stroke-width="1.117" stroke-miterlimit="10" x1="461.086" y1="430.512" x2="529.707" y2="361.884"/>
				
					<line fill="none" stroke="#D1D3D4" stroke-width="1.117" stroke-miterlimit="10" x1="529.707" y1="430.512" x2="461.084" y2="361.884"/>
				
					<line fill="none" stroke="#D1D3D4" stroke-width="1.117" stroke-miterlimit="10" x1="543.919" y1="370.737" x2="446.874" y2="370.737"/>
				
					<line fill="none" stroke="#D1D3D4" stroke-width="1.117" stroke-miterlimit="10" x1="469.939" y1="342.983" x2="469.939" y2="440.034"/>
				
					<line fill="none" stroke="#D1D3D4" stroke-width="1.117" stroke-miterlimit="10" x1="446.324" y1="421.68" x2="543.369" y2="421.68"/>
				
					<line fill="none" stroke="#D1D3D4" stroke-width="1.117" stroke-miterlimit="10" x1="520.304" y1="449.439" x2="520.304" y2="352.383"/>
				
					<rect x="463.239" y="364.039" fill="none" stroke="#D1D3D4" stroke-width="1.117" stroke-miterlimit="10" width="64.312" height="64.319"/>
			</g>
		</g>
		<g display="inline">
			<g>
				
					<line fill="none" stroke="#D1D3D4" stroke-width="1.117" stroke-miterlimit="10" x1="32.165" y1="509.546" x2="100.787" y2="440.918"/>
				
					<line fill="none" stroke="#D1D3D4" stroke-width="1.117" stroke-miterlimit="10" x1="100.786" y1="509.546" x2="32.164" y2="440.918"/>
				
					<line fill="none" stroke="#D1D3D4" stroke-width="1.117" stroke-miterlimit="10" x1="114.999" y1="449.771" x2="17.953" y2="449.771"/>
				
					<line fill="none" stroke="#D1D3D4" stroke-width="1.117" stroke-miterlimit="10" x1="41.019" y1="422.018" x2="41.019" y2="519.069"/>
				
					<line fill="none" stroke="#D1D3D4" stroke-width="1.117" stroke-miterlimit="10" x1="17.405" y1="500.715" x2="114.449" y2="500.715"/>
				
					<line fill="none" stroke="#D1D3D4" stroke-width="1.117" stroke-miterlimit="10" x1="91.385" y1="528.475" x2="91.385" y2="431.417"/>
				
					<rect x="34.319" y="443.073" fill="none" stroke="#D1D3D4" stroke-width="1.117" stroke-miterlimit="10" width="64.313" height="64.319"/>
			</g>
			<g>
				
					<line fill="none" stroke="#D1D3D4" stroke-width="1.117" stroke-miterlimit="10" x1="117.929" y1="509.546" x2="186.551" y2="440.918"/>
				
					<line fill="none" stroke="#D1D3D4" stroke-width="1.117" stroke-miterlimit="10" x1="186.55" y1="509.546" x2="117.929" y2="440.918"/>
				
					<line fill="none" stroke="#D1D3D4" stroke-width="1.117" stroke-miterlimit="10" x1="200.763" y1="449.771" x2="103.718" y2="449.771"/>
				
					<line fill="none" stroke="#D1D3D4" stroke-width="1.117" stroke-miterlimit="10" x1="126.782" y1="422.018" x2="126.782" y2="519.069"/>
				
					<line fill="none" stroke="#D1D3D4" stroke-width="1.117" stroke-miterlimit="10" x1="103.168" y1="500.715" x2="200.213" y2="500.715"/>
				
					<line fill="none" stroke="#D1D3D4" stroke-width="1.117" stroke-miterlimit="10" x1="177.148" y1="528.475" x2="177.148" y2="431.417"/>
				
					<rect x="120.082" y="443.073" fill="none" stroke="#D1D3D4" stroke-width="1.117" stroke-miterlimit="10" width="64.313" height="64.319"/>
			</g>
			<g>
				
					<line fill="none" stroke="#D1D3D4" stroke-width="1.117" stroke-miterlimit="10" x1="203.692" y1="509.546" x2="272.357" y2="440.918"/>
				
					<line fill="none" stroke="#D1D3D4" stroke-width="1.117" stroke-miterlimit="10" x1="272.357" y1="509.546" x2="203.692" y2="440.918"/>
				
					<line fill="none" stroke="#D1D3D4" stroke-width="1.117" stroke-miterlimit="10" x1="286.6" y1="449.771" x2="189.482" y2="449.771"/>
				
					<line fill="none" stroke="#D1D3D4" stroke-width="1.117" stroke-miterlimit="10" x1="212.546" y1="422.018" x2="212.546" y2="519.069"/>
				
					<line fill="none" stroke="#D1D3D4" stroke-width="1.117" stroke-miterlimit="10" x1="188.934" y1="500.715" x2="286.052" y2="500.715"/>
				
					<line fill="none" stroke="#D1D3D4" stroke-width="1.117" stroke-miterlimit="10" x1="262.923" y1="528.475" x2="262.923" y2="431.417"/>
				
					<rect x="205.846" y="443.073" fill="none" stroke="#D1D3D4" stroke-width="1.117" stroke-miterlimit="10" width="64.347" height="64.319"/>
			</g>
			<g>
				
					<line fill="none" stroke="#D1D3D4" stroke-width="1.117" stroke-miterlimit="10" x1="289.532" y1="509.546" x2="358.153" y2="440.918"/>
				
					<line fill="none" stroke="#D1D3D4" stroke-width="1.117" stroke-miterlimit="10" x1="358.153" y1="509.546" x2="289.532" y2="440.918"/>
				
					<line fill="none" stroke="#D1D3D4" stroke-width="1.117" stroke-miterlimit="10" x1="372.365" y1="449.771" x2="275.303" y2="449.771"/>
				
					<line fill="none" stroke="#D1D3D4" stroke-width="1.117" stroke-miterlimit="10" x1="298.386" y1="422.018" x2="298.386" y2="519.069"/>
				
					<line fill="none" stroke="#D1D3D4" stroke-width="1.117" stroke-miterlimit="10" x1="274.751" y1="500.715" x2="371.815" y2="500.715"/>
				
					<line fill="none" stroke="#D1D3D4" stroke-width="1.117" stroke-miterlimit="10" x1="348.752" y1="528.475" x2="348.752" y2="431.417"/>
				
					<rect x="291.686" y="443.073" fill="none" stroke="#D1D3D4" stroke-width="1.117" stroke-miterlimit="10" width="64.314" height="64.319"/>
			</g>
			<g>
				
					<line fill="none" stroke="#D1D3D4" stroke-width="1.117" stroke-miterlimit="10" x1="375.297" y1="509.546" x2="443.918" y2="440.918"/>
				
					<line fill="none" stroke="#D1D3D4" stroke-width="1.117" stroke-miterlimit="10" x1="443.918" y1="509.546" x2="375.297" y2="440.918"/>
				
					<line fill="none" stroke="#D1D3D4" stroke-width="1.117" stroke-miterlimit="10" x1="458.13" y1="449.771" x2="361.085" y2="449.771"/>
				
					<line fill="none" stroke="#D1D3D4" stroke-width="1.117" stroke-miterlimit="10" x1="384.15" y1="422.018" x2="384.15" y2="519.069"/>
				
					<line fill="none" stroke="#D1D3D4" stroke-width="1.117" stroke-miterlimit="10" x1="360.535" y1="500.715" x2="457.58" y2="500.715"/>
				
					<line fill="none" stroke="#D1D3D4" stroke-width="1.117" stroke-miterlimit="10" x1="434.518" y1="528.475" x2="434.518" y2="431.417"/>
				
					<rect x="377.45" y="443.073" fill="none" stroke="#D1D3D4" stroke-width="1.117" stroke-miterlimit="10" width="64.314" height="64.319"/>
			</g>
			<g>
				
					<line fill="none" stroke="#D1D3D4" stroke-width="1.117" stroke-miterlimit="10" x1="461.054" y1="509.546" x2="529.675" y2="440.918"/>
				
					<line fill="none" stroke="#D1D3D4" stroke-width="1.117" stroke-miterlimit="10" x1="529.675" y1="509.546" x2="461.054" y2="440.918"/>
				
					<line fill="none" stroke="#D1D3D4" stroke-width="1.117" stroke-miterlimit="10" x1="543.886" y1="449.771" x2="446.842" y2="449.771"/>
				
					<line fill="none" stroke="#D1D3D4" stroke-width="1.117" stroke-miterlimit="10" x1="469.906" y1="422.018" x2="469.906" y2="519.069"/>
				
					<line fill="none" stroke="#D1D3D4" stroke-width="1.117" stroke-miterlimit="10" x1="446.292" y1="500.715" x2="543.336" y2="500.715"/>
				
					<line fill="none" stroke="#D1D3D4" stroke-width="1.117" stroke-miterlimit="10" x1="520.273" y1="528.475" x2="520.273" y2="431.417"/>
				
					<rect x="463.207" y="443.073" fill="none" stroke="#D1D3D4" stroke-width="1.117" stroke-miterlimit="10" width="64.314" height="64.319"/>
			</g>
		</g>
	</g>
	<g>
		<polygon fill="#E6E7E8" points="152.863,105.231 56.965,202.595 36.975,182.916 132.884,85.552 		"/>
		
			<rect x="40.934" y="180.794" transform="matrix(-0.6998 0.7143 -0.7143 -0.6998 203.3967 287.1044)" fill="#576877" width="0.874" height="10.992"/>
		<polygon fill="#576877" points="44.825,181.479 44.203,182.098 40.942,178.889 41.562,178.268 		"/>
		<polygon fill="#576877" points="48.613,177.609 48.015,178.234 44.754,175.027 45.364,174.406 		"/>
		<polygon fill="#576877" points="52.413,173.758 51.817,174.355 48.551,171.161 49.178,170.537 		"/>
		<polygon fill="#576877" points="56.229,169.883 55.616,170.509 52.355,167.302 52.977,166.677 		"/>
		<polygon fill="#576877" points="64.611,170.516 64,171.152 56.169,163.44 56.78,162.808 		"/>
		<polygon fill="#576877" points="63.843,162.161 63.22,162.785 59.966,159.572 60.591,158.95 		"/>
		<polygon fill="#576877" points="67.642,158.292 67.028,158.922 63.768,155.719 64.382,155.085 		"/>
		<polygon fill="#576877" points="71.442,154.428 70.844,155.056 67.581,151.845 68.183,151.233 		"/>
		<polygon fill="#576877" points="75.242,150.562 74.645,151.189 71.382,147.987 71.993,147.359 		"/>
		<polygon fill="#576877" points="83.63,151.212 83.027,151.831 75.186,144.123 75.806,143.503 		"/>
		<polygon fill="#576877" points="82.859,142.836 82.256,143.473 78.994,140.266 79.608,139.634 		"/>
		
			<rect x="84.289" y="135.394" transform="matrix(-0.7041 0.7101 -0.7101 -0.7041 242.1623 174.4474)" fill="#576877" width="0.89" height="4.572"/>
		<polygon fill="#576877" points="90.486,135.114 89.871,135.734 86.608,132.528 87.219,131.908 		"/>
		
			<rect x="91.894" y="127.673" transform="matrix(-0.7021 0.7121 -0.7121 -0.7021 249.7033 155.4518)" fill="#576877" width="0.883" height="4.566"/>
		<polygon fill="#576877" points="102.66,131.89 102.037,132.519 94.207,124.81 94.832,124.186 		"/>
		<polygon fill="#576877" points="101.877,123.528 101.263,124.156 98.019,120.944 98.629,120.33 		"/>
		<polygon fill="#576877" points="105.693,119.662 105.068,120.295 101.818,117.076 102.43,116.459 		"/>
		<polygon fill="#576877" points="109.492,115.806 108.88,116.421 105.616,113.223 106.227,112.591 		"/>
		<polygon fill="#576877" points="113.303,111.945 112.676,112.569 109.427,109.35 110.042,108.729 		"/>
		<polygon fill="#576877" points="121.674,112.564 121.079,113.198 113.231,105.497 113.845,104.865 		"/>
		<polygon fill="#576877" points="120.905,104.21 120.28,104.839 117.03,101.627 117.661,101.008 		"/>
		<polygon fill="#576877" points="124.726,100.342 124.097,100.97 120.843,97.771 121.454,97.139 		"/>
		<polygon fill="#576877" points="128.607,96.678 127.979,97.307 124.726,94.104 125.341,93.477 		"/>
		<polygon fill="#576877" points="132.49,93.015 131.861,93.647 128.607,90.441 129.222,89.812 		"/>
		<polygon fill="#576877" points="139.426,92.357 138.791,92.982 132.494,86.783 133.105,86.154 		"/>
		<polygon fill="#D1D3D4" points="46.969,192.76 56.965,202.595 152.863,105.231 142.864,95.391 		"/>
		<g>
			<polygon fill="#F17046" points="67.749,98.598 46.523,121.454 40.506,115.841 61.676,93.024 			"/>
			<path fill="#F17046" d="M40.725,115.961c-3.043-2.785-0.76-10.158,5.066-16.442c5.839-6.284,13.055-9.137,16.094-6.339
				L40.725,115.961z"/>
			<polygon fill="#FFFFFF" points="147.636,194.008 143.944,169.51 122.965,192.149 			"/>
			<polygon fill="#576877" points="147.626,194.115 146.863,188.825 141.676,193.565 			"/>
			<polygon fill="#FBD589" points="144.099,169.342 122.991,192.102 46.354,121.285 67.528,98.461 			"/>
			<polygon fill="#FACB6B" points="133.54,180.729 122.991,192.102 46.354,121.285 56.907,109.909 			"/>
			<polygon fill="#576877" points="72.197,102.747 50.922,125.658 49.684,124.509 70.971,101.606 			"/>
			<polygon fill="#576877" points="75.19,105.492 53.9,128.399 52.669,127.238 73.946,104.344 			"/>
		</g>
	</g>
</g>
<g id="Layer_4">
	<g>
		<g>
			<g>
				<g>
					<g>
						<g>
							<g>
								<path fill="#DFFFF8" d="M210.786,198.297c0,0.386-0.128,0.771-0.392,1.091l-16.928,20.606
									c-0.327,0.397-0.813,0.627-1.327,0.627s-1-0.229-1.328-0.627l-16.93-20.606c-0.601-0.731-0.497-1.814,0.237-2.417
									c0.732-0.604,1.814-0.495,2.417,0.236l15.604,18.991l15.603-18.991c0.602-0.731,1.685-0.839,2.417-0.236
									C210.571,197.312,210.786,197.803,210.786,198.297z"/>
								<g>
									<path fill="#E9FDFF" d="M209.59,197.064c-0.875,2.441-3.152,4.453-4.78,6.432c-2.921,3.557-5.841,7.112-8.764,10.669
										c-0.443,0.537-5.068,5.642-4.654,6.144c-2.303-2.804-4.607-5.606-6.909-8.408c-2.733-3.327-5.467-6.653-8.198-9.979
										c-1.229-1.495-2.047-1.701-0.971-3.718c1.044-1.957,0.86-1.048,2.203,0.587c4.632,5.636,9.262,11.273,13.894,16.908
										c0.122,0.148,1.756,1.938,1.925,1.732c2.601-3.166,5.2-6.331,7.801-9.495c1.752-2.132,6.564-10.824,10.137-9.738
										c-0.769-0.792-1.537-1.584-2.306-2.379c0.209,0.443,0.419,0.886,0.628,1.328c0.425,0.897,2.164,1.837,2.384,2.303
										c-0.955-2.021-2.005-3.422-4.19-4.089c-1.278-0.388-3.98,3.947-4.497,4.575c-4.116,5.012-8.231,10.02-12.346,15.03
										c0.642,0.577,1.282,1.153,1.925,1.731c-5.188-6.314-10.376-12.627-15.562-18.942c-0.518-0.629-1.153-1.385-1.886-1.774
										c-2.068-1.104-4.15,0.456-2.489,2.636c2.312,3.034,4.857,5.916,7.279,8.865c1.404,1.709,11.583,17.236,14.784,13.34
										c3.179-3.868,6.356-7.738,9.537-11.608c2.369-2.885,6.168-6.113,7.45-9.682
										C212.234,198.828,209.524,197.249,209.59,197.064z"/>
								</g>
							</g>
						</g>
					</g>
					<g>
						<g>
							<g>
								<path fill="#E9FFFF" d="M193.856,181.9v37.003c0,0.949-0.769,1.718-1.718,1.718c-0.948,0-1.717-0.769-1.717-1.718V181.9
									c0-0.947,0.768-1.718,1.717-1.718C193.088,180.185,193.856,180.953,193.856,181.9z"/>
								<g>
									<path fill="#D4ECFF" d="M192.18,181.583c0,12.319,0,24.641,0,36.958c0,1.553-0.083-0.474-0.083-0.789
										c0-1.301,0-2.602,0-3.901c0-4.377,0-8.753,0-13.132c0-4.1,0-8.198,0-12.298c0-1.265,0.435-5.473,0.201-6.037
										c0.765,1.844,3.957,1.064,3.117-0.968c-1.252-3.021-6.669-4.103-6.669,0.339c0,3.586,0,7.174,0,10.761
										c0,5.71,0,11.419,0,17.129c0,3.001-0.442,6.368,0.002,9.349c0.559,3.73,6.784,4.385,6.784,0.187c0-3.294,0-6.586,0-9.88
										c0-9.027,0-18.054,0-27.08C195.532,180.27,192.18,179.528,192.18,181.583z"/>
								</g>
							</g>
						</g>
					</g>
				</g>
			</g>
		</g>
		<g>
			<g>
				<g>
					<path fill="#E9F3FF" d="M208.741,152.043c0,1.054-0.279,1.906-0.626,1.906h-31.953c-0.345,0-0.626-0.853-0.626-1.906
						s0.278-1.908,0.626-1.908h31.953C208.461,150.134,208.741,150.989,208.741,152.043z"/>
					<g>
						<path fill="#FFFFFF" d="M207.675,151.94c-0.205,1.502,1.284,1.254-0.533,1.254c-1.062,0-2.123,0-3.186,0
							c-3.68,0-7.359,0-11.039,0c-5.494,0-10.988,0-16.482,0c-2.23,0-0.375-2.304,0.702-2.304c1.062,0,2.123,0,3.186,0
							c3.681,0,7.359,0,11.039,0c3.777,0,7.555,0,11.331,0c1.171,0,2.34,0,3.512,0c1.784,0,1.229-0.386,1.45,1.254
							c0.138,1.02,2.311,0.804,2.174-0.204c-0.369-2.72-1.403-2.562-3.755-2.562c-4.756,0-9.515,0-14.27,0
							c-4.386,0-8.771,0-13.154,0c-2.386,0-3.789-0.309-4.179,2.56c-0.349,2.565,1.301,2.766,3.164,2.766c4.576,0,9.151,0,13.727,0
							c4.757,0,9.515,0,14.27,0c2.386,0,3.789,0.308,4.179-2.56C209.959,151.033,207.803,150.99,207.675,151.94z"/>
					</g>
				</g>
			</g>
		</g>
		<g>
			<g>
				<g>
					<g>
						<g>
							<g>
								<path fill="#E9FFFF" d="M209.779,94.202c0,0.494-0.213,0.984-0.625,1.322c-0.729,0.601-1.81,0.495-2.408-0.235L191.2,76.366
									l-15.543,18.922c-0.601,0.729-1.678,0.836-2.408,0.235c-0.73-0.6-0.835-1.679-0.235-2.408l16.864-20.531
									c0.325-0.396,0.811-0.625,1.323-0.625c0.512,0,0.998,0.229,1.323,0.625l16.868,20.531
									C209.653,93.433,209.779,93.818,209.779,94.202z"/>
								<g>
									<path fill="#FFFFFF" d="M208.159,94.531c0.209-0.441-6.123-7.443-7.184-8.733c-2.709-3.297-5.418-6.593-8.126-9.891
										c-0.548-0.667-2.829,0.252-3.271,0.789c-2.473,3.01-4.944,6.021-7.418,9.031c-2.512,3.057-5.387,8.326-8.907,10.205
										c0.936-0.193,1.872-0.387,2.808-0.581c-4.488-1.365,5.375-10.849,6.303-11.979c2.611-3.178,6.028-9.516,9.77-11.286
										c-0.831,0.141-1.66,0.282-2.491,0.423c3.903,1.845,6.975,7.519,9.667,10.796c2.751,3.349,7.341,7.211,8.823,11.351
										c0.235,0.66,3.49-0.376,3.296-0.916c-1.169-3.266-4.563-6.168-6.732-8.809c-3.315-4.035-6.63-8.07-9.944-12.104
										c-4.678-5.692-12.074,6.878-14.224,9.496c-2.994,3.646-5.989,7.291-8.985,10.937c-3.046,3.708,3.887,3.225,5.599,1.841
										c2.893-2.339,5.206-6.316,7.558-9.178c2.707-3.297,5.415-6.593,8.124-9.891c-1.091,0.262-2.181,0.526-3.271,0.789
										c4.043,4.921,8.086,9.842,12.129,14.763c2.343,2.852,6.894,8.267,9.722,2.284
										C211.562,93.528,208.534,93.738,208.159,94.531z"/>
								</g>
							</g>
						</g>
					</g>
					<g>
						<g>
							<g>
								<path fill="#D4F1FF" d="M192.912,73.67v36.868c0,0.945-0.768,1.711-1.712,1.711c-0.946,0-1.71-0.766-1.71-1.711V73.67
									c0-0.946,0.766-1.711,1.71-1.711C192.145,71.958,192.912,72.724,192.912,73.67z"/>
								<g>
									<path fill="#D4F8FF" d="M191.787,72.637c0,12.275,0,24.55,0,36.825c0,4.319-1.174,1.723-1.174,0.643
										c0-1.295,0-2.59,0-3.886c0-4.361,0-8.721,0-13.082c0-4.084,0-8.169,0-12.252c0-1.405,0-2.811,0-4.216
										c0,0.326,0.561-5.092,1.436-2.981c0.596,1.437,2.609,2.103,1.726-0.032c-0.962-2.322-5.409-5.279-5.409-0.633
										c0,3.847,0,7.695,0,11.542c0,5.66,0,11.318,0,16.979c0,2.651-0.398,5.641,0.017,8.272c0.405,2.58,5.656,6.297,5.656,1.713
										c0-3.282,0-6.562,0-9.843c0-8.993,0-17.988,0-26.98C194.036,73.731,191.787,71.311,191.787,72.637z"/>
								</g>
							</g>
						</g>
					</g>
				</g>
			</g>
		</g>
		<g>
			<g>
				<g>
					<path fill="#E9F3FF" d="M208.741,136.104c0,1.054-0.279,1.908-0.626,1.908h-31.953c-0.345,0-0.626-0.854-0.626-1.908
						s0.278-1.907,0.626-1.907h31.953C208.461,134.198,208.741,135.051,208.741,136.104z"/>
					<g>
						<path fill="#FFFFFF" d="M207.806,136.596c-0.128,0.939,1.848,0.79-0.164,0.79c-1.062,0-2.125,0-3.186,0
							c-3.679,0-7.358,0-11.039,0c-3.776,0-7.553,0-11.331,0c-1.419,0-4.55,0.613-5.438-0.509c-2.618-3.308,1.645-2.053,3.997-2.053
							c3.776,0,7.553,0,11.331,0c3.68,0,7.359,0,11.039,0c2.438,0,4.423-0.911,4.8,1.857c0.022,0.175,1.936-0.54,1.854-1.154
							c-0.402-2.952-2.688-1.956-5.213-1.956c-5.154,0-10.309,0-15.464,0c-3.639,0-13.657-2.379-14.391,3.024
							c-0.395,2.918,2.678,2.044,4.454,2.044c5.045,0,10.092,0,15.138,0c4.142,0,8.284,0,12.425,0c1.929,0,2.806-1.154,3.059-3.024
							C209.716,135.324,207.882,136.033,207.806,136.596z"/>
					</g>
				</g>
			</g>
		</g>
	</g>
</g>
</svg>
