<svg xmlns="http://www.w3.org/2000/svg" width="79" height="29" viewBox="0 0 79 29">
    <path fill="#FFF" fill-rule="evenodd" d="M52.171 24.024l24.19-10.19-3.343-1.237-2.757-1.003-18.09 7.652v4.778zm-51.803-9.7v-.492h50.734V.568c0-.267.26-.568.551-.568.26 0 .518.3.518.568v3.174l26.022 9.722c.348.13.357.634.014.778L52.171 25.194v3.201c0 .301-.259.535-.518.535a.548.548 0 0 1-.551-.535V14.87v-.033h1.038v-.143c.02.055.031.114.031.176v3.174l16.567-7.017L52.17 4.912v16.816c0 .367-.259.534-.518.534-.292 0-.551-.167-.551-.534v-6.892H.368v-.49a.525.525 0 0 1 0-.022z"/>
</svg>
