<svg xmlns="http://www.w3.org/2000/svg" width="79" height="29" viewBox="0 0 79 29">
    <path fill="#A76443" fill-rule="evenodd" d="M51.803 24.024l24.19-10.19-3.344-1.237-2.756-1.003-18.09 7.652v4.778zM0 14.324v-.492h50.733V.568c0-.267.26-.568.552-.568.259 0 .518.3.518.568v3.174l26.021 9.722c.348.13.357.634.015.778L51.803 25.194v3.201c0 .301-.26.535-.518.535a.548.548 0 0 1-.552-.535V14.87l.001-.033h1.038v-.143c.02.055.031.114.031.176v3.174l16.566-7.017-16.566-6.114v16.816c0 .367-.26.535-.518.535-.292 0-.552-.168-.552-.535v-6.892H0v-.49a.524.524 0 0 1 0-.022z"/>
</svg>
