<svg xmlns="http://www.w3.org/2000/svg" width="105" height="105" viewBox="0 0 105 105">
    <g fill="none" fill-rule="evenodd">
        <path fill="#FFF" d="M0 104.61h14.177V0H0zM17 104.61h87.69V0H17z"/>
        <path fill="#A86645" d="M22.985 22.733v-1.178l8.566-11.552h-7.917v-1.14h9.49v1.103l-8.619 11.608h8.752v1.159zM37.794 17.356h5.373l-2.691-7.132-2.682 7.132zm-3.321 5.376l5.25-13.868h1.524L46.5 22.732h-1.335l-1.566-4.265h-6.205L35.8 22.732h-1.326z"/>
        <g fill="#A86645">
            <path d="M50.197 21.594h3.73c1.379 0 2.335-.201 2.87-.603.538-.402.806-1.086.806-2.053 0-.94-.302-1.65-.903-2.128-.601-.477-1.49-.715-2.67-.715h-3.833v5.499zm3.083-11.59h-3.083v5.018h2.96c1.429 0 2.42-.192 2.978-.575.558-.383.838-1.032.838-1.949 0-.91-.268-1.553-.804-1.93-.535-.377-1.5-.565-2.89-.565zm-4.352 12.729V8.863h4.576c.796 0 1.427.044 1.895.132a3.68 3.68 0 0 1 1.207.434c.526.295.936.704 1.23 1.228.296.524.443 1.11.443 1.756 0 .69-.18 1.296-.54 1.818-.361.52-.867.913-1.517 1.177.837.181 1.498.591 1.977 1.228.479.637.718 1.424.718 2.358 0 .81-.192 1.517-.578 2.12a3.27 3.27 0 0 1-1.602 1.308c-.275.113-.695.193-1.258.24-.564.047-1.474.07-2.726.07h-3.825zM62.19 22.733V8.863h9.06v1.14h-7.79v5.056h7.123v1.102h-7.124v5.433h8.026v1.139zM74.796 22.733V8.863h9.06v1.14h-7.79v5.056h7.122v1.102h-7.123v5.433h8.026v1.139zM87.383 22.733V8.863h1.306v12.73h7.067v1.14zM22.985 44.234v-13.87h1.267v6.017h7.913v-6.017h1.288v13.87h-1.288V37.52h-7.913v6.714zM38.211 37.313c0 1.896.452 3.398 1.353 4.506.903 1.108 2.124 1.662 3.666 1.662 1.546 0 2.774-.553 3.684-1.657.907-1.106 1.362-2.609 1.362-4.51 0-1.909-.455-3.419-1.362-4.53-.91-1.11-2.138-1.666-3.684-1.666-1.522 0-2.74.56-3.651 1.68-.912 1.12-1.368 2.626-1.368 4.515m-1.315 0c0-2.247.57-4.026 1.71-5.338 1.14-1.313 2.681-1.968 4.624-1.968 1.947 0 3.493.655 4.636 1.968 1.144 1.312 1.716 3.09 1.716 5.338s-.572 4.027-1.716 5.339c-1.143 1.312-2.689 1.967-4.636 1.967-1.943 0-3.483-.655-4.624-1.967-1.14-1.312-1.71-3.091-1.71-5.339M52.932 30.364h1.267v8.738c0 1.538.316 2.653.945 3.342.63.69 1.644 1.036 3.04 1.036 1.398 0 2.413-.345 3.05-1.036.635-.69.954-1.804.954-3.342v-8.738h1.268v8.917c0 1.764-.442 3.095-1.324 3.992-.884.898-2.2 1.347-3.948 1.347-1.741 0-3.053-.448-3.933-1.342-.88-.894-1.32-2.227-1.32-3.997v-8.917zM66.739 40.034h1.269c.013 1.092.358 1.94 1.034 2.542.677.603 1.628.904 2.857.904 1.076 0 1.924-.243 2.54-.73.617-.486.927-1.155.927-2.01 0-.79-.216-1.393-.648-1.808-.434-.414-1.294-.787-2.586-1.12l-1.314-.33c-1.416-.363-2.395-.826-2.937-1.389-.542-.56-.813-1.35-.813-2.367 0-1.124.41-2.025 1.23-2.703.822-.677 1.918-1.016 3.29-1.016 1.454 0 2.589.37 3.407 1.111.817.74 1.236 1.776 1.254 3.107h-1.287c-.02-.985-.326-1.746-.922-2.284-.594-.536-1.431-.805-2.508-.805-1.015 0-1.801.23-2.36.688-.556.458-.834 1.105-.834 1.94-.002.638.179 1.14.542 1.508.364.368.964.657 1.806.867l1.615.405c1.599.4 2.72.908 3.365 1.523.646.614.969 1.462.969 2.541 0 1.243-.425 2.223-1.273 2.939-.85.715-2.01 1.072-3.482 1.072-1.648 0-2.917-.387-3.805-1.162-.891-.775-1.336-1.885-1.336-3.329v-.094zM80.022 44.234v-13.87h9.058v1.14h-7.79v5.056h7.123v1.102H81.29v5.433h8.026v1.139zM55.243 96.722c-1.658 0-2.67-1.414-2.67-2.818 0-1.286.906-2.865 2.706-2.865 1.001 0 2.214.696 2.214 2.442h-3.815v.328c0 1.192.637 2.23 1.884 2.23.824 0 1.658-.673 1.885-1.227-.036.968-.944 1.91-2.204 1.91m-1.515-3.679h2.682c0-1.143-.623-1.58-1.27-1.58-.861 0-1.32.767-1.412 1.58M68.04 96.012v-.186h-.004V92.63c0-1.391-1.165-1.592-1.848-1.592-.952 0-1.423.307-1.858.59l.023 1.462c.282-.85.695-1.604 1.695-1.604.742 0 1.012.53 1.012 1.025 0 .06 0 .449-.047.496-.364.39-1.777.555-2.4.943-.614.367-.79.885-.79 1.333 0 .507.367 1.439 1.413 1.439.79 0 1.4-.423 1.775-.798l.004-.004v.09c0 .26-.129.5-.318.604 0 0 .443-.075.813-.075.374 0 .86.075.86.075-.19-.104-.33-.345-.33-.603m-2.321.05c-.553 0-.895-.354-.895-.978 0-.603.424-.884.977-1.097.553-.178.884-.258 1.26-.448v1.91c-.33.342-.766.613-1.342.613M59.493 96.012v-4.174c0-.434.117-.71.294-.803 0 0-.436-.038-.806.299-.37-.337-.806-.3-.806-.3l.005.005h-.005c.175.094.293.369.293.804V96.012c0 .258-.128.499-.316.603 0 0 .44-.075.812-.075.373 0 .857.075.857.075-.187-.104-.328-.345-.328-.603M59.356 89.277c-.14.12-.26.244-.327.374-.315-1.007-2.182-1.576-1.25-2.684-1.914 1.84.928 2.296 1.25 3.904.027-.41.254-.71.534-.985.032-.238-.06-.428-.207-.61"/>
            <path d="M60.68 87.701c-.241-1.005-2.075-1.869-1.56-2.383-1.271.773.317 1.754 1.042 2.556.235.318.113.583-.128.83-.518-.982-2.186-1.704-1.507-2.464-1.275 1.118-.03 1.813.743 2.598.095.096.184.195.258.295a1.2 1.2 0 0 1 .25.551.837.837 0 0 1-.039.375 1.303 1.303 0 0 1-.12.254c.384-.364.546-.698.561-1.007.377-.388.665-.851.5-1.605M42.207 96.012v-.186h-.001V91.897c0-.491.023-.777.306-.858-.084 0-.53.034-.82.09-.288-.056-.71-.09-.793-.09.282.08.306.367.306.858v3.529c-.341.33-.671.6-1.247.6-.672 0-1.214-.518-1.214-1.52v-2.609c0-.491.024-.777.307-.858-.084 0-.529.034-.817.09a6.61 6.61 0 0 0-.818-.09c.281.08.304.367.304.858v1.205h.002v1.404c0 1.756 1.094 2.217 1.788 2.217.81 0 1.331-.41 1.686-.79v.079c0 .258-.142.499-.33.603 0 0 .443-.075.813-.075.372 0 .857.075.857.075-.187-.104-.329-.345-.329-.603M51.75 96.012v-3.358c0-1.108-.942-1.615-1.742-1.615-.753 0-1.495.554-1.86 1.038-.235-.673-.942-1.038-1.6-1.038-.8 0-1.435.59-1.719.813l-.013.01c.002-.469.033-.744.308-.823-.084 0-.53.034-.818.09-.29-.056-.71-.09-.795-.09.284.08.306.367.306.858v4.115c0 .258-.14.499-.328.603 0 0 .442-.075.814-.075.37 0 .855.075.855.075-.187-.104-.329-.345-.329-.603V92.312c.224-.27.647-.6 1.19-.6.94 0 1.223.577 1.223 1.249v3.051c0 .258-.13.499-.317.603 0 0 .441-.075.813-.075.372 0 .855.075.855.075-.185-.104-.328-.345-.328-.603V92.63c0-.06 0-.12-.024-.178.295-.412.802-.742 1.273-.742.906 0 1.236.6 1.236 1.297v3.004a.713.713 0 0 1-.342.603s.442-.075.814-.075c.372 0 .855.075.855.075-.187-.104-.328-.345-.328-.603M63.258 91.039c-.41 0-1.024.614-1.27 1.038l-.026.028v-.207c0-.49.026-.78.309-.86-.086 0-.53.035-.82.09a6.31 6.31 0 0 0-.793-.09c.281.08.306.37.306.86V96.01c0 .26-.13.5-.32.605 0 0 .443-.076.817-.076.37 0 .856.076.856.076-.189-.106-.329-.346-.329-.605v-3.499c.222-.282.576-.636 1.023-.636.306 0 .519.142.695.365v-1.108c-.14-.058-.165-.094-.448-.094M74.028 96.012V92.678c0-1.085-.849-1.639-1.767-1.639-.777 0-1.515.614-1.777.837v-2.419c0-.492.025-.778.308-.859-.085 0-.53.035-.82.09a6.756 6.756 0 0 0-.816-.09c.283.081.305.367.305.86V96.011c0 .258-.129.499-.319.603 0 0 .443-.075.815-.075.37 0 .857.075.857.075-.189-.104-.33-.345-.33-.603v-3.664c.225-.307.754-.613 1.284-.613.965 0 1.258.636 1.258 1.332V96.012a.714.714 0 0 1-.34.603s.442-.075.815-.075c.37 0 .856.075.856.075-.19-.104-.33-.345-.33-.603M35.882 88.688a7.169 7.169 0 0 0-.878-.09c.282.08.306.369.306.86V95.307c0 3.077-1.695 3.643-2.06 3.855 2.848-.436 3.19-3.349 3.19-3.962v-5.744c0-.49.023-.779.306-.86a7 7 0 0 0-.864.091M75.244 88.7s-.162-.014-.29-.014v1.039c0 .039.018.063.044.079h-.314a.084.084 0 0 0 .044-.08v-1.038a3.78 3.78 0 0 0-.283.013c-.043.002-.072.041-.088.07v-.172h.97v.173c-.017-.03-.04-.069-.083-.07M76.506 89.804a.085.085 0 0 0 .046-.079v-.893c0-.021.003-.041.003-.041l-.014.04-.426.999-.427-.97-.014-.047v.912c0 .038.02.064.05.08h-.196a.087.087 0 0 0 .046-.08v-1.047c0-.034-.029-.066-.06-.08h.313l.356.814.34-.815h.3c-.029.015-.045.04-.045.081v1.047c0 .038.016.064.045.08h-.317zM23.755 96.036h1.563c.393 0 .691-.087.893-.261.204-.173.305-.427.305-.758 0-.329-.104-.571-.31-.726-.207-.154-.532-.23-.976-.23h-1.475v1.975zm0-2.609h1.352c.397 0 .69-.071.877-.216.188-.144.282-.37.282-.675 0-.288-.09-.502-.27-.64-.18-.14-.456-.209-.828-.209h-1.413v1.74zm-.77 3.296v-5.684h2.287c.587 0 1.029.116 1.322.347.295.232.441.577.441 1.038 0 .296-.067.547-.204.754a1.283 1.283 0 0 1-.608.477c.341.064.607.216.797.456.19.241.285.546.285.913 0 .52-.172.933-.516 1.239-.344.306-.811.46-1.401.46h-2.404zM30.736 92.59h.774l-1.737 4.772c-.164.45-.33.745-.496.884-.167.139-.409.208-.725.208-.069 0-.137-.005-.206-.017a2.058 2.058 0 0 1-.205-.048v-.663c.069.02.137.035.204.045.066.011.133.016.2.016a.58.58 0 0 0 .323-.081.503.503 0 0 0 .19-.258l.18-.49-1.563-4.368h.774l1.143 3.342 1.144-3.342z"/>
        </g>
    </g>
</svg>
